<svg width="217" height="217" viewBox="0 0 217 217" fill="none" xmlns="http://www.w3.org/2000/svg">
<g clip-path="url(#clip0_5258_153137)">
<mask id="mask0_5258_153137" style="mask-type:luminance" maskUnits="userSpaceOnUse" x="0" y="0" width="217" height="217">
<path d="M144.667 0H72.3333L0 217H52.8937C60.5792 217 67.3604 213.835 72.3333 208.636C75.0458 205.924 77.0802 202.533 78.4365 198.917L108.5 108.5L138.564 198.917C139.92 202.533 141.954 205.924 144.667 208.636C149.64 213.609 156.421 217 164.106 217H217L144.667 0Z" fill="white"/>
</mask>
<g mask="url(#mask0_5258_153137)">
<path d="M144.669 0L217.003 217H164.109C156.423 217 149.642 213.835 144.669 208.636C141.957 205.924 139.922 202.533 138.566 198.917L72.3359 0H144.669Z" fill="#0F9D58"/>
</g>
<mask id="mask1_5258_153137" style="mask-type:luminance" maskUnits="userSpaceOnUse" x="0" y="0" width="217" height="217">
<path d="M144.667 0H72.3333L0 217H52.8937C60.5792 217 67.3604 213.835 72.3333 208.636C75.0458 205.924 77.0802 202.533 78.4365 198.917L108.5 108.5L138.564 198.917C139.92 202.533 141.954 205.924 144.667 208.636C149.64 213.609 156.421 217 164.106 217H217L144.667 0Z" fill="white"/>
</mask>
<g mask="url(#mask1_5258_153137)">
<path d="M144.667 0L108.5 108.5L217 217L144.667 0Z" fill="url(#paint0_linear_5258_153137)"/>
</g>
<mask id="mask2_5258_153137" style="mask-type:luminance" maskUnits="userSpaceOnUse" x="0" y="0" width="217" height="217">
<path d="M144.667 0H72.3333L0 217H52.8937C60.5792 217 67.3604 213.835 72.3333 208.636C75.0458 205.924 77.0802 202.533 78.4365 198.917L108.5 108.5L138.564 198.917C139.92 202.533 141.954 205.924 144.667 208.636C149.64 213.609 156.421 217 164.106 217H217L144.667 0Z" fill="white"/>
</mask>
<g mask="url(#mask2_5258_153137)">
<path d="M72.3333 0L0 217H52.8937C60.5792 217 67.3604 213.835 72.3333 208.636C75.0458 205.924 77.0802 202.533 78.4364 198.917L144.667 0H72.3333Z" fill="#4285F5"/>
</g>
<mask id="mask3_5258_153137" style="mask-type:luminance" maskUnits="userSpaceOnUse" x="0" y="0" width="217" height="217">
<path d="M144.667 0H72.3333L0 217H52.8937C60.5792 217 67.3604 213.835 72.3333 208.636C75.0458 205.924 77.0802 202.533 78.4365 198.917L108.5 108.5L138.564 198.917C139.92 202.533 141.954 205.924 144.667 208.636C149.64 213.609 156.421 217 164.106 217H217L144.667 0Z" fill="white"/>
</mask>
<g mask="url(#mask3_5258_153137)">
<path d="M143.989 1.13021L144.667 0H72.3333L0 217L0.678125 215.87L72.3333 1.13021H143.989Z" fill="white" fill-opacity="0.2"/>
</g>
<mask id="mask4_5258_153137" style="mask-type:luminance" maskUnits="userSpaceOnUse" x="0" y="0" width="217" height="217">
<path d="M144.667 0H72.3333L0 217H52.8937C60.5792 217 67.3604 213.835 72.3333 208.636C75.0458 205.924 77.0802 202.533 78.4365 198.917L108.5 108.5L138.564 198.917C139.92 202.533 141.954 205.924 144.667 208.636C149.64 213.609 156.421 217 164.106 217H217L144.667 0Z" fill="white"/>
</mask>
<g mask="url(#mask4_5258_153137)">
<path d="M78.4364 197.786C78.4364 198.013 78.4364 198.013 78.4364 197.786C77.0802 201.403 75.0458 204.794 72.3333 207.506C67.3604 212.479 60.5792 215.87 52.8937 215.87H0.678125L0 217H52.8937C60.5792 217 67.3604 213.835 72.3333 208.636C75.0458 205.924 77.0802 202.533 78.4364 198.917L144.667 0L143.989 1.13021L78.4364 197.786Z" fill="#263238" fill-opacity="0.2"/>
</g>
<mask id="mask5_5258_153137" style="mask-type:luminance" maskUnits="userSpaceOnUse" x="0" y="0" width="217" height="217">
<path d="M144.667 0H72.3333L0 217H52.8937C60.5792 217 67.3604 213.835 72.3333 208.636C75.0458 205.924 77.0802 202.533 78.4365 198.917L108.5 108.5L138.564 198.917C139.92 202.533 141.954 205.924 144.667 208.636C149.64 213.609 156.421 217 164.106 217H217L144.667 0Z" fill="white"/>
</mask>
<g mask="url(#mask5_5258_153137)">
<path d="M78.4365 199.143C77.0802 202.759 75.0458 206.15 72.3333 208.862C67.3604 213.835 60.5792 217.226 52.8937 217.226L0.452083 217L0 218.13H52.8937C60.5792 218.13 67.3604 214.966 72.3333 209.767C75.0458 207.054 77.0802 203.664 78.4365 200.047L144.893 0.452083L144.667 0L78.4365 199.143Z" fill="#263238" fill-opacity="0.1"/>
</g>
<mask id="mask6_5258_153137" style="mask-type:luminance" maskUnits="userSpaceOnUse" x="0" y="0" width="217" height="217">
<path d="M144.667 0H72.3333L0 217H52.8937C60.5792 217 67.3604 213.835 72.3333 208.636C75.0458 205.924 77.0802 202.533 78.4365 198.917L108.5 108.5L138.564 198.917C139.92 202.533 141.954 205.924 144.667 208.636C149.64 213.609 156.421 217 164.106 217H217L144.667 0Z" fill="white"/>
</mask>
<g mask="url(#mask6_5258_153137)">
<path d="M216.546 215.87L144.665 0V1.13021L216.32 215.87H163.879C156.193 215.87 149.412 212.705 144.439 207.506C141.727 204.794 139.692 201.403 138.336 197.786L138.788 198.917C140.144 202.533 142.179 205.924 144.891 208.636C149.864 213.609 156.645 217 164.331 217H216.998L216.546 215.87Z" fill="#263238" fill-opacity="0.2"/>
</g>
<g opacity="0.1">
<path d="M144.667 0H72.3333L0 217H52.8937C60.5792 217 67.3604 213.835 72.3333 208.636C75.0458 205.924 77.0802 202.533 78.4365 198.917L108.5 108.5L138.564 198.917C139.92 202.533 141.954 205.924 144.667 208.636C149.64 213.609 156.421 217 164.106 217H217L144.667 0Z" fill="url(#paint1_radial_5258_153137)"/>
</g>
</g>
<defs>
<linearGradient id="paint0_linear_5258_153137" x1="115.776" y1="87.2091" x2="242.882" y2="128.808" gradientUnits="userSpaceOnUse">
<stop stop-color="#263238" stop-opacity="0.2"/>
<stop offset="1" stop-color="#263238" stop-opacity="0"/>
</linearGradient>
<radialGradient id="paint1_radial_5258_153137" cx="0" cy="0" r="1" gradientUnits="userSpaceOnUse" gradientTransform="translate(71.9287 0.0655581) scale(260.389)">
<stop stop-color="white"/>
<stop offset="1" stop-color="white" stop-opacity="0"/>
</radialGradient>
<clipPath id="clip0_5258_153137">
<rect width="217" height="217" fill="white"/>
</clipPath>
</defs>
</svg>
