<svg width="220" height="48" viewBox="0 0 220 48" fill="none" xmlns="http://www.w3.org/2000/svg">
<path d="M9.79651 11.2653H0V1.46875H9.79651V11.2653Z" fill="white"/>
<path d="M38.4866 11.2653H9.79688V1.46875H38.4866V11.2653Z" fill="#2C58A4"/>
<path d="M38.487 30.859H19.5938V21.0625H38.487V30.859Z" fill="#2C58A4"/>
<path d="M38.484 21.0621H28.6875V11.2656H38.484V21.0621Z" fill="#2C58A4"/>
<path d="M9.79651 44.854H0V21.0625H9.79651V44.854Z" fill="white"/>
<path d="M19.5938 35.0579V30.8594H22.0178L19.5938 35.0579Z" fill="#2C58A4"/>
<path d="M212.847 20.0816C212.847 21.0845 213.022 21.7726 213.372 22.1458C213.722 22.4957 214.212 22.6706 214.841 22.6706C215.261 22.6706 215.693 22.6007 216.136 22.4607C216.602 22.3208 217.104 22.1108 217.64 21.8309L218.655 24.7349C217.932 25.1781 217.185 25.5279 216.416 25.7845C215.646 26.0178 214.865 26.1344 214.072 26.1344C213.139 26.1344 212.276 25.9595 211.483 25.6096C210.689 25.2364 210.048 24.6533 209.558 23.8602C209.092 23.0672 208.858 22.0409 208.858 20.7813V2.97266H212.847V20.0816ZM206.234 8.04585H218.34V10.9148H206.234V8.04585Z" fill="white"/>
<path d="M186.797 0H190.82V25.9607H186.797V0ZM199.043 7.38237H203.661L190.506 21.0275V16.2342L199.043 7.38237ZM196.383 13.995L204.186 25.9607H199.427L193.41 16.4092L196.383 13.995Z" fill="white"/>
<path d="M178.219 15.3243C178.172 14.2747 177.927 13.3883 177.484 12.6653C177.064 11.9189 176.469 11.3474 175.699 10.9509C174.93 10.531 174.043 10.3211 173.04 10.3211C171.921 10.3211 170.941 10.5777 170.101 11.0908C169.285 11.604 168.644 12.327 168.177 13.26C167.711 14.1697 167.477 15.2427 167.477 16.4789C167.477 17.8084 167.722 18.963 168.212 19.9427C168.725 20.9223 169.425 21.6804 170.311 22.2168C171.221 22.7533 172.259 23.0216 173.425 23.0216C175.501 23.0216 177.251 22.2868 178.673 20.8173L180.808 22.9516C179.898 23.9546 178.79 24.7359 177.484 25.2957C176.178 25.8322 174.72 26.1005 173.11 26.1005C171.198 26.1005 169.53 25.7039 168.107 24.9109C166.684 24.1178 165.576 23.0216 164.783 21.6221C163.99 20.1992 163.594 18.5548 163.594 16.6888C163.594 14.8228 163.99 13.1901 164.783 11.7906C165.576 10.3677 166.684 9.2598 168.107 8.46675C169.53 7.6737 171.163 7.26551 173.005 7.24219C175.198 7.24219 176.959 7.69703 178.289 8.6067C179.618 9.49305 180.563 10.7526 181.123 12.3854C181.682 14.0181 181.881 15.9541 181.717 18.1933H166.848V15.3243H178.219Z" fill="white"/>
<path d="M151.578 7.24219C153.351 7.24219 154.902 7.63871 156.231 8.43176C157.561 9.22481 158.599 10.3328 159.345 11.7556C160.092 13.1784 160.465 14.8345 160.465 16.7238C160.465 18.5665 160.092 20.1992 159.345 21.6221C158.622 23.0216 157.596 24.1178 156.266 24.9109C154.96 25.7039 153.421 26.1005 151.648 26.1005C149.945 26.1005 148.488 25.7273 147.275 24.9809C146.085 24.2345 145.175 23.1615 144.546 21.762C143.916 20.3392 143.601 18.6598 143.601 16.7238C143.601 14.7179 143.916 13.0151 144.546 11.6156C145.175 10.1928 146.085 9.10819 147.275 8.36179C148.488 7.61539 149.922 7.24219 151.578 7.24219ZM150.738 10.4261C149.642 10.4261 148.662 10.6943 147.799 11.2308C146.936 11.7672 146.26 12.502 145.77 13.435C145.304 14.3447 145.07 15.4059 145.07 16.6188C145.07 17.8317 145.304 18.9164 145.77 19.8727C146.26 20.8057 146.936 21.5404 147.799 22.0769C148.662 22.59 149.642 22.8466 150.738 22.8466C151.858 22.8466 152.838 22.5784 153.677 22.0419C154.54 21.5054 155.205 20.7707 155.672 19.8377C156.161 18.9047 156.406 17.8317 156.406 16.6188C156.406 15.4293 156.161 14.368 155.672 13.435C155.205 12.502 154.54 11.7672 153.677 11.2308C152.838 10.6943 151.858 10.4261 150.738 10.4261ZM141.047 7.38214H145.07V32.7481H141.047V7.38214Z" fill="white"/>
<path d="M134.34 11.8954C133.524 11.4055 132.626 11.0207 131.646 10.7408C130.69 10.4375 129.804 10.2859 128.987 10.2859C128.194 10.2859 127.541 10.4375 127.028 10.7408C126.515 11.044 126.258 11.5455 126.258 12.2452C126.258 12.8284 126.492 13.2949 126.958 13.6447C127.448 13.9713 128.066 14.2512 128.812 14.4844C129.559 14.7177 130.352 14.9626 131.192 15.2192C132.031 15.4757 132.824 15.814 133.571 16.2338C134.34 16.6303 134.959 17.1785 135.425 17.8782C135.892 18.578 136.125 19.4993 136.125 20.6422C136.125 21.9018 135.787 22.9398 135.11 23.7561C134.457 24.5492 133.582 25.144 132.486 25.5405C131.413 25.9137 130.247 26.1003 128.987 26.1003C127.634 26.1003 126.282 25.8787 124.929 25.4355C123.576 24.9924 122.433 24.3509 121.5 23.5112L122.934 20.7822C123.751 21.5053 124.742 22.0767 125.908 22.4966C127.075 22.8931 128.159 23.0914 129.162 23.0914C129.745 23.0914 130.259 23.0214 130.702 22.8814C131.168 22.7182 131.53 22.4849 131.786 22.1817C132.066 21.8785 132.206 21.4819 132.206 20.9921C132.206 20.339 131.973 19.8259 131.506 19.4527C131.04 19.0795 130.433 18.7762 129.687 18.543C128.941 18.2864 128.148 18.0415 127.308 17.8083C126.468 17.5517 125.675 17.2251 124.929 16.8286C124.206 16.4321 123.611 15.8956 123.144 15.2192C122.678 14.5427 122.445 13.6447 122.445 12.5251C122.445 11.2656 122.771 10.2509 123.424 9.48122C124.077 8.68817 124.917 8.11671 125.943 7.76683C126.993 7.39363 128.113 7.20703 129.302 7.20703C130.468 7.20703 131.635 7.37031 132.801 7.69686C133.967 8.02341 134.97 8.47824 135.81 9.06137L134.34 11.8954Z" fill="white"/>
<path d="M109.148 7.24219C111.061 7.24219 112.74 7.63871 114.187 8.43176C115.656 9.22481 116.799 10.3328 117.615 11.7556C118.432 13.1551 118.84 14.7878 118.84 16.6538C118.84 18.5198 118.432 20.1642 117.615 21.5871C116.799 23.0099 115.656 24.1178 114.187 24.9109C112.74 25.7039 111.061 26.1005 109.148 26.1005C107.236 26.1005 105.545 25.7039 104.075 24.9109C102.606 24.1178 101.463 23.0099 100.646 21.5871C99.8301 20.1642 99.4219 18.5198 99.4219 16.6538C99.4219 14.7878 99.8301 13.1551 100.646 11.7556C101.463 10.3328 102.606 9.22481 104.075 8.43176C105.545 7.63871 107.236 7.24219 109.148 7.24219ZM109.148 10.496C108.029 10.496 107.037 10.7643 106.174 11.3007C105.311 11.8139 104.635 12.537 104.145 13.47C103.679 14.403 103.445 15.4759 103.445 16.6888C103.445 17.925 103.679 19.0097 104.145 19.9427C104.635 20.8757 105.311 21.6104 106.174 22.1469C107.037 22.66 108.029 22.9166 109.148 22.9166C110.268 22.9166 111.248 22.66 112.087 22.1469C112.95 21.6104 113.615 20.8757 114.082 19.9427C114.571 19.0097 114.816 17.925 114.816 16.6888C114.816 15.4759 114.571 14.403 114.082 13.47C113.615 12.537 112.95 11.8139 112.087 11.3007C111.248 10.7643 110.268 10.496 109.148 10.496Z" fill="white"/>
<path d="M97.1644 10.8809C95.8349 10.8109 94.6803 11.0442 93.7006 11.5806C92.7443 12.0938 91.9979 12.8169 91.4614 13.7499C90.9483 14.6829 90.6917 15.7558 90.6917 16.9687L89.5721 16.8288C89.5721 14.7528 89.8753 13.0035 90.4818 11.5806C91.0882 10.1578 91.9629 9.08486 93.1058 8.36179C94.2488 7.61539 95.6016 7.24219 97.1644 7.24219V10.8809ZM86.7031 7.38214H90.7267V25.9605H86.7031V7.38214Z" fill="white"/>
<path d="M72.4646 1.46875C75.5435 1.46875 77.9227 2.20349 79.6021 3.67296C81.3048 5.11912 82.1562 7.16005 82.1562 9.79578C82.1562 12.5481 81.3048 14.694 79.6021 16.2335C77.9227 17.7496 75.5435 18.5077 72.4646 18.5077H65.0123L66.8317 16.6883V25.96H62.7031V1.46875H72.4646ZM72.2897 14.9739C74.179 14.9739 75.6368 14.5657 76.6631 13.7494C77.6894 12.9097 78.2026 11.6268 78.2026 9.90074C78.2026 8.24467 77.6894 7.0201 76.6631 6.22705C75.6368 5.41068 74.179 5.00249 72.2897 5.00249H65.0123L66.8317 3.18314V16.7933L65.0123 14.9739H72.2897Z" fill="white"/>
<path d="M217.125 45.7459C216.935 46.2138 216.693 46.5668 216.399 46.8047C216.106 47.0505 215.777 47.1734 215.412 47.1734C215.182 47.1734 214.968 47.1417 214.77 47.0783C214.579 47.0228 214.401 46.9355 214.234 46.8166L214.448 46.4359C214.726 46.6262 215.039 46.7214 215.388 46.7214C215.666 46.7214 215.92 46.6223 216.15 46.424C216.38 46.2257 216.57 45.9442 216.721 45.5794L217.006 44.8538L214.448 38.668H214.972L217.256 44.3185L219.48 38.668H220.004L217.125 45.7459Z" fill="white"/>
<path d="M212.103 44.1759C212.103 44.7865 211.98 45.3139 211.734 45.758C211.488 46.2101 211.14 46.559 210.687 46.8048C210.243 47.0507 209.716 47.1736 209.105 47.1736C208.614 47.1736 208.162 47.0864 207.749 46.9119C207.345 46.7374 206.96 46.4837 206.595 46.1506L206.857 45.8175C207.174 46.1189 207.515 46.3488 207.88 46.5075C208.245 46.6661 208.649 46.7454 209.093 46.7454C209.609 46.7454 210.053 46.6383 210.426 46.4242C210.806 46.218 211.1 45.9246 211.306 45.5439C211.52 45.1632 211.627 44.7112 211.627 44.1878V38.6681H212.103V44.1759ZM209.082 38.6562C209.637 38.6562 210.124 38.7831 210.545 39.0369C210.973 39.2907 211.306 39.6396 211.544 40.0837C211.782 40.5278 211.901 41.0473 211.901 41.6421C211.901 42.221 211.782 42.7365 211.544 43.1885C211.306 43.6326 210.977 43.9816 210.557 44.2354C210.136 44.4891 209.649 44.616 209.093 44.616C208.538 44.616 208.047 44.4891 207.618 44.2354C207.19 43.9737 206.849 43.6207 206.595 43.1766C206.349 42.7246 206.227 42.2131 206.227 41.6421C206.227 41.0552 206.349 40.5397 206.595 40.0956C206.841 39.6515 207.178 39.3026 207.606 39.0488C208.043 38.7871 208.534 38.6562 209.082 38.6562ZM209.153 39.0607C208.677 39.0607 208.253 39.1757 207.88 39.4057C207.507 39.6277 207.214 39.9331 207 40.3217C206.794 40.7023 206.691 41.1425 206.691 41.6421C206.691 42.1417 206.794 42.5858 207 42.9744C207.214 43.3551 207.507 43.6564 207.88 43.8785C208.253 44.1005 208.677 44.2116 209.153 44.2116C209.637 44.2116 210.061 44.1005 210.426 43.8785C210.799 43.6564 211.092 43.3551 211.306 42.9744C211.52 42.5858 211.627 42.1417 211.627 41.6421C211.627 41.1425 211.52 40.7023 211.306 40.3217C211.092 39.9331 210.799 39.6277 210.426 39.4057C210.061 39.1757 209.637 39.0607 209.153 39.0607Z" fill="white"/>
<path d="M200.838 38.6562C201.425 38.6562 201.949 38.7871 202.409 39.0488C202.877 39.3105 203.241 39.6753 203.503 40.1432C203.765 40.6111 203.896 41.1464 203.896 41.7491C203.896 42.3598 203.765 42.8991 203.503 43.367C203.241 43.8349 202.877 44.2036 202.409 44.4733C201.949 44.735 201.425 44.8658 200.838 44.8658C200.252 44.8658 199.728 44.735 199.268 44.4733C198.808 44.2036 198.443 43.8349 198.174 43.367C197.912 42.8991 197.781 42.3598 197.781 41.7491C197.781 41.1464 197.912 40.6111 198.174 40.1432C198.443 39.6753 198.808 39.3105 199.268 39.0488C199.728 38.7871 200.252 38.6562 200.838 38.6562ZM200.838 39.0845C200.339 39.0845 199.895 39.1995 199.506 39.4295C199.125 39.6595 198.824 39.9767 198.602 40.3811C198.38 40.7777 198.269 41.2376 198.269 41.761C198.269 42.2845 198.38 42.7484 198.602 43.1528C198.824 43.5573 199.125 43.8745 199.506 44.1045C199.895 44.3266 200.339 44.4376 200.838 44.4376C201.338 44.4376 201.778 44.3266 202.159 44.1045C202.547 43.8745 202.853 43.5573 203.075 43.1528C203.297 42.7484 203.408 42.2845 203.408 41.761C203.408 41.2376 203.297 40.7777 203.075 40.3811C202.853 39.9767 202.547 39.6595 202.159 39.4295C201.778 39.1995 201.338 39.0845 200.838 39.0845Z" fill="white"/>
<path d="M194.219 36.0273H194.718V44.854H194.219V36.0273Z" fill="white"/>
<path d="M188.104 38.6562C188.691 38.6562 189.214 38.7871 189.674 39.0488C190.142 39.3105 190.507 39.6753 190.769 40.1432C191.03 40.6111 191.161 41.1464 191.161 41.7491C191.161 42.3598 191.03 42.8991 190.769 43.367C190.507 43.8349 190.142 44.2036 189.674 44.4733C189.214 44.735 188.691 44.8658 188.104 44.8658C187.517 44.8658 186.994 44.735 186.534 44.4733C186.074 44.2036 185.709 43.8349 185.439 43.367C185.178 42.8991 185.047 42.3598 185.047 41.7491C185.047 41.1464 185.178 40.6111 185.439 40.1432C185.709 39.6753 186.074 39.3105 186.534 39.0488C186.994 38.7871 187.517 38.6562 188.104 38.6562ZM188.104 39.0845C187.604 39.0845 187.16 39.1995 186.772 39.4295C186.391 39.6595 186.09 39.9767 185.868 40.3811C185.646 40.7777 185.535 41.2376 185.535 41.761C185.535 42.2845 185.646 42.7484 185.868 43.1528C186.09 43.5573 186.391 43.8745 186.772 44.1045C187.16 44.3266 187.604 44.4376 188.104 44.4376C188.604 44.4376 189.044 44.3266 189.425 44.1045C189.813 43.8745 190.118 43.5573 190.34 43.1528C190.563 42.7484 190.674 42.2845 190.674 41.761C190.674 41.2376 190.563 40.7777 190.34 40.3811C190.118 39.9767 189.813 39.6595 189.425 39.4295C189.044 39.1995 188.604 39.0845 188.104 39.0845Z" fill="white"/>
<path d="M181.749 41.1663C181.749 40.516 181.571 40.0124 181.214 39.6555C180.857 39.2907 180.361 39.1083 179.727 39.1083C178.966 39.1241 178.371 39.374 177.943 39.8577C177.514 40.3415 177.3 40.9957 177.3 41.8205H177.039C177.039 41.1385 177.15 40.5675 177.372 40.1075C177.594 39.6396 177.915 39.2828 178.335 39.0369C178.763 38.7911 179.267 38.6642 179.846 38.6562C180.346 38.6562 180.774 38.7554 181.131 38.9536C181.495 39.144 181.773 39.4215 181.963 39.7863C182.154 40.1432 182.249 40.5754 182.249 41.083V44.8539H181.749V41.1663ZM176.812 38.6681H177.312V44.8539H176.812V38.6681Z" fill="white"/>
<path d="M172.847 41.1663C172.847 40.516 172.669 40.0124 172.312 39.6556C171.955 39.2907 171.459 39.1083 170.825 39.1083C170.063 39.1242 169.469 39.374 169.04 39.8578C168.612 40.3415 168.398 40.9958 168.398 41.8206H168.136C168.136 41.1386 168.247 40.5676 168.469 40.1076C168.691 39.6397 169.013 39.2828 169.433 39.037C169.861 38.7911 170.365 38.6642 170.944 38.6563C171.443 38.6563 171.872 38.7554 172.228 38.9537C172.593 39.144 172.871 39.4216 173.061 39.7864C173.252 40.1433 173.347 40.5755 173.347 41.083V44.854H172.847V41.1663ZM167.898 36.0273H168.398V44.854H167.898V36.0273Z" fill="white"/>
<path d="M164.289 39.8339C164.043 39.6039 163.757 39.4255 163.432 39.2986C163.115 39.1638 162.762 39.0964 162.373 39.0964C161.882 39.0964 161.442 39.2114 161.053 39.4414C160.664 39.6634 160.359 39.9767 160.137 40.3811C159.923 40.7777 159.816 41.2376 159.816 41.761C159.816 42.2845 159.923 42.7484 160.137 43.1528C160.359 43.5494 160.664 43.8626 161.053 44.0926C161.442 44.3226 161.882 44.4376 162.373 44.4376C162.786 44.4376 163.166 44.3622 163.515 44.2116C163.864 44.0609 164.158 43.8468 164.396 43.5692L164.693 43.8666C164.416 44.1759 164.078 44.4217 163.682 44.6041C163.285 44.7786 162.845 44.8658 162.362 44.8658C161.775 44.8658 161.255 44.735 160.803 44.4733C160.351 44.2036 159.99 43.8349 159.721 43.367C159.459 42.8991 159.328 42.3638 159.328 41.761C159.328 41.1583 159.459 40.623 159.721 40.1551C159.99 39.6872 160.351 39.3224 160.803 39.0607C161.255 38.7911 161.775 38.6562 162.362 38.6562C162.806 38.6562 163.214 38.7316 163.587 38.8823C163.967 39.0329 164.297 39.2431 164.574 39.5127L164.289 39.8339Z" fill="white"/>
<path d="M156.589 41.4636C156.557 40.9878 156.438 40.5715 156.232 40.2146C156.034 39.8577 155.756 39.5802 155.399 39.3819C155.042 39.1757 154.63 39.0726 154.162 39.0726C153.67 39.0726 153.23 39.1876 152.842 39.4176C152.461 39.6396 152.16 39.9529 151.938 40.3573C151.724 40.7539 151.616 41.2138 151.616 41.7373C151.616 42.2686 151.727 42.7405 151.95 43.1528C152.172 43.5573 152.477 43.8745 152.866 44.1045C153.254 44.3345 153.694 44.4495 154.186 44.4495C155.058 44.4495 155.756 44.16 156.28 43.5811L156.565 43.8785C156.288 44.1878 155.939 44.4297 155.518 44.6041C155.106 44.7786 154.654 44.8658 154.162 44.8658C153.583 44.8658 153.064 44.735 152.604 44.4733C152.152 44.2036 151.795 43.8349 151.533 43.367C151.271 42.8991 151.141 42.3638 151.141 41.761C151.141 41.1583 151.271 40.623 151.533 40.1551C151.795 39.6872 152.152 39.3224 152.604 39.0607C153.064 38.7911 153.583 38.6562 154.162 38.6562C154.773 38.6562 155.292 38.7911 155.721 39.0607C156.157 39.3303 156.486 39.711 156.708 40.2027C156.938 40.6865 157.049 41.2416 157.041 41.8681H151.498V41.4636H156.589Z" fill="white"/>
<path d="M144.047 36.5352H150.161V36.9872H147.354V44.8503H146.854V36.9872H144.047V36.5352Z" fill="white"/>
<path d="M137.421 41.1663C137.421 40.516 137.243 40.0124 136.886 39.6555C136.529 39.2907 136.033 39.1083 135.399 39.1083C134.638 39.1241 134.043 39.374 133.614 39.8577C133.186 40.3415 132.972 40.9957 132.972 41.8205H132.71C132.71 41.1385 132.821 40.5675 133.043 40.1075C133.266 39.6396 133.587 39.2828 134.007 39.0369C134.435 38.7911 134.939 38.6642 135.518 38.6562C136.017 38.6562 136.446 38.7554 136.803 38.9536C137.167 39.144 137.445 39.4215 137.635 39.7863C137.826 40.1432 137.921 40.5754 137.921 41.083V44.8539H137.421V41.1663ZM132.484 38.6681H132.984V44.8539H132.484V38.6681Z" fill="white"/>
<path d="M126.432 38.6562C127.019 38.6562 127.542 38.7871 128.002 39.0488C128.47 39.3105 128.835 39.6753 129.097 40.1432C129.359 40.6111 129.489 41.1464 129.489 41.7491C129.489 42.3598 129.359 42.8991 129.097 43.367C128.835 43.8349 128.47 44.2036 128.002 44.4733C127.542 44.735 127.019 44.8658 126.432 44.8658C125.845 44.8658 125.322 44.735 124.862 44.4733C124.402 44.2036 124.037 43.8349 123.768 43.367C123.506 42.8991 123.375 42.3598 123.375 41.7491C123.375 41.1464 123.506 40.6111 123.768 40.1432C124.037 39.6753 124.402 39.3105 124.862 39.0488C125.322 38.7871 125.845 38.6562 126.432 38.6562ZM126.432 39.0845C125.933 39.0845 125.488 39.1995 125.1 39.4295C124.719 39.6595 124.418 39.9767 124.196 40.3811C123.974 40.7777 123.863 41.2376 123.863 41.761C123.863 42.2845 123.974 42.7484 124.196 43.1528C124.418 43.5573 124.719 43.8745 125.1 44.1045C125.488 44.3266 125.933 44.4376 126.432 44.4376C126.932 44.4376 127.372 44.3266 127.753 44.1045C128.141 43.8745 128.447 43.5573 128.669 43.1528C128.891 42.7484 129.002 42.2845 129.002 41.761C129.002 41.2376 128.891 40.7777 128.669 40.3811C128.447 39.9767 128.141 39.6595 127.753 39.4295C127.372 39.1995 126.932 39.0845 126.432 39.0845Z" fill="white"/>
<path d="M119.87 38.6656H120.357V44.8514H119.87V38.6656ZM120.119 36.4648C120.238 36.4648 120.338 36.5045 120.417 36.5838C120.496 36.6631 120.536 36.7622 120.536 36.8812C120.536 36.9922 120.496 37.0914 120.417 37.1786C120.338 37.2579 120.238 37.2975 120.119 37.2975C120.008 37.2975 119.909 37.2579 119.822 37.1786C119.743 37.0914 119.703 36.9922 119.703 36.8812C119.703 36.7622 119.743 36.6631 119.822 36.5838C119.909 36.5045 120.008 36.4648 120.119 36.4648Z" fill="white"/>
<path d="M114.942 43.0903C114.942 43.5344 115.026 43.8675 115.192 44.0895C115.367 44.3116 115.613 44.4226 115.93 44.4226C116.112 44.4147 116.291 44.383 116.465 44.3274C116.647 44.264 116.818 44.1728 116.977 44.0538L117.167 44.4107C116.977 44.5535 116.77 44.6645 116.548 44.7438C116.334 44.8152 116.108 44.8548 115.87 44.8628C115.577 44.8628 115.323 44.8033 115.109 44.6843C114.903 44.5574 114.744 44.3671 114.633 44.1133C114.522 43.8516 114.467 43.5304 114.467 43.1498V37.2852H114.942V43.0903ZM113.562 38.8078H117.048V39.2123H113.562V38.8078Z" fill="white"/>
<path d="M108.129 41.8086C107.526 41.8086 107.062 41.9157 106.737 42.1298C106.412 42.336 106.249 42.6413 106.249 43.0458C106.249 43.4582 106.396 43.7952 106.689 44.0569C106.991 44.3186 107.391 44.4495 107.891 44.4495C108.287 44.4495 108.64 44.394 108.95 44.2829C109.267 44.164 109.54 43.9855 109.77 43.7476C110 43.5018 110.179 43.1925 110.306 42.8198L110.532 43.1528C110.286 43.7476 109.925 44.1838 109.449 44.4614C108.981 44.731 108.438 44.8658 107.82 44.8658C107.415 44.8658 107.058 44.7865 106.749 44.6279C106.44 44.4693 106.198 44.2552 106.023 43.9855C105.857 43.708 105.773 43.3987 105.773 43.0577C105.773 42.5422 105.98 42.1377 106.392 41.8443C106.804 41.5509 107.367 41.4042 108.081 41.4042H110.425V41.8086H108.129ZM110.282 40.7737C110.274 40.2424 110.115 39.826 109.806 39.5246C109.505 39.2233 109.045 39.0726 108.426 39.0726C108.046 39.0726 107.685 39.1479 107.344 39.2986C107.003 39.4414 106.67 39.6357 106.344 39.8815L106.107 39.5365C106.352 39.3541 106.598 39.1995 106.844 39.0726C107.09 38.9378 107.348 38.8347 107.617 38.7633C107.895 38.6919 108.188 38.6562 108.498 38.6562C109.227 38.6562 109.786 38.8426 110.175 39.2154C110.563 39.5881 110.762 40.0956 110.77 40.738L110.793 44.8539H110.306L110.282 40.7737Z" fill="white"/>
<path d="M97.5369 41.1663C97.5369 40.516 97.3584 40.0124 97.0016 39.6555C96.6526 39.2907 96.1689 39.1083 95.5503 39.1083C94.8128 39.1241 94.2338 39.374 93.8135 39.8577C93.3932 40.3415 93.183 40.9957 93.183 41.8205H92.9332C92.9332 41.1385 93.0403 40.5675 93.2544 40.1075C93.4765 39.6396 93.7937 39.2828 94.2061 39.0369C94.6185 38.7911 95.1102 38.6642 95.6811 38.6562C96.1649 38.6562 96.5813 38.7554 96.9302 38.9536C97.2871 39.144 97.5567 39.4215 97.7391 39.7863C97.9294 40.1432 98.0246 40.5754 98.0246 41.083V44.8539H97.5369V41.1663ZM102.367 41.1663C102.367 40.516 102.192 40.0124 101.843 39.6555C101.494 39.2907 101.006 39.1083 100.38 39.1083C99.6345 39.1241 99.0556 39.374 98.6432 39.8577C98.2308 40.3415 98.0246 40.9957 98.0246 41.8205H97.7748C97.7748 41.1385 97.8819 40.5675 98.096 40.1075C98.318 39.6396 98.6313 39.2828 99.0357 39.0369C99.4481 38.7911 99.9359 38.6642 100.499 38.6562C100.999 38.6562 101.423 38.7554 101.772 38.9536C102.121 39.144 102.386 39.4215 102.569 39.7863C102.759 40.1432 102.854 40.5754 102.854 41.083V44.8539H102.367V41.1663ZM92.6953 38.6681H93.183V44.8539H92.6953V38.6681Z" fill="white"/>
<path d="M90.159 39.1202C89.6752 39.1202 89.2588 39.2312 88.9099 39.4533C88.561 39.6753 88.2953 39.9886 88.1129 40.393C87.9305 40.7975 87.8393 41.2773 87.8393 41.8324L87.5776 41.8205C87.5776 41.1623 87.6807 40.5992 87.8869 40.1313C88.0931 39.6634 88.3905 39.3026 88.7791 39.0488C89.1676 38.795 89.6276 38.6642 90.159 38.6562V39.1202ZM87.3516 38.6681H87.8512V44.8539H87.3516V38.6681Z" fill="white"/>
<path d="M81.2916 38.6562C81.8784 38.6562 82.4019 38.7871 82.8618 39.0488C83.3297 39.3105 83.6945 39.6753 83.9562 40.1432C84.2179 40.6111 84.3488 41.1464 84.3488 41.7491C84.3488 42.3598 84.2179 42.8991 83.9562 43.367C83.6945 43.8349 83.3297 44.2036 82.8618 44.4733C82.4019 44.735 81.8784 44.8658 81.2916 44.8658C80.7047 44.8658 80.1813 44.735 79.7213 44.4733C79.2614 44.2036 78.8966 43.8349 78.6269 43.367C78.3652 42.8991 78.2344 42.3598 78.2344 41.7491C78.2344 41.1464 78.3652 40.6111 78.6269 40.1432C78.8966 39.6753 79.2614 39.3105 79.7213 39.0488C80.1813 38.7871 80.7047 38.6562 81.2916 38.6562ZM81.2916 39.0845C80.792 39.0845 80.3479 39.1995 79.9593 39.4295C79.5786 39.6595 79.2772 39.9767 79.0552 40.3811C78.8331 40.7777 78.7221 41.2376 78.7221 41.761C78.7221 42.2845 78.8331 42.7484 79.0552 43.1528C79.2772 43.5573 79.5786 43.8745 79.9593 44.1045C80.3479 44.3266 80.792 44.4376 81.2916 44.4376C81.7912 44.4376 82.2314 44.3266 82.612 44.1045C83.0006 43.8745 83.3059 43.5573 83.528 43.1528C83.75 42.7484 83.8611 42.2845 83.8611 41.761C83.8611 41.2376 83.75 40.7777 83.528 40.3811C83.3059 39.9767 83.0006 39.6595 82.612 39.4295C82.2314 39.1995 81.7912 39.0845 81.2916 39.0845Z" fill="white"/>
<path d="M74.3007 37.9051C74.3007 37.5086 74.384 37.1596 74.5506 36.8583C74.7171 36.5569 74.9392 36.323 75.2167 36.1564C75.5022 35.9899 75.8075 35.9106 76.1327 35.9185C76.3072 35.9264 76.4816 35.9542 76.6561 36.0018C76.8306 36.0494 76.9932 36.1168 77.1438 36.204L76.9892 36.5966C76.8623 36.5252 76.7235 36.4697 76.5728 36.43C76.4301 36.3824 76.2873 36.3587 76.1446 36.3587C75.8908 36.3587 75.6608 36.4221 75.4546 36.549C75.2484 36.6759 75.0859 36.8543 74.9669 37.0843C74.8479 37.3063 74.7885 37.5681 74.7885 37.8694V44.8522H74.3007V37.9051ZM73.5156 38.8092H76.7037V39.2136H73.5156V38.8092Z" fill="white"/>
<path d="M70.2024 41.1663C70.2024 40.516 70.0239 40.0124 69.6671 39.6555C69.3102 39.2907 68.8145 39.1083 68.1801 39.1083C67.4188 39.1241 66.824 39.374 66.3957 39.8577C65.9675 40.3415 65.7534 40.9957 65.7534 41.8205H65.4916C65.4916 41.1385 65.6027 40.5675 65.8247 40.1075C66.0468 39.6396 66.368 39.2828 66.7883 39.0369C67.2165 38.7911 67.7201 38.6642 68.299 38.6562C68.7987 38.6562 69.2269 38.7554 69.5838 38.9536C69.9486 39.144 70.2262 39.4215 70.4165 39.7863C70.6068 40.1432 70.702 40.5754 70.702 41.083V44.8539H70.2024V41.1663ZM65.2656 38.6681H65.7652V44.8539H65.2656V38.6681Z" fill="white"/>
<path d="M60.9062 36.5352H61.4059V44.8503H60.9062V36.5352Z" fill="white"/>
</svg>
