<svg width="1067" height="689" viewBox="0 0 1067 689" fill="none" xmlns="http://www.w3.org/2000/svg">
<path fill-rule="evenodd" clip-rule="evenodd" d="M452.936 223.401C452.904 223.607 452.918 224.17 452.967 224.651C453.025 225.223 452.709 225.526 452.054 225.526C451.503 225.526 450.906 225.762 450.728 226.05C450.52 226.387 450.196 226.404 449.824 226.097C448.823 225.275 445.468 225.551 444.482 226.537C443.736 227.283 443.521 227.32 443.298 226.737C442.803 225.449 441.494 225.926 441.478 227.401C441.467 228.297 441.004 229.109 440.148 229.734L438.835 230.692L439.153 229.099C439.425 227.74 439.204 227.208 437.652 225.49C436.273 223.964 435.517 223.511 434.537 223.625C433.787 223.713 433.243 224.091 433.243 224.526C433.243 224.938 432.849 225.437 432.368 225.635C431.887 225.832 431.493 226.395 431.493 226.885C431.492 227.375 430.931 228.428 430.246 229.224L429 230.673L430.288 231.341C431.369 231.902 431.791 231.897 432.924 231.311C433.847 230.834 434.544 230.765 435.13 231.092C436.57 231.899 434.912 233.831 432.441 234.226C430.885 234.475 430.463 234.746 430.597 235.412C430.736 236.105 431.214 236.246 433.007 236.124C435.17 235.976 435.27 236.034 436.066 237.874C436.989 240.008 436.872 240.526 435.464 240.526C434.827 240.526 434.493 240.869 434.493 241.526C434.493 242.389 434.827 242.526 436.926 242.526C438.554 242.526 439.755 242.838 440.56 243.471C443.397 245.703 449.098 246.092 449.622 244.089C449.766 243.537 450.52 243.045 451.534 242.843C452.454 242.659 453.801 241.939 454.527 241.243C455.253 240.547 456.481 239.809 457.257 239.601C458.032 239.394 458.908 238.789 459.204 238.258C459.501 237.726 460.137 236.994 460.618 236.63C461.1 236.266 461.493 235.663 461.493 235.289C461.493 234.915 461.706 234.534 461.965 234.442C462.745 234.167 461.943 229.975 461.047 229.636C459.881 229.195 458.993 228.208 458.993 227.353C458.993 226.944 458.712 226.514 458.368 226.399C457.883 226.235 457.898 226 458.439 225.345C459.366 224.222 458.709 223.65 457.418 224.456C456.526 225.013 456.291 224.961 455.662 224.063C454.97 223.074 453.057 222.61 452.936 223.401Z" fill="#2A549D"/>
</svg>
