<svg width="1067" height="689" viewBox="0 0 1067 689" fill="none" xmlns="http://www.w3.org/2000/svg">
<path fill-rule="evenodd" clip-rule="evenodd" d="M1011.21 620.594C1010.78 621.205 1010.43 622.071 1010.43 622.517C1010.43 622.964 1009.99 623.841 1009.45 624.466C1008.91 625.09 1008.32 626.081 1008.14 626.667C1007.85 627.643 1004.12 631.491 1002.76 632.223C999.7 633.871 998.789 634.576 996.771 636.866C994.317 639.649 993.634 641.248 994.173 642.947C994.414 643.706 994.926 643.985 996.093 643.99C997.521 643.997 999.983 644.957 998.62 644.975C998.002 644.983 996.641 647.856 997.058 648.273C997.2 648.415 997.926 648.378 998.671 648.191C999.713 647.93 999.979 647.606 999.822 646.788C999.641 645.841 999.816 645.742 1001.4 645.887C1002.9 646.024 1003.51 645.743 1005.18 644.141C1007.1 642.314 1007.98 640.546 1008.66 637.19C1008.89 636.076 1009.46 635.419 1010.7 634.827C1011.64 634.376 1012.76 634.138 1013.17 634.297C1014.2 634.691 1014.71 633.171 1013.89 632.178C1013.34 631.515 1013.36 631.312 1014.04 630.933C1015.07 630.36 1017.43 626.162 1017.43 624.92C1017.43 624.404 1017.66 623.983 1017.93 623.983C1018.81 623.983 1018.47 622.238 1017.43 621.344C1016.18 620.271 1015.63 620.257 1015.23 621.289C1014.98 621.942 1014.78 621.978 1014.18 621.478C1013.77 621.138 1013.43 620.55 1013.43 620.172C1013.43 619.102 1012.08 619.36 1011.21 620.594Z" fill="#2A549D"/>
<path fill-rule="evenodd" clip-rule="evenodd" d="M1013.41 596.515C1013.23 596.808 1013.42 597.426 1013.82 597.89C1014.22 598.354 1014.47 598.969 1014.36 599.256C1014.26 599.544 1014.6 600.246 1015.14 600.817C1015.67 601.387 1016.82 603.133 1017.71 604.695C1019.72 608.267 1019.63 611.443 1017.46 613.174C1015.85 614.454 1016.12 615.627 1018.2 616.492C1020.46 617.427 1020.91 618.224 1020.18 619.983C1019.84 620.809 1019.36 621.484 1019.12 621.484C1018.27 621.484 1018.7 622.472 1019.9 623.258C1020.84 623.876 1021.35 623.931 1022.14 623.505C1023.44 622.809 1026.73 617.72 1026.9 616.139C1027.08 614.44 1028.08 613.518 1028.7 614.488C1029.08 615.087 1029.17 615.018 1029.18 614.134C1029.18 613.529 1029.5 612.854 1029.89 612.634C1030.28 612.41 1030.67 611.241 1030.76 609.984C1030.91 608.028 1030.8 607.715 1029.91 607.587C1029.34 607.506 1028.47 607.891 1027.97 608.443C1027.13 609.37 1026.95 609.39 1025.62 608.703C1024.3 608.02 1022.6 605.221 1022.48 603.527C1022.46 603.138 1022.12 602.716 1021.74 602.588C1021.22 602.414 1021.11 602.746 1021.28 603.934C1021.66 606.535 1020.54 605.423 1019.79 602.453C1018.97 599.198 1018.59 598.69 1016.74 598.32C1015.87 598.146 1015.21 597.635 1015.05 597.009C1014.76 595.903 1013.94 595.657 1013.41 596.515Z" fill="#2A549D"/>
</svg>
