<svg width="1067" height="689" viewBox="0 0 1067 689" fill="none" xmlns="http://www.w3.org/2000/svg">
<path fill-rule="evenodd" clip-rule="evenodd" d="M676.039 41.3029C674.284 41.5609 673.806 42.1589 673.795 44.1114C673.789 45.2689 673.954 45.4759 674.663 45.2014C675.144 45.0154 676.135 44.7424 676.865 44.5949C677.714 44.4234 678.266 43.9344 678.4 43.2364C678.635 42.0054 678.372 40.8954 677.871 41.0079C677.688 41.0489 676.863 41.1819 676.039 41.3029ZM686.609 44.5624C685.72 45.2184 685.734 45.2824 686.923 46.0619C688.719 47.2384 690.79 47.3569 691.459 46.3219C692.176 45.2124 691.555 44.6044 689.288 44.1939C688.145 43.9869 687.216 44.1149 686.609 44.5624ZM671.663 47.7774C671.181 47.9034 670.788 48.1974 670.788 48.4314C670.788 49.3294 668.153 51.9329 667.243 51.9329C666.583 51.9329 666.29 52.2809 666.295 53.0579C666.306 54.6649 666.984 55.5184 667.953 55.1464C668.423 54.9659 668.788 55.0679 668.788 55.3794C668.788 55.6839 669.125 55.9329 669.538 55.9329C669.95 55.9329 670.288 55.6729 670.288 55.3554C670.288 55.0334 670.743 55.1899 671.317 55.7094C672.735 56.9924 673.99 56.1404 674.193 53.7574C674.36 51.7939 674.802 51.4954 675.788 52.6829C676.13 53.0954 676.848 53.4329 677.382 53.4329C678.148 53.4329 678.321 53.1404 678.196 52.0579C678.088 51.1184 677.765 50.7039 677.178 50.7499C676.705 50.7864 676.184 50.3929 676.019 49.8749C675.855 49.3569 675.391 48.9329 674.988 48.9329C674.586 48.9329 674.127 48.5954 673.969 48.1829C673.679 47.4284 673.273 47.3569 671.663 47.7774ZM692.562 55.0579C692.455 55.4019 692.162 56.3579 691.911 57.1829C691.587 58.2504 691.067 58.7549 690.11 58.9329C689.37 59.0704 688.35 59.8174 687.843 60.5929C687.109 61.7169 686.861 61.8439 686.62 61.2179C686.252 60.2574 684.469 60.2299 682.789 61.1594C681.941 61.6289 681.347 61.6899 680.938 61.3504C679.908 60.4954 678.427 61.3604 678.097 63.0104C677.677 65.1134 677.72 68.0524 678.183 68.7804C678.392 69.1089 679.344 69.3474 680.3 69.3109C681.256 69.2739 682.378 69.4029 682.795 69.5969C683.333 69.8474 683.825 69.4404 684.498 68.1909C685.019 67.2239 685.617 66.4329 685.828 66.4329C686.038 66.4329 686.482 65.6104 686.813 64.6054L687.416 62.7779L688.253 63.8874C689.036 64.9249 689.243 64.9589 691.439 64.4054C693.009 64.0104 694.272 63.2639 695.245 62.1554C696.511 60.7129 696.666 60.2154 696.429 58.3399C696.279 57.1534 695.813 55.7889 695.395 55.3079C694.512 54.2939 692.846 54.1469 692.562 55.0579ZM651.496 55.6119C651.041 56.7959 651.472 58.1829 652.295 58.1829C652.782 58.1829 653.038 57.6814 653.038 56.7244C653.038 55.1439 651.971 54.3744 651.496 55.6119ZM663.554 57.0579C663.388 57.6764 662.998 59.0314 662.687 60.0679C662.18 61.7549 662.233 62.0574 663.183 62.9429C663.768 63.4874 664.591 63.9329 665.013 63.9329C665.434 63.9329 666.06 64.3829 666.404 64.9329C666.747 65.4829 667.546 65.9329 668.178 65.9329C669.862 65.9329 673.288 64.0414 673.288 63.1114C673.288 62.4699 673.431 62.4299 674.01 62.9099C675.129 63.8384 677.013 63.3569 677.192 62.0964C677.638 58.9659 674.904 54.7579 673.574 56.5294C673.279 56.9229 672.628 57.3984 672.128 57.5864C671.491 57.8259 671.314 58.2274 671.537 58.9304C671.961 60.2669 671.594 60.1939 670.032 58.6319C669.259 57.8589 668.367 57.4264 667.834 57.5654C667.341 57.6944 666.398 57.3849 665.738 56.8774C664.182 55.6814 663.917 55.7034 663.554 57.0579ZM680.615 57.3474C680.16 57.8504 679.788 58.5174 679.788 58.8299C679.788 59.6959 681.742 60.5529 682.999 60.2374C684.179 59.9414 685.284 58.1119 684.92 57.0579C684.589 56.0994 681.56 56.3029 680.615 57.3474ZM649.477 60.3909C647.857 61.3759 647.031 63.3359 647.548 64.9654C647.713 65.4864 647.649 66.2689 647.406 66.7044C647.016 67.4014 646.889 67.4074 646.347 66.7539C645.804 66.0994 645.572 66.1064 644.384 66.8124C643.644 67.2529 642.293 68.4594 641.382 69.4934C639.753 71.3424 639.74 71.3949 640.588 72.6899C641.124 73.5074 641.774 73.9224 642.303 73.7839C642.86 73.6384 643.135 73.8419 643.097 74.3719C643.033 75.2479 644.559 75.3739 646.719 74.6709C647.758 74.3334 647.869 74.0549 647.641 72.3599C647.411 70.6409 647.499 70.4324 648.46 70.4299C649.132 70.4279 649.859 69.8629 650.389 68.9299C650.91 68.0149 651.648 67.4329 652.288 67.4329C653.377 67.4329 655.744 65.1434 655.772 64.0634C655.781 63.7229 655.455 63.0479 655.047 62.5634C654.64 62.0794 654.021 61.3119 653.672 60.8584C652.65 59.5304 651.164 59.3649 649.477 60.3909ZM641.222 61.8054C640.846 62.3339 639.472 63.1709 638.17 63.6649C635.071 64.8404 634.318 65.7209 635.589 66.6824C636.111 67.0779 636.905 67.4084 637.354 67.4169C637.804 67.4259 638.295 67.9064 638.446 68.4854C638.78 69.7614 639.855 69.5219 640.533 68.0209C640.806 67.4174 641.413 66.8019 641.883 66.6529C642.352 66.5039 642.88 65.9314 643.054 65.3809C643.27 64.7019 643.559 64.5299 643.955 64.8454C644.275 65.1014 645.044 65.4659 645.663 65.6554C646.678 65.9669 646.788 65.8329 646.788 64.2779C646.788 62.2524 646.185 61.6434 643.722 61.1834C642.257 60.9094 641.775 61.0294 641.222 61.8054ZM661.592 67.0389C661.276 68.6164 661.798 69.4084 663.163 69.4254C664.185 69.4379 663.921 66.5394 662.847 65.9649C662.038 65.5319 661.863 65.6819 661.592 67.0389ZM670.921 68.7389C671.15 69.9374 670.727 70.1839 668.714 70.0269C668.119 69.9809 667.83 70.4799 667.674 71.8229C667.554 72.8459 667.363 74.0204 667.247 74.4329C667.086 75.0099 667.585 75.2179 669.413 75.3354C670.719 75.4189 671.788 75.2714 671.788 75.0069C671.788 74.7429 672.248 74.6469 672.811 74.7939C673.927 75.0859 675.245 73.7759 675.272 72.3474C675.282 71.8289 675.866 71.3854 676.814 71.1769C679.65 70.5544 677.056 68.1759 673.115 67.7854C670.781 67.5539 670.701 67.5884 670.921 68.7389ZM658.288 69.9799C658.288 70.6059 657.886 71.1314 657.288 71.2879C655.206 71.8324 657.008 73.9329 659.556 73.9329C661.72 73.9329 662.81 72.3389 661.578 70.9769C661.143 70.4969 660.788 69.8404 660.788 69.5184C660.788 69.1964 660.225 68.9329 659.538 68.9329C658.602 68.9329 658.288 69.1964 658.288 69.9799ZM664.788 71.9329C664.788 73.0729 665.893 73.2609 666.722 72.2619C667.383 71.4659 666.975 70.9329 665.704 70.9329C665.121 70.9329 664.788 71.2964 664.788 71.9329ZM649.02 73.4889C648.803 74.1724 648.978 74.8334 649.517 75.3639C650.288 76.1229 650.401 76.1119 651.068 75.2124C651.464 74.6784 651.788 73.8349 651.788 73.3374C651.788 71.9939 649.454 72.1214 649.02 73.4889ZM677.413 74.7699C675.205 76.3104 676.682 78.9154 679.131 77.7994C680.47 77.1894 680.631 75.8479 679.502 74.7184C679.07 74.2864 678.676 73.9449 678.627 73.9589C678.578 73.9734 678.031 74.3384 677.413 74.7699ZM651.234 75.8754C649.607 77.1939 650.629 78.3794 653.362 78.3414C655.271 78.3154 655.351 78.2514 655.037 77.0034C654.479 74.7784 653.096 74.3684 651.234 75.8754Z" fill="#2A549D"/>
</svg>
