<svg width="1067" height="689" viewBox="0 0 1067 689" fill="none" xmlns="http://www.w3.org/2000/svg">
<path fill-rule="evenodd" clip-rule="evenodd" d="M35.7756 184.239C34.6621 185.509 32.8062 186.496 31.5299 186.496C30.1308 186.496 28.5961 187.411 27.5235 188.884C26.4182 190.401 24.9226 191.273 23.4234 191.273C21.6986 191.273 20.918 191.854 20.5214 193.433C20.223 194.621 19.5771 195.594 19.0868 195.594C18.5955 195.594 18.1816 196.515 18.1652 197.641C18.1216 200.763 16.0074 202.898 12.3776 203.486C10.2944 203.825 9.09718 204.52 9.09718 205.392C9.09718 206.147 8.43217 207.251 7.61979 207.845C6.32981 208.788 6.55451 209.12 9.38738 210.465C13.0526 212.204 16.6587 216.284 16.0147 217.964C15.7791 218.578 16.4804 219.31 17.573 219.592C18.6647 219.874 20.032 221.139 20.6106 222.405C21.5721 224.509 21.4812 224.705 19.5362 224.705C18.1161 224.705 17.3147 224.102 17.1209 222.889C16.848 221.19 16.6633 221.16 14.2334 222.429C12.8052 223.175 11.3724 223.623 11.0494 223.425C10.7265 223.226 8.90704 224.371 7.00573 225.968C4.55678 228.027 3.72347 229.326 4.14649 230.428C4.4749 231.283 5.31366 231.982 6.0105 231.982C6.70735 231.982 7.32868 232.392 7.39145 232.892C7.92 237.123 9.22635 238.477 12.6296 238.323C14.439 238.241 16.2266 238.265 16.6023 238.376C18.7293 239.005 19.7618 238.745 21.6022 237.118C22.7257 236.124 23.9201 235.586 24.2558 235.921C24.5915 236.256 24.3877 236.531 23.8046 236.531C23.2205 236.531 22.7429 237.145 22.7429 237.896C22.7429 238.646 23.1805 239.26 23.7163 239.26C24.2512 239.26 24.5578 240.182 24.3986 241.307C24.2212 242.556 23.4725 243.357 22.4773 243.362C21.5812 243.367 20.4968 243.937 20.0684 244.629C19.6408 245.322 18.5 245.683 17.533 245.43C15.5389 244.908 12.2876 246.895 13.0681 248.159C13.351 248.617 12.8106 249.82 11.8682 250.833C9.371 253.513 8.82972 258.181 10.8675 259.454C11.7608 260.012 12.3185 261.129 12.1074 261.937C11.6016 263.871 16.8789 267.78 19.1832 267.178C20.6115 266.804 20.9426 267.237 21.0308 269.594C21.0909 271.173 21.0609 273.027 20.9653 273.715C20.8298 274.692 21.6831 274.832 24.8708 274.353C27.3998 273.975 29.1746 274.106 29.5413 274.699C29.866 275.225 31.1305 275.405 32.3505 275.098C34.9686 274.442 34.9914 274.557 33.1492 279.162C31.6927 282.801 26.5801 287.622 22.9576 288.771C21.8387 289.126 20.9235 289.823 20.9235 290.319C20.9235 290.816 20.5605 290.997 20.1166 290.723C19.6736 290.449 18.8048 290.834 18.1862 291.579C17.5676 292.324 16.5123 292.933 15.8409 292.933C14.1334 292.933 12.4258 296.273 13.7222 297.074C14.268 297.412 15.1695 297.232 15.7263 296.675C16.9853 295.416 19.4161 295.331 18.6492 296.572C18.3399 297.073 18.5382 297.482 19.0904 297.482C19.6417 297.482 19.9728 296.775 19.8264 295.91C19.679 295.046 20.0857 294.33 20.7288 294.318C21.3729 294.307 22.2481 293.734 22.6747 293.044C23.1632 292.254 23.9074 292.076 24.6879 292.564C25.3693 292.989 26.3363 293.411 26.8367 293.502C27.337 293.593 28.4632 293.955 29.3384 294.307C31.0004 294.976 31.6072 293.459 30.0607 292.503C28.8753 291.771 29.9252 289.295 31.4216 289.295C32.0848 289.295 32.8872 288.476 33.2047 287.475C33.5222 286.474 34.3246 285.656 34.9877 285.656C35.6509 285.656 36.4315 285.038 36.7207 284.283C37.0109 283.528 37.7706 283.016 38.4101 283.146C39.0496 283.275 39.4708 282.87 39.3453 282.244C39.2207 281.619 39.6846 281.107 40.376 281.107C41.0683 281.107 41.8597 280.247 42.1345 279.196C42.4092 278.145 43.0096 277.517 43.4681 277.8C43.9266 278.084 45.2384 277.239 46.3838 275.922C48.0276 274.03 48.2569 273.196 47.4763 271.945C46.4611 270.32 46.5193 270.214 51.8566 263.973C52.8555 262.805 53.6733 262.21 53.6733 262.653C53.6733 263.097 53.314 263.847 52.8737 264.323C52.4343 264.798 51.802 266.723 51.4682 268.598C51.0188 271.127 51.1734 272.01 52.065 272.01C53.4559 272.01 57.4705 269.415 58.3984 267.915C58.7459 267.354 60.3634 266.987 61.9936 267.1C63.7603 267.223 65.355 266.764 65.9391 265.964C66.9525 264.578 72.3089 263.96 73.446 265.098C73.7999 265.452 73.5297 266.087 72.8456 266.51C72.0751 266.986 73.6416 267.309 76.9657 267.361C84.8994 267.485 88.1161 267.84 87.6813 268.544C87.4675 268.89 87.8132 269.594 88.45 270.11C89.0868 270.626 90.7925 272.084 92.2417 273.349C93.6909 274.614 95.161 275.649 95.5085 275.649C95.856 275.649 97.4262 278.285 98.9973 281.507C100.568 284.729 102.377 287.697 103.016 288.103C103.656 288.508 105.18 290.334 106.401 292.162C108.249 294.924 109.067 295.428 111.254 295.15C113.512 294.865 113.722 295.012 112.744 296.191C112.116 296.947 111.12 297.379 110.53 297.153C109.939 296.926 108.916 297.074 108.256 297.482C107.268 298.093 107.279 298.758 108.327 301.265C109.027 302.937 109.569 304.51 109.534 304.76C109.498 305.01 110.484 306.182 111.724 307.363L113.979 309.512L113.372 305.71C113.037 303.618 112.725 301.628 112.677 301.286C112.628 300.945 112.638 299.745 112.698 298.619C112.863 295.466 114.351 296.195 115.019 299.756C115.377 301.662 116.148 302.94 116.94 302.94C117.667 302.94 118.263 303.715 118.263 304.662C118.263 305.609 118.833 306.603 119.528 306.869C120.224 307.137 121.406 308.587 122.158 310.092C123.311 312.404 123.327 312.904 122.258 313.315C120.386 314.033 120.723 316.378 122.793 317.035C123.783 317.349 125.289 318.784 126.139 320.222C126.989 321.661 128.588 323.065 129.692 323.342C132.098 323.946 132.832 326.689 133.436 337.334C133.717 342.278 133.505 345.326 132.822 346.148C132.16 346.945 132.018 348.673 132.432 350.872C132.791 352.779 133.025 355.67 132.952 357.296C132.879 358.93 133.27 360.253 133.827 360.253C134.38 360.253 134.602 360.856 134.319 361.593C134.036 362.329 134.811 364.128 136.041 365.59C137.271 367.052 138.277 368.891 138.277 369.677C138.277 370.463 139.505 372.505 141.006 374.214C142.507 375.923 143.735 378.168 143.735 379.202C143.735 380.887 147.292 385.725 148.53 385.725C148.802 385.725 148.808 384.899 148.544 383.892C148.192 382.544 148.42 382.195 149.404 382.572C150.263 382.903 150.591 383.886 150.317 385.315C149.998 386.987 150.285 387.544 151.468 387.544C152.597 387.544 152.91 387.027 152.569 385.724C152.307 384.722 152.464 384.132 152.917 384.413C153.371 384.693 153.742 385.541 153.742 386.297C153.742 387.053 154.97 389.456 156.471 391.638C157.972 393.819 159.21 395.94 159.221 396.35C159.231 396.76 160.041 398.12 161.02 399.37C163.335 402.33 163.288 402.956 160.801 402.306C158.847 401.795 158.82 401.861 160.178 403.904C160.956 405.078 162.254 406.134 163.063 406.253C165.651 406.633 169.149 409.77 169.179 411.738C169.209 413.736 171.286 415.986 173.983 416.943C174.86 417.254 175.575 418.134 175.575 418.901C175.575 420.501 176.999 420.76 177.89 419.32C178.601 418.169 173.127 406.648 171.867 406.648C171.392 406.648 169.966 404.384 168.701 401.616C167.434 398.848 166.053 396.797 165.631 397.057C164.458 397.783 162.907 395.435 163.076 393.188C163.242 390.969 163.578 390.815 165.542 392.057C166.278 392.523 166.605 393.179 166.268 393.516C165.931 393.853 166.25 394.724 166.977 395.449C167.703 396.176 168.298 397.561 168.298 398.525C168.298 399.49 168.81 400.291 169.435 400.306C170.061 400.319 171.595 401.74 172.846 403.464C174.097 405.188 175.66 406.609 176.319 406.623C177.102 406.639 177.317 407.281 176.938 408.472C176.532 409.753 176.852 410.475 178.014 410.9C181.375 412.126 191.567 424.842 189.19 424.842C187.801 424.842 188.168 428.139 189.698 429.409C190.46 430.042 190.872 430.772 190.613 431.031C190.115 431.53 192.706 433.207 196.499 434.841C197.75 435.381 200.411 436.581 202.412 437.51C207.562 439.901 214.903 442.388 216.513 442.287C217.263 442.24 219.132 441.944 220.665 441.631C223.026 441.147 223.942 441.551 226.666 444.275C228.71 446.319 231.427 447.878 234.129 448.559C236.466 449.147 238.599 449.988 238.87 450.426C239.141 450.865 239.91 451.224 240.578 451.224C242.534 451.224 247.443 456.334 247.443 458.371C247.443 459.781 248.214 460.383 250.584 460.828C252.444 461.178 254.306 462.306 255.153 463.598C255.939 464.798 257.392 465.78 258.381 465.78C259.37 465.78 260.179 466.102 260.179 466.496C260.179 466.89 261.455 467.309 263.014 467.428C265.153 467.591 265.727 467.324 265.35 466.343C265.075 465.627 265.659 464.309 266.647 463.414C268.135 462.069 268.348 462.038 267.889 463.237C267.583 464.034 267.77 464.956 268.305 465.287C268.839 465.617 269.282 465.351 269.288 464.696C269.295 464.041 270.24 465.538 271.389 468.021C272.569 470.571 273.748 472.099 274.099 471.531C275.179 469.784 275.55 464.369 274.685 463.001C274.227 462.277 273.847 462.056 273.839 462.509C273.831 462.962 273.042 462.624 272.086 461.758C269.754 459.648 267.428 459.405 264.962 461.012C262.881 462.368 257.849 461.885 258.756 460.416C259.015 459.998 258.417 458.922 257.428 458.028C256.115 456.839 255.631 455.228 255.631 452.047C255.631 449.652 256.002 447.464 256.455 447.183C257.768 446.372 256.535 443.242 254.335 441.801C251.911 440.212 248.318 439.647 246.771 440.611C245.974 441.107 245.814 440.833 246.223 439.673C246.695 438.333 246.578 438.241 245.576 439.171C244.901 439.796 243.563 440.308 242.602 440.308C241.225 440.308 241.072 440.042 241.884 439.064C242.452 438.381 242.846 437.05 242.761 436.108C242.416 432.288 242.97 429.446 244.326 428.09C246.962 425.453 245.586 423.506 240.87 423.202C235.281 422.842 233.076 424.086 232.718 427.8C232.462 430.457 231.974 430.909 227.884 432.279C223.629 433.705 223.168 433.705 220.75 432.279C218.124 430.732 213.487 423.156 213.136 419.839C213.03 418.838 213.385 416.641 213.925 414.957C214.464 413.272 214.882 410.207 214.853 408.146C214.803 404.57 216.604 401.19 218.557 401.19C219.026 401.19 220.478 400.349 221.785 399.321C223.684 397.827 224.897 397.575 227.841 398.059C229.867 398.393 231.944 399.005 232.459 399.418C232.975 399.832 234.745 400.132 236.396 400.085C238.844 400.014 239.314 399.691 238.956 398.319C238.714 397.394 238.852 396.847 239.263 397.101C239.674 397.354 240.15 397.142 240.322 396.627C240.793 395.212 245.421 394.649 247.489 395.756C248.492 396.293 249.11 397.062 248.861 397.465C248.612 397.868 249.419 398.005 250.654 397.768C251.891 397.532 252.901 396.953 252.901 396.481C252.901 396.01 253.317 395.882 253.826 396.195C254.334 396.51 254.513 397.151 254.223 397.62C253.933 398.089 254.271 398.694 254.972 398.964C255.701 399.243 256.301 400.846 256.37 402.695C256.442 404.601 257.193 406.553 258.193 407.43C260.184 409.177 262.709 413.563 261.18 412.618C260.616 412.268 260.179 412.618 260.179 413.417C260.179 416.307 264.032 413.911 265.174 410.312C265.857 408.163 264.179 398.458 262.905 397.183C260.82 395.098 261.985 391.333 265.865 387.622C267.991 385.589 270.144 383.921 270.649 383.915C271.155 383.91 272.079 383.086 272.704 382.086C273.329 381.085 274.451 380.266 275.197 380.266C275.944 380.266 276.554 379.857 276.554 379.357C276.554 378.856 277.373 378.447 278.374 378.447C280.547 378.447 280.725 376.466 278.815 373.551C277.559 371.634 277.594 371.249 279.213 369.19C280.19 367.948 281.26 365.855 281.59 364.539C281.921 363.224 282.74 361.691 283.412 361.133C284.084 360.575 284.41 359.536 284.136 358.822C283.77 357.869 284.39 357.523 286.464 357.523C288.018 357.523 289.29 357.082 289.29 356.543C289.29 355.962 290.684 355.684 292.702 355.86C295.871 356.138 296.119 355.981 296.205 353.657C296.26 352.172 295.819 351.155 295.121 351.155C294.475 351.155 293.669 350.707 293.33 350.159C292.53 348.863 294.785 344.646 296.05 345.074C296.585 345.254 297.521 344.752 298.131 343.958C299.008 342.814 299.245 342.78 299.268 343.791C299.29 344.762 299.746 344.664 301.16 343.384C303.586 341.188 305.554 340.912 305.061 342.837C304.641 344.475 308.28 347.264 309.198 346.008C309.913 345.033 312.751 343.245 315.672 341.933C324.471 337.979 326.916 336.108 324.907 334.866C324.297 334.488 324.044 333.538 324.345 332.753C325.135 330.697 322.895 329.651 321.574 331.457C320.127 333.437 313.853 333.55 313.853 331.596C313.853 330.839 313.044 330.232 312.033 330.232C310.01 330.232 309.57 328.855 311.371 328.163C313.509 327.343 313.096 323.096 310.727 321.544C308.724 320.231 308.284 320.235 305.672 321.586C304.099 322.399 302.328 322.868 301.737 322.627C301.127 322.378 301.305 322.157 302.147 322.116C302.965 322.077 303.847 321.227 304.109 320.228C304.711 317.923 308.483 316.321 309.759 317.828C311.928 320.391 316.083 322.954 318.069 322.954C320.967 322.954 320.789 320.999 317.719 319.095L315.217 317.544L319.722 317.52C323.425 317.5 324.722 317.027 327 314.867C330.055 311.971 334.678 309.997 333.323 312.168C332.899 312.846 332.48 313.811 332.39 314.312C331.966 316.683 330.134 320.319 328.578 321.874C327.631 322.821 326.898 324.722 326.95 326.097C327.04 328.496 327.257 328.607 332.307 328.841C335.202 328.975 337.863 329.403 338.22 329.792C338.578 330.182 337.949 330.274 336.823 329.996C335.416 329.65 334.776 329.901 334.776 330.8C334.776 332.816 337.386 333.351 339.203 331.707C341.201 329.898 342.054 329.836 342.054 331.499C342.054 332.196 342.668 333.002 343.418 333.29C345.892 334.239 347.21 333.007 346.973 329.967C346.569 324.789 346.178 323.442 344.556 321.645C343.68 320.675 342.963 319.502 342.963 319.038C342.963 318.573 341.961 318.386 340.735 318.619C338.133 319.117 336.889 317.06 338.568 315.037C339.432 313.996 339.387 313.544 338.357 312.892C337.638 312.437 337.479 312.059 338.002 312.051C339.055 312.036 339.095 308.761 338.071 306.487C337.71 305.687 337.516 304.663 337.64 304.213C338.021 302.83 336.526 299.301 335.559 299.301C334.162 299.301 332.313 297.141 332.704 295.966C333.009 295.05 331.527 293.498 330.227 293.372C329.027 293.255 321.91 288.174 321.597 287.209C321.4 286.605 321.026 284.388 320.763 282.283C320.325 278.775 318.792 274.953 317.371 273.829C317.055 273.579 315.615 270.886 314.17 267.846C311.674 262.591 309.304 261.037 309.304 264.657C309.304 265.532 308.997 266.555 308.622 266.931C307.942 267.61 307.815 268.071 307.598 270.622C307.535 271.359 306.275 272.589 304.798 273.353C302.239 274.675 302.002 274.632 299.795 272.425C298.52 271.15 297.428 269.205 297.367 268.103C297.146 264.14 297.215 261.525 297.57 260.243C297.816 259.357 297.074 258.858 295.26 258.693C293.512 258.532 291.388 257.173 289.121 254.767C287.215 252.742 285.04 251.086 284.289 251.086C283.537 251.086 283.024 250.626 283.15 250.063C283.274 249.5 282.865 248.852 282.239 248.622C281.541 248.366 281.298 248.717 281.609 249.528C282.34 251.432 279.956 252.032 276.218 250.885C272.487 249.74 269.644 251.214 270.723 253.734C271.605 255.795 271.271 259.33 270.056 260.795C269.233 261.787 269.329 261.926 270.523 261.468C271.643 261.038 271.882 261.267 271.459 262.368C271.148 263.181 271.423 264.486 272.073 265.268C272.772 266.11 272.906 266.94 272.402 267.303C271.934 267.641 271.041 269.334 270.419 271.067C269.463 273.73 269.498 274.336 270.646 274.978C271.394 275.397 272.006 276.289 272.006 276.962C272.006 277.634 272.62 278.419 273.37 278.707C274.328 279.075 274.735 280.568 274.735 283.713C274.735 287.673 274.38 288.499 271.691 290.792C270.017 292.22 267.972 293.798 267.147 294.298C265.81 295.109 265.782 295.605 266.887 298.847C269.247 305.776 269.404 307.296 267.739 307.159C266.838 307.085 265.951 307.961 265.564 309.308C265.145 310.763 264.876 311.01 264.819 309.991C264.769 309.115 264.362 308.399 263.915 308.399C263.469 308.399 262.869 307.789 262.584 307.045C262.298 306.301 262.356 305.789 262.714 305.908C263.071 306.027 263.466 305.817 263.591 305.442C264.17 303.704 263.646 302.83 261.544 302.031C259.825 301.377 259.269 300.509 259.269 298.474C259.269 296.993 258.87 294.731 258.383 293.447C257.641 291.499 256.916 291.114 253.985 291.114C252.055 291.114 250.169 290.807 249.793 290.432C249.418 290.057 248.736 289.698 248.277 289.636C247.819 289.573 247.035 289.471 246.535 289.408C246.037 289.346 244.109 287.862 242.252 286.111C240.396 284.359 238.398 282.927 237.813 282.927C237.228 282.927 236.272 282.351 235.688 281.647C235.074 280.907 233.59 280.529 232.165 280.75C229.976 281.091 229.518 280.679 228.022 277.026C226.889 274.262 225.795 272.92 224.671 272.92C222.56 272.92 221.625 270.044 222.398 265.926C223.063 262.383 225.623 256.411 226.864 255.509C227.303 255.19 227.342 254.411 226.951 253.776C226.487 253.027 226.605 252.851 227.288 253.274C227.912 253.658 228.339 253.345 228.339 252.505C228.339 251.725 228.728 251.086 229.202 251.086C230.992 251.086 234.917 246.577 234.37 245.151C234.032 244.272 234.191 243.944 234.779 244.308C235.307 244.635 235.948 244.104 236.203 243.13C236.539 241.844 237.247 241.47 238.788 241.765C240.588 242.108 241.199 241.516 242.812 237.87C243.858 235.506 244.714 232.886 244.714 232.049C244.714 231.212 245.166 230.075 245.719 229.522C247.403 227.838 247.794 219.468 246.261 217.935C245.529 217.203 244.683 216.851 244.381 217.153C244.079 217.455 243.287 216.405 242.621 214.821C241.954 213.235 241.129 212.218 240.787 212.56C240.445 212.902 240.165 212.66 240.165 212.023C240.165 211.385 239.582 211.088 238.869 211.362C238.12 211.649 236.969 210.935 236.14 209.672C234.533 207.218 234.228 203.781 235.617 203.781C236.117 203.781 236.527 204.178 236.527 204.663C236.527 205.147 237.141 205.308 237.891 205.02C238.642 204.732 239.256 203.697 239.256 202.72C239.256 201.743 238.872 201.182 238.401 201.472C237.932 201.762 237.162 201.309 236.688 200.464C235.745 198.779 227.793 197.907 226.878 199.389C226.597 199.844 225.633 199.983 224.737 199.699C223.66 199.357 222.948 199.732 222.642 200.799C222.387 201.689 221.903 203.079 221.568 203.889C221.137 204.931 221.556 205.518 223.003 205.896C225.02 206.423 225.01 206.458 222.372 208.486C220.9 209.616 219.363 210.965 218.954 211.483C218.547 212 218.472 211.503 218.789 210.377C219.278 208.636 219.015 208.33 217.029 208.33C215.744 208.33 214.693 207.957 214.693 207.5C214.693 207.044 213.977 206.809 213.101 206.976C212.225 207.143 211.011 207.312 210.4 207.35C209.791 207.389 209.48 207.931 209.709 208.557C209.938 209.183 209.773 210.247 209.342 210.924C208.359 212.466 199.583 212.687 198.102 211.206C197.521 210.625 196.103 210.149 194.952 210.149C193.467 210.149 192.86 209.622 192.86 208.33C192.86 207.329 192.393 206.51 191.823 206.51C191.253 206.51 190.292 205.834 189.688 205.008C188.68 203.629 188.203 203.682 183.846 205.652C180.384 207.216 179.208 208.206 179.497 209.312C179.797 210.458 179.443 210.71 178.047 210.346C176.688 209.99 176.395 210.177 176.938 211.056C177.36 211.738 177.318 212.028 176.838 211.732C176.378 211.447 174.048 211.579 171.661 212.025C166.666 212.958 158.958 211.727 162.612 210.579C165.286 209.74 165.213 207.348 162.435 204.738C160.863 203.261 159.574 202.809 158.038 203.194C156.712 203.527 154.49 203.039 152.337 201.941C150.396 200.952 148.339 200.142 147.765 200.142C147.19 200.142 145.951 199.119 145.012 197.868C142.812 194.94 137.788 194.657 136.912 197.413C136.595 198.414 135.966 199.233 135.515 199.233C135.064 199.233 134.931 198.618 135.219 197.868C135.507 197.117 135.29 196.503 134.736 196.503C134.182 196.503 133.728 195.685 133.728 194.684C133.728 192.015 132.329 192.465 130.798 195.628C129.342 198.634 128.217 198.113 126.896 193.817C126.52 192.589 125.744 191.118 125.173 190.547C123.955 189.329 121.487 190.092 121.356 191.727C121.167 194.094 120.957 194.503 119.674 194.995C118.793 195.333 118.523 195.064 118.862 194.183C119.621 192.205 115.543 192.542 112.805 194.684C111.554 195.663 110.063 196.472 109.491 196.483C108.919 196.494 108.209 197.135 107.913 197.907C107.486 199.019 106.987 199.104 105.516 198.317C104.025 197.519 103.116 197.711 100.897 199.291C99.2929 200.433 98.3368 201.787 98.6179 202.519C98.8845 203.213 98.6661 203.781 98.134 203.781C96.1298 203.781 91.7887 200.543 91.3265 198.703C90.9335 197.137 90.2403 196.831 87.4975 197.011C85.115 197.167 83.2974 196.589 81.1959 195.004C78.6533 193.087 77.8045 192.898 75.0963 193.646C72.721 194.302 71.7003 194.215 70.9325 193.288C70.373 192.614 69.3278 192.289 68.61 192.564C67.8922 192.839 65.7826 192.343 63.9231 191.461C60.6809 189.922 55.4482 189.493 53.6288 190.618C53.153 190.912 52.7636 190.695 52.7636 190.135C52.7636 189.576 52.3542 189.371 51.8539 189.681C51.3536 189.99 50.9442 189.355 50.9442 188.27C50.9442 186.544 50.5384 186.345 47.6983 186.677C45.2421 186.963 44.2387 186.656 43.5727 185.411C43.0888 184.507 41.8879 183.767 40.9054 183.767C39.922 183.767 39.1179 183.358 39.1179 182.858C39.1179 181.339 37.8597 181.86 35.7756 184.239ZM181.641 213.333C181.641 214.847 180.516 215.158 179.717 213.865C179.434 213.408 179.717 212.826 180.346 212.573C180.975 212.32 181.522 212.08 181.564 212.04C181.606 212.001 181.641 212.583 181.641 213.333ZM219.242 215.661C219.242 216.132 218.833 216.517 218.332 216.517C217.832 216.517 217.422 215.879 217.422 215.099C217.422 214.319 217.832 213.934 218.332 214.243C218.833 214.552 219.242 215.19 219.242 215.661ZM238.801 229.253C239.706 230.254 240.243 231.073 239.993 231.073C239.742 231.073 238.796 230.254 237.891 229.253C236.986 228.253 236.449 227.434 236.699 227.434C236.95 227.434 237.896 228.253 238.801 229.253ZM246.417 232.665C246.353 234.041 246.204 236.103 246.085 237.248C245.966 238.393 246.293 239.188 246.813 239.015C248.102 238.586 248.759 230.163 247.502 230.163C246.969 230.163 246.482 231.288 246.417 232.665ZM264.738 252.439C263.377 254.079 264.154 256.545 266.031 256.545C267.616 256.545 269.215 253.877 268.623 252.224C268.069 250.681 266.107 250.79 264.738 252.439ZM66.3239 262.561C64.9929 264.165 64.347 263.694 65.1185 261.684C65.4333 260.864 66.0764 260.433 66.5486 260.725C67.0607 261.041 66.9698 261.783 66.3239 262.561ZM7.50517 263.163C4.96524 264.326 4.74509 267.461 7.20314 267.461C11.3478 267.461 13.2091 265.152 10.6892 263.136C9.92957 262.528 8.87247 262.537 7.50517 263.163ZM299.416 263.224C298.859 263.895 298.644 264.686 298.939 264.981C299.818 265.859 302.026 264.637 302.026 263.27C302.026 261.663 300.732 261.639 299.416 263.224ZM264.273 267.461C263.964 267.962 264.12 268.371 264.62 268.371C265.121 268.371 265.783 267.962 266.092 267.461C266.402 266.961 266.245 266.552 265.745 266.552C265.245 266.552 264.582 266.961 264.273 267.461ZM49.1329 274.057C49.1375 274.683 47.8812 276.229 46.3419 277.496C43.862 279.534 43.5755 280.26 43.832 283.847L44.1213 287.897L47.9658 283.886C50.916 280.81 51.5773 279.596 50.8114 278.673C50.0517 277.758 50.1664 277.468 51.2881 277.468C53.1111 277.468 53.1939 275.949 51.4636 274.22C49.8634 272.619 49.122 272.567 49.1329 274.057ZM265.638 279.743C265.638 280.493 265.799 281.107 265.995 281.107C266.192 281.107 266.588 280.493 266.877 279.743C267.164 278.992 267.003 278.378 266.519 278.378C266.034 278.378 265.638 278.992 265.638 279.743ZM265.554 283.147C265.508 283.276 265.281 284.712 265.049 286.338C264.67 288.997 264.855 289.295 266.897 289.295C269.429 289.295 270.432 288.265 269.717 286.401C269.295 285.304 265.768 282.544 265.554 283.147ZM10.0387 296.989C9.39829 297.76 8.31027 298.392 7.62161 298.392C6.93205 298.392 6.36802 299.006 6.36802 299.756C6.36802 300.942 4.03005 301.641 1.52469 301.206C1.11167 301.135 1.03344 301.496 1.35093 302.008C1.66751 302.521 1.49285 302.94 0.963391 302.94C0.433935 302.94 0 303.598 0 304.402C0 305.362 0.494886 305.674 1.43917 305.312C2.23063 305.008 3.07303 304.76 3.31228 304.76C3.55063 304.76 3.49332 304.35 3.18401 303.85C2.86652 303.336 3.61067 302.94 4.89337 302.94C7.79992 302.94 13.522 297.904 12.162 296.544C11.4906 295.873 10.8547 296.006 10.0387 296.989ZM313.853 317.468C313.853 317.952 313.238 318.113 312.488 317.825C311.737 317.537 311.123 317.14 311.123 316.944C311.123 316.747 311.737 316.586 312.488 316.586C313.238 316.586 313.853 316.983 313.853 317.468ZM246.569 326.231C247.158 327.781 247.934 328.419 248.82 328.079C249.737 327.726 250.172 328.142 250.172 329.373C250.172 330.513 249.243 331.543 247.671 332.145C244.759 333.26 242.297 332.139 242.707 329.883C243.033 328.09 240.759 327.948 239.052 329.656C238.368 330.34 236.513 330.851 234.93 330.793C232.46 330.702 232.232 330.505 233.324 329.409C234.024 328.707 235.871 328.169 237.428 328.213C239.587 328.274 240.498 327.768 241.268 326.079C242.604 323.146 245.426 323.227 246.569 326.231ZM318.819 329.383C318.488 329.916 318.438 330.571 318.704 330.839C319.356 331.49 321.13 330.342 321.13 329.268C321.13 328.106 319.56 328.183 318.819 329.383ZM248.065 338.59C247.774 339.315 247.559 339.1 247.515 338.04C247.476 337.081 247.691 336.544 247.993 336.846C248.295 337.148 248.327 337.934 248.065 338.59ZM263.363 338.419C264.888 340.103 264.894 340.239 263.451 340.239C262.593 340.239 262.144 339.829 262.453 339.329C262.763 338.829 262.353 338.419 261.544 338.419C260.734 338.419 260.325 338.01 260.634 337.51C261.385 336.294 261.464 336.32 263.363 338.419ZM259.534 339.626C259.756 340.213 259.739 342.043 259.495 343.691L259.051 346.69L257.796 344.27C256.106 341.014 256.129 337.409 257.835 338.064C258.546 338.337 259.311 339.04 259.534 339.626ZM245.667 341.977C245.125 342.99 244.933 345.383 245.24 347.303C245.654 349.89 245.424 351.099 244.346 351.993C243.047 353.072 242.895 352.657 242.895 348.027C242.895 344.521 243.408 342.168 244.487 340.722C246.3 338.291 247.154 339.2 245.667 341.977ZM309.759 339.329C309.45 339.829 308.504 340.21 307.658 340.175C306.404 340.122 306.457 339.967 307.939 339.329C310.374 338.283 310.406 338.283 309.759 339.329ZM264.192 351.024C264.418 351.389 263.715 351.754 262.632 351.836C261.547 351.918 260.519 352.412 260.344 352.935C260.17 353.457 259.638 353.885 259.161 353.885C258.615 353.885 258.614 353.289 259.163 352.264C260.036 350.631 263.431 349.794 264.192 351.024ZM270.186 407.438C274.111 406.899 273.663 412.106 271.332 412.106C269.419 412.106 270.323 416.121 272.321 416.502C273.631 416.751 273.875 416.428 273.431 415.027C272.803 413.049 275.021 411.601 276.86 412.787C278.158 413.626 278.243 415.962 277.009 416.869C276.509 417.236 277.02 417.543 278.146 417.551C281.155 417.571 280.765 414.457 277.464 412.106C275.963 411.037 274.735 410.624 274.735 411.189C274.735 411.753 274.263 411.923 273.688 411.566C272.946 411.108 273.07 410.604 274.111 409.844C276.175 408.334 274.271 406.616 270.686 406.755C268.069 406.857 268.041 406.896 270.186 407.438ZM281.103 415.692C281.103 416.163 281.508 416.798 282.002 417.104C282.517 417.422 282.67 417.057 282.36 416.247C281.755 414.672 281.103 414.383 281.103 415.692ZM252.725 420.452L249.845 423.023L252.51 423.009C253.976 423.001 255.753 422.63 256.459 422.182C257.182 421.726 258.373 421.711 259.189 422.151C259.984 422.579 262.577 423.18 264.953 423.487C268.096 423.892 269.573 424.586 270.377 426.035C270.985 427.13 271.404 428.308 271.308 428.652C271.212 428.996 273.786 429.219 277.028 429.148C284.407 428.985 284.68 427.625 277.971 424.452C275.249 423.164 272.768 421.701 272.459 421.202C272.151 420.702 270.981 420.294 269.86 420.294C268.738 420.294 267.332 419.805 266.736 419.209C266.14 418.613 263.391 418.07 260.628 418.002C256.307 417.898 255.201 418.241 252.725 420.452ZM279.283 419.412C279.283 419.897 279.897 420.294 280.648 420.294C281.398 420.294 282.012 420.133 282.012 419.936C282.012 419.74 281.398 419.343 280.648 419.055C279.897 418.767 279.283 418.928 279.283 419.412ZM282.922 421.15C282.922 423.347 283.428 423.568 284.149 421.688C284.431 420.953 284.27 420.11 283.792 419.814C283.313 419.519 282.922 420.12 282.922 421.15ZM285.544 421.279C285.484 421.989 285.484 422.875 285.544 423.25C285.603 423.626 285.037 423.933 284.287 423.933C283.536 423.933 282.922 424.342 282.922 424.842C282.922 425.343 283.862 425.752 285.011 425.752C286.626 425.752 287.09 425.253 287.058 423.553C287.012 421.145 285.717 419.202 285.544 421.279ZM255.229 423.848C254.947 424.301 255.538 424.459 256.539 424.197C258.664 423.641 258.932 423.023 257.049 423.023C256.327 423.023 255.509 423.394 255.229 423.848ZM265.183 429.391C264.873 429.891 265.054 430.301 265.584 430.301C266.113 430.301 266.547 429.891 266.547 429.391C266.547 428.891 266.367 428.481 266.146 428.481C265.925 428.481 265.492 428.891 265.183 429.391ZM284.257 429.439C283.964 429.913 284.392 430.301 285.207 430.301C286.534 430.301 286.545 430.447 285.31 431.682C284.551 432.441 283.539 432.953 283.062 432.819C282.585 432.685 282.052 432.984 281.876 433.485C281.7 433.985 283.298 434.52 285.424 434.674C287.55 434.828 289.29 435.34 289.29 435.811C289.29 436.283 290.133 436.669 291.163 436.669C292.193 436.669 292.814 436.309 292.542 435.87C291.93 434.878 296.956 433.797 298.832 434.516C299.79 434.884 300.207 434.464 300.207 433.127C300.207 431.997 299.625 431.21 298.789 431.21C298.009 431.21 297.62 430.806 297.926 430.311C298.245 429.796 297.88 429.643 297.07 429.953C296.293 430.252 295.658 430.114 295.658 429.649C295.658 428.527 284.943 428.33 284.257 429.439ZM260.179 430.756C260.179 431.506 260.843 432.12 261.655 432.12C262.864 432.12 262.927 431.874 261.999 430.756C261.375 430.005 260.711 429.391 260.523 429.391C260.334 429.391 260.179 430.005 260.179 430.756ZM271.096 433.061C269.922 433.845 269.986 434.129 271.551 435.085C273.835 436.481 276.554 436.711 276.554 435.508C276.554 434.644 273.89 432.195 272.915 432.163C272.665 432.155 271.846 432.559 271.096 433.061ZM303.605 432.664C303.306 432.964 303.282 433.782 303.551 434.484C304.134 436.004 307.117 436.18 308.002 434.747C309.005 433.125 305.028 431.241 303.605 432.664ZM311.123 433.03C310.402 433.476 310.114 434.143 310.483 434.512C310.851 434.881 311.631 434.706 312.215 434.122C313.59 432.747 312.823 431.98 311.123 433.03ZM319.375 438.662C319.34 440.008 319.72 441.363 320.221 441.672C321.307 442.344 321.307 440.561 320.221 438.033C319.523 436.409 319.432 436.476 319.375 438.662ZM321.13 444.856C321.13 445.357 321.564 445.766 322.094 445.766C322.623 445.766 322.804 445.357 322.495 444.856C322.186 444.356 321.753 443.947 321.531 443.947C321.31 443.947 321.13 444.356 321.13 444.856Z" fill="#2A549D"/>
</svg>
