<svg width="42" height="42" viewBox="0 0 42 42" fill="none" xmlns="http://www.w3.org/2000/svg">
<path d="M21 42C32.598 42 42 32.598 42 21C42 9.40202 32.598 0 21 0C9.40202 0 0 9.40202 0 21C0 32.598 9.40202 42 21 42Z" fill="url(#paint0_linear_5479_4022)"/>
<path fill-rule="evenodd" clip-rule="evenodd" d="M9.50725 20.7721C15.6292 18.1048 19.7114 16.3464 21.754 15.4969C27.5859 13.0712 28.7977 12.6498 29.5876 12.6359C29.7613 12.6328 30.1497 12.6759 30.4013 12.88C30.6138 13.0524 30.6722 13.2853 30.7002 13.4487C30.7282 13.6122 30.763 13.9845 30.7353 14.2755C30.4193 17.596 29.0518 25.6543 28.3561 29.3734C28.0617 30.9471 27.4821 31.4747 26.921 31.5264C25.7015 31.6386 24.7754 30.7204 23.5943 29.9462C21.746 28.7346 20.7018 27.9804 18.9078 26.7981C16.8344 25.4318 18.1785 24.6809 19.3601 23.4536C19.6693 23.1324 25.0425 18.2451 25.1465 17.8018C25.1595 17.7463 25.1716 17.5396 25.0488 17.4305C24.926 17.3213 24.7448 17.3587 24.614 17.3883C24.4286 17.4304 21.476 19.382 15.7561 23.2431C14.918 23.8186 14.1588 24.099 13.4787 24.0843C12.7289 24.0681 11.2865 23.6604 10.2143 23.3118C8.8992 22.8843 7.85396 22.6583 7.94498 21.9323C7.99239 21.5541 8.51314 21.1674 9.50725 20.7721Z" fill="white"/>
<defs>
<linearGradient id="paint0_linear_5479_4022" x1="21" y1="0" x2="21" y2="41.6885" gradientUnits="userSpaceOnUse">
<stop stop-color="#2AABEE"/>
<stop offset="1" stop-color="#229ED9"/>
</linearGradient>
</defs>
</svg>
