<svg width="220" height="256" viewBox="0 0 220 256" fill="none" xmlns="http://www.w3.org/2000/svg">
<g clip-path="url(#clip0_5258_152509)">
<path d="M36.2031 0H47.7031V11.4H58.3031V0H69.8031V34.5H58.3031V23H47.8031V34.5H36.2031M85.0031 11.5H74.8531V0H106.703V11.5H96.5031V34.5H85.0031M111.753 0H123.803L131.203 12.15L138.603 0H150.653V34.5H139.153V17.4L131.103 29.8L123.053 17.4V34.5H111.753M156.353 0H167.853V23.1H184.153V34.5H156.353" fill="white"/>
<path d="M35.7969 235.501L19.2969 50.3008H200.697L184.197 235.401L109.847 256.001" fill="#E44D26"/>
<path d="M110 240.25V65.5H184.15L170 223.5" fill="#F16529"/>
<path d="M53 88.1484H110V110.848H77.9L80 134.098H110V156.748H59.2M60.2 168.148H83L84.6 186.298L110 193.098V216.798L63.4 203.798" fill="#EBEBEB"/>
<path d="M166.798 88.1484H109.898V110.848H164.698M162.648 134.098H109.898V156.798H137.898L135.248 186.298L109.898 193.098V216.698L156.398 203.798" fill="white"/>
</g>
<defs>
<clipPath id="clip0_5258_152509">
<rect width="220" height="256" fill="white"/>
</clipPath>
</defs>
</svg>
