<svg width="98" height="98" viewBox="0 0 98 98" fill="none" xmlns="http://www.w3.org/2000/svg">
<g clip-path="url(#clip0_5258_152304)">
<path d="M80.6458 0H17.3542C7.76973 0 0 7.96895 0 17.7991V80.2009C0 90.0311 7.76973 98 17.3542 98H80.6458C90.2303 98 98 90.0311 98 80.2009V17.7991C98 7.96895 90.2303 0 80.6458 0Z" fill="#001E36"/>
<path d="M51.4633 69.2641H25.5611C25.1226 69.2641 24.9035 69.0169 24.9037 68.5224V25.706C24.8922 25.6236 24.8996 25.5395 24.9253 25.4605C24.951 25.3815 24.9942 25.3097 25.0517 25.2508C25.1091 25.192 25.1791 25.1476 25.2561 25.1213C25.3331 25.0949 25.4151 25.0874 25.4955 25.0991H33.516C33.5785 25.0901 33.6421 25.0961 33.702 25.1166C33.7618 25.1372 33.8162 25.1717 33.8609 25.2175C33.9055 25.2632 33.9391 25.319 33.9591 25.3804C33.9791 25.4418 33.985 25.5071 33.9761 25.5712V60.7683H52.844C53.2384 60.7683 53.3918 60.9706 53.3042 61.3751L52.1208 68.6573C52.1181 68.7567 52.0929 68.8541 52.0473 68.9418C52.0016 69.0295 51.9368 69.1052 51.8579 69.163C51.7359 69.228 51.6007 69.2626 51.4633 69.2641Z" fill="#31A8FF"/>
<path d="M57.9722 35.7538H65.138C65.3326 35.7556 65.5213 35.8223 65.6755 35.944C65.8297 36.0657 65.941 36.2357 65.9925 36.4281C66.1489 36.7235 66.2598 37.0419 66.3213 37.3721C66.4131 37.8059 66.4789 38.245 66.5185 38.687C66.5618 39.159 66.5837 39.6646 66.5843 40.204C67.8132 38.7364 69.2952 37.5136 70.9561 36.5967C72.8219 35.5621 74.9166 35.0395 77.0373 35.0796C77.1177 35.0678 77.1996 35.0754 77.2766 35.1018C77.3536 35.1281 77.4236 35.1725 77.481 35.2313C77.5384 35.2902 77.5816 35.362 77.6073 35.441C77.633 35.52 77.6403 35.604 77.6289 35.6865V43.8452C77.6289 44.1602 77.4097 44.3175 76.9715 44.3172C74.3233 44.1491 71.6744 44.6347 69.2469 45.7332C68.4219 46.0991 67.6739 46.6258 67.0445 47.284V68.6585C67.0445 69.0631 66.8692 69.2653 66.5185 69.2653H58.5638C58.4745 69.2785 58.3834 69.2701 58.2978 69.2408C58.2122 69.2116 58.1344 69.1623 58.0706 69.0969C58.0068 69.0314 57.9587 68.9516 57.9302 68.8638C57.9017 68.776 57.8936 68.6826 57.9064 68.591V45.396C57.9064 44.4077 57.8954 43.3626 57.8735 42.2606C57.851 41.1596 57.8181 40.0695 57.7748 38.9903C57.7458 38.064 57.658 37.1406 57.512 36.2259C57.4956 36.1606 57.496 36.0921 57.5133 36.027C57.5306 35.962 57.5641 35.9027 57.6106 35.855C57.6571 35.8073 57.7149 35.7729 57.7783 35.7551C57.8417 35.7374 57.9086 35.7369 57.9722 35.7538H57.9722Z" fill="#31A8FF"/>
</g>
<defs>
<clipPath id="clip0_5258_152304">
<rect width="98" height="98" fill="white"/>
</clipPath>
</defs>
</svg>
