<svg width="98" height="98" viewBox="0 0 98 98" fill="none" xmlns="http://www.w3.org/2000/svg">
<g clip-path="url(#clip0_5258_152772)">
<path d="M80.6458 0H17.3542C7.76973 0 0 7.96895 0 17.7991V80.2009C0 90.0311 7.76973 98 17.3542 98H80.6458C90.2303 98 98 90.0311 98 80.2009V17.7991C98 7.96895 90.2303 0 80.6458 0Z" fill="#330000"/>
<path d="M47.4893 58.8116H32.303L29.2132 68.656C29.171 68.8355 29.0692 68.9944 28.9252 69.1051C28.7812 69.2159 28.604 69.2717 28.4242 69.2629H20.7325C20.2938 69.2629 20.1404 69.0157 20.2723 68.5212L33.4205 29.683C33.5521 29.2785 33.6836 28.8177 33.8151 28.3007C33.9871 27.4011 34.0751 26.4867 34.078 25.57C34.0691 25.5059 34.0749 25.4405 34.0948 25.3791C34.1148 25.3176 34.1485 25.2618 34.1931 25.216C34.2378 25.1702 34.2922 25.1357 34.3521 25.1152C34.412 25.0947 34.4757 25.0888 34.5382 25.0979H44.991C45.2973 25.0979 45.4726 25.2103 45.517 25.4351L60.4405 68.5886C60.5719 69.0384 60.4403 69.2632 60.0459 69.2629H51.4994C51.3526 69.2796 51.205 69.2408 51.084 69.154C50.963 69.0671 50.877 68.9381 50.8421 68.7909L47.4893 58.8116ZM34.6696 50.3158H45.0568C44.7938 49.4171 44.4871 48.4057 44.1365 47.2815C43.7852 46.1584 43.4126 44.956 43.0189 43.6741C42.6244 42.3931 42.2299 41.112 41.8354 39.8308C41.441 38.5497 41.0795 37.3136 40.7508 36.1223C40.422 34.9318 40.1262 33.8418 39.8633 32.8521H39.7975C39.4274 34.6732 38.9667 36.4736 38.417 38.2463C37.8027 40.2691 37.1781 42.3369 36.5432 44.4496C35.9074 46.563 35.2829 48.5184 34.6696 50.3158H34.6696Z" fill="#FF9A00"/>
<path d="M69.3134 32.2469C68.6429 32.2746 67.9742 32.1567 67.3511 31.9011C66.728 31.6455 66.1646 31.2578 65.6976 30.7635C65.2319 30.2478 64.8702 29.6428 64.6332 28.9832C64.3963 28.3236 64.2888 27.6225 64.3169 26.9202C64.293 26.2248 64.4124 25.5321 64.6673 24.8872C64.9222 24.2424 65.3068 23.6599 65.7961 23.1779C66.2806 22.7009 66.8526 22.3272 67.4789 22.0784C68.1052 21.8295 68.7734 21.7106 69.4448 21.7283C71.0227 21.7283 72.2608 22.2115 73.1592 23.1779C73.6128 23.6802 73.9652 24.2693 74.1965 24.9114C74.4277 25.5535 74.5332 26.2362 74.5069 26.9202C74.5344 27.6253 74.4234 28.3288 74.1806 28.989C73.9378 29.6493 73.5681 30.2527 73.0935 30.7635C72.5974 31.2651 72.0054 31.6558 71.3548 31.9111C70.7043 32.1664 70.0092 32.2808 69.3134 32.2469ZM64.7771 68.5902V36.3599C64.7771 35.9554 64.9517 35.7531 65.303 35.7531H73.3893C73.7397 35.7531 73.915 35.9554 73.9153 36.3599V68.5902C73.9153 69.0401 73.74 69.2649 73.3893 69.2645H65.3688C64.9744 69.2645 64.7772 69.0398 64.7771 68.5902Z" fill="#FF9A00"/>
</g>
<defs>
<clipPath id="clip0_5258_152772">
<rect width="98" height="98" fill="white"/>
</clipPath>
</defs>
</svg>
