<svg width="98" height="98" viewBox="0 0 98 98" fill="none" xmlns="http://www.w3.org/2000/svg">
<g clip-path="url(#clip0_5258_153077)">
<path d="M17.3542 0H80.6458C90.2417 0 98 7.95726 98 17.7991V80.2009C98 90.0427 90.2417 98 80.6458 98H17.3542C7.75833 98 0 90.0427 0 80.2009V17.7991C0 7.95726 7.75833 0 17.3542 0Z" fill="#663399"/>
<g clip-path="url(#clip1_5258_153077)">
<path d="M20.5782 56.9954C20.5782 59.6973 21.1662 61.7717 21.9348 63.0266C22.9424 64.6704 24.4454 65.3668 25.9776 65.3668C27.9539 65.3668 29.7619 64.8722 33.246 60.0123C36.0372 56.1169 39.3261 50.6492 41.5391 47.2214L45.2867 41.414C47.89 37.3809 50.9033 32.8974 54.3581 29.8584C57.1786 27.378 60.2211 26 63.2831 26C68.4239 26 73.3207 29.0046 77.0684 34.6396C81.1698 40.8112 83.1607 48.5846 83.1607 56.6066C83.1607 61.3755 82.2287 64.8796 80.6427 67.6479C79.1105 70.3252 76.1241 73 71.1004 73V65.3668C75.4019 65.3668 76.4755 61.3804 76.4755 56.8182C76.4755 50.317 74.9725 43.1021 71.6616 37.9469C69.312 34.2902 66.2671 32.0559 62.9171 32.0559C59.294 32.0559 56.3783 34.8119 53.1016 39.726C51.3595 42.3368 49.5711 45.5185 47.5631 49.1087L45.3526 53.0582C40.912 60.999 39.7873 62.8076 37.567 65.7925C33.6754 71.0191 30.3523 73 25.9776 73C20.788 73 17.5064 70.7337 15.474 67.3182C13.8149 64.5351 13 60.8834 13 56.7223L20.5782 56.9954Z" fill="#0081FB"/>
<path d="M18.9766 35.1785C22.4509 29.7772 27.4648 26 33.2156 26C36.546 26 39.8569 26.9941 43.3142 29.8412C47.096 32.954 51.1266 38.0797 56.1552 46.5274L57.9582 49.5591C62.311 56.8724 64.7874 60.6348 66.2367 62.409C68.1008 64.6876 69.4061 65.3668 71.1018 65.3668C75.4033 65.3668 76.4768 61.3804 76.4768 56.8182L83.162 56.6066C83.162 61.3755 82.23 64.8796 80.6441 67.6479C79.1119 70.3252 76.1255 73 71.1018 73C67.9788 73 65.212 72.3159 62.1524 69.4049C59.8003 67.1705 57.0506 63.2014 54.9353 59.6333L48.6429 49.0325C45.4857 43.7124 42.5896 39.7457 40.9134 37.9493C39.1103 36.0176 36.7924 33.6849 33.0936 33.6849C30.0999 33.6849 27.5576 35.8036 25.43 39.0443L18.9766 35.1785Z" fill="url(#paint0_linear_5258_153077)"/>
<path d="M33.0923 33.6849C30.0986 33.6849 27.5562 35.8036 25.4287 39.0443C22.4203 43.6238 20.5782 50.4449 20.5782 56.9954C20.5782 59.6973 21.1662 61.7717 21.9348 63.0266L15.474 67.3182C13.8149 64.5351 13 60.8834 13 56.7223C13 49.1555 15.0592 41.2688 18.9752 35.1785C22.4496 29.7772 27.4635 26 33.2143 26L33.0923 33.6849Z" fill="url(#paint1_linear_5258_153077)"/>
</g>
</g>
<defs>
<linearGradient id="paint0_linear_5258_153077" x1="27.8845" y1="54.7906" x2="76.1959" y2="57.2098" gradientUnits="userSpaceOnUse">
<stop stop-color="#0064E1"/>
<stop offset="0.4" stop-color="#0064E1"/>
<stop offset="0.83" stop-color="#0073EE"/>
<stop offset="1" stop-color="#0082FB"/>
</linearGradient>
<linearGradient id="paint1_linear_5258_153077" x1="23.9794" y1="60.2042" x2="23.9794" y2="42.2408" gradientUnits="userSpaceOnUse">
<stop stop-color="#0082FB"/>
<stop offset="1" stop-color="#0064E0"/>
</linearGradient>
<clipPath id="clip0_5258_153077">
<rect width="98" height="98" fill="white"/>
</clipPath>
<clipPath id="clip1_5258_153077">
<rect width="71" height="47" fill="white" transform="translate(13 26)"/>
</clipPath>
</defs>
</svg>
