<svg width="98" height="98" viewBox="0 0 98 98" fill="none" xmlns="http://www.w3.org/2000/svg">
<g clip-path="url(#clip0_5258_152489)">
<path d="M80.6458 0H17.3542C7.76973 0 0 7.96895 0 17.7991V80.2009C0 90.0311 7.76973 98 17.3542 98H80.6458C90.2303 98 98 90.0311 98 80.2009V17.7991C98 7.96895 90.2303 0 80.6458 0Z" fill="#330000"/>
<path fill-rule="evenodd" clip-rule="evenodd" d="M76.5811 33.1205C76.6017 33.1979 76.6123 33.2776 76.6125 33.3577V45.8067C76.6125 45.9665 76.5709 46.1234 76.4918 46.2617C76.4127 46.3999 76.2991 46.5146 76.1622 46.5941L65.8482 52.6098V64.5335C65.8482 64.858 65.6779 65.1575 65.4002 65.3209L43.8704 77.8766C43.8211 77.9049 43.7674 77.9231 43.7136 77.9424C43.6934 77.9492 43.6744 77.9617 43.6531 77.9674C43.5026 78.0075 43.3444 78.0075 43.1939 77.9674C43.1693 77.9605 43.1469 77.9469 43.1234 77.9378C43.0741 77.9197 43.0226 77.9038 42.9755 77.8766L21.4502 65.3209C21.3135 65.2413 21.1999 65.1267 21.1208 64.9884C21.0418 64.8502 21.0001 64.6933 21 64.5335V27.1865C21 27.1048 21.0112 27.0254 21.0314 26.9482C21.0381 26.9221 21.0538 26.8983 21.0627 26.8722C21.0795 26.8246 21.0952 26.7758 21.1198 26.7315C21.1366 26.702 21.1613 26.6782 21.1814 26.651C21.2072 26.6147 21.2307 26.5772 21.261 26.5454C21.2867 26.5194 21.3203 26.5001 21.3494 26.4774C21.3819 26.4501 21.411 26.4206 21.448 26.3991L32.2123 20.1213C32.3486 20.0418 32.5031 20 32.6603 20C32.8176 20 32.972 20.0418 33.1083 20.1213L43.8715 26.3991H43.8738C43.9096 26.4218 43.9398 26.4501 43.9723 26.4762C44.0014 26.4989 44.0339 26.5194 44.0597 26.5443C44.091 26.5772 44.1134 26.6147 44.1403 26.651C44.1594 26.6782 44.1851 26.702 44.2008 26.7315C44.2266 26.7769 44.2411 26.8246 44.259 26.8722C44.268 26.8983 44.2837 26.9221 44.2904 26.9494C44.311 27.0267 44.3216 27.1064 44.3218 27.1865V50.5131L53.2907 45.2814V33.3565C53.2907 33.2771 53.3019 33.1966 53.3221 33.1205C53.3299 33.0933 53.3445 33.0695 53.3534 33.0434C53.3714 32.9957 53.387 32.9469 53.4117 32.9027C53.4285 32.8732 53.4531 32.8494 53.4722 32.8221C53.499 32.7858 53.5214 32.7484 53.5528 32.7166C53.5786 32.6905 53.611 32.6712 53.6402 32.6485C53.6738 32.6213 53.7029 32.5918 53.7387 32.5703L64.5042 26.2924C64.6404 26.2129 64.7949 26.171 64.9522 26.171C65.1094 26.171 65.2639 26.2129 65.4002 26.2924L76.1634 32.5703C76.2014 32.5929 76.2306 32.6213 76.2642 32.6474C76.2922 32.6701 76.3246 32.6905 76.3504 32.7155C76.3818 32.7484 76.4042 32.7858 76.431 32.8221C76.4512 32.8494 76.4758 32.8732 76.4915 32.9027C76.5173 32.9469 76.5318 32.9957 76.5498 33.0434C76.5598 33.0695 76.5744 33.0933 76.5811 33.1205ZM74.8182 45.2814V34.9291L71.0517 37.1257L65.8482 40.1608V50.5131L74.8194 45.2814H74.8182ZM64.055 64.0082V53.6491L58.9366 56.6105L44.3206 65.0611V75.5177L64.055 64.0082ZM22.7942 28.7579V64.0082L42.5264 75.5166V65.0622L32.2179 59.152L32.2146 59.1498L32.2101 59.1475C32.1754 59.1271 32.1462 59.0976 32.1138 59.0726C32.0858 59.0499 32.0533 59.0318 32.0286 59.0068L32.0264 59.0034C31.9973 58.975 31.9771 58.9398 31.9525 58.9081C31.9301 58.8774 31.9032 58.8514 31.8853 58.8196L31.8842 58.8162C31.864 58.7821 31.8517 58.7413 31.8371 58.7027C31.8226 58.6687 31.8035 58.6369 31.7946 58.6006C31.7834 58.5575 31.7811 58.511 31.7766 58.4667C31.7722 58.4327 31.7632 58.3986 31.7632 58.3646V58.3623V33.9897L26.5608 30.9534L22.7942 28.7579ZM32.6614 21.9571L23.6936 27.1865L32.6592 32.4159L41.6259 27.1854L32.6592 21.9571H32.6614ZM37.3251 54.5931L42.5275 51.5592V28.7579L38.761 30.9546L33.5574 33.9897V56.7909L37.3251 54.5931ZM64.9522 28.1282L55.9854 33.3577L64.9522 38.5871L73.9178 33.3565L64.9522 28.1282ZM64.055 40.1608L58.8515 37.1257L55.085 34.9291V45.2814L60.2874 48.3153L64.055 50.5131V40.1608ZM43.4224 63.4897L56.5746 55.8832L63.149 52.0822L54.189 46.8562L43.8726 52.8731L34.4702 58.3567L43.4224 63.4897Z" fill="#FF2D20"/>
</g>
<defs>
<clipPath id="clip0_5258_152489">
<rect width="98" height="98" fill="white"/>
</clipPath>
</defs>
</svg>
