<svg width="42" height="42" viewBox="0 0 42 42" fill="none" xmlns="http://www.w3.org/2000/svg">
<g clip-path="url(#clip0_5258_151389)">
<path d="M41.9966 20.9984C41.9966 32.5954 32.5954 41.9966 20.9983 41.9966C9.40127 41.9966 0 32.5954 0 20.9984C0 9.40127 9.40127 0 20.9983 0C32.5954 0 41.9966 9.40127 41.9966 20.9984Z" fill="white"/>
<path d="M20.9998 0C9.40193 0 0 9.40217 0 20.9998C0 29.8966 5.53506 37.5021 13.3471 40.5619C13.1633 38.9004 12.9975 36.3451 13.42 34.5311C13.8014 32.8923 15.8824 24.0928 15.8824 24.0928C15.8824 24.0928 15.2541 22.835 15.2541 20.975C15.2541 18.055 16.9466 15.875 19.0541 15.875C20.8455 15.875 21.7111 17.2202 21.7111 18.8331C21.7111 20.635 20.564 23.3287 19.9718 25.8251C19.4772 27.9154 21.0201 29.6199 23.0815 29.6199C26.8142 29.6199 29.6832 25.6844 29.6832 20.0035C29.6832 14.9755 26.0701 11.46 20.9114 11.46C14.9362 11.46 11.4288 15.9417 11.4288 20.5733C11.4288 22.3783 12.1241 24.3136 12.9917 25.3656C13.1631 25.5736 13.1884 25.7559 13.1374 25.968C12.9778 26.6314 12.6237 28.0576 12.5541 28.3495C12.4624 28.7339 12.2496 28.8155 11.8518 28.6304C9.22893 27.4094 7.5892 23.575 7.5892 20.495C7.5892 13.8706 12.4021 7.78714 21.4646 7.78714C28.7495 7.78714 34.4109 12.978 34.4109 19.9155C34.4109 27.153 29.8476 32.9775 23.5137 32.9775C21.3858 32.9775 19.3852 31.872 18.7006 30.5662C18.7006 30.5662 17.6475 34.5758 17.3922 35.5583C16.9179 37.3825 15.6382 39.6688 14.7821 41.0634C16.7472 41.6719 18.8352 41.9999 20.9998 41.9999C32.5982 41.9999 42.0001 32.5982 42.0001 20.9998C42.0001 9.40217 32.5982 0 20.9998 0Z" fill="#E71D27"/>
</g>
<defs>
<clipPath id="clip0_5258_151389">
<rect width="42" height="42" fill="white"/>
</clipPath>
</defs>
</svg>
