<svg width="42" height="42" viewBox="0 0 42 42" fill="none" xmlns="http://www.w3.org/2000/svg">
<g clip-path="url(#clip0_5258_151393)">
<path fill-rule="evenodd" clip-rule="evenodd" d="M21 42C32.598 42 42 32.598 42 21C42 9.40202 32.598 0 21 0C9.40202 0 0 9.40202 0 21C0 32.598 9.40202 42 21 42Z" fill="#0863FF"/>
<path fill-rule="evenodd" clip-rule="evenodd" d="M24.8919 15.1702H32.3067V13.0458H24.8919V15.1702ZM26.6485 19.8055C26.176 20.2862 25.878 20.9375 25.7562 21.7593H31.5231C31.4622 20.8823 31.1626 20.2196 30.6325 19.7632C30.0958 19.3101 29.4356 19.0843 28.6454 19.0843C27.7893 19.0843 27.1209 19.3247 26.6485 19.8055ZM31.6532 16.9535C32.5471 17.3465 33.283 17.9702 33.8625 18.8212C34.3909 19.5716 34.7301 20.4421 34.8848 21.4312C34.9754 22.0094 35.0116 22.8474 34.9968 23.9372H25.6739C25.7298 25.2024 26.171 26.0908 27.0139 26.5992C27.5243 26.9159 28.1383 27.0751 28.8594 27.0751C29.6184 27.0751 30.239 26.8818 30.7148 26.4969C30.9765 26.2874 31.207 25.9983 31.4046 25.628H34.8206C34.7301 26.3751 34.3152 27.1368 33.581 27.9099C32.4352 29.1361 30.83 29.75 28.7672 29.75C27.0633 29.75 25.5603 29.2335 24.2613 28.1973C22.9558 27.1628 22.3072 25.4769 22.3072 23.1447C22.3072 20.957 22.8949 19.2792 24.0687 18.1115C25.2458 16.947 26.7686 16.3607 28.6438 16.3607C29.7583 16.3607 30.7609 16.5588 31.6532 16.9535ZM10.449 21.8048V26.3572H14.6503C15.401 26.3572 15.9871 26.2565 16.4036 26.0567C17.1625 25.6832 17.5412 24.9751 17.5412 23.9259C17.5412 23.0358 17.1757 22.4268 16.4398 22.0939C16.0282 21.9087 15.4504 21.8113 14.7096 21.8048H10.449ZM10.449 15.214V18.9804H14.6569C15.4059 18.9804 16.0167 18.8391 16.4876 18.5565C16.9551 18.2739 17.1905 17.7737 17.1905 17.059C17.1905 16.2616 16.881 15.737 16.262 15.4804C15.7253 15.3034 15.0438 15.214 14.2157 15.214H10.449ZM19.846 14.069C20.3744 14.795 20.6395 15.6623 20.6395 16.6741C20.6395 17.7152 20.3744 18.5549 19.8394 19.1883C19.5398 19.5423 19.1002 19.8672 18.5191 20.1595C19.4015 20.4778 20.0666 20.9797 20.5193 21.6667C20.9671 22.3521 21.1927 23.1869 21.1927 24.1679C21.1927 25.1797 20.9358 26.0876 20.4205 26.8899C20.0946 27.421 19.6863 27.8693 19.1957 28.2331C18.6442 28.6505 17.9939 28.9347 17.2416 29.0906C16.4892 29.2449 15.6759 29.3196 14.7968 29.3196H7V12.25H15.3615C17.472 12.2809 18.9652 12.8867 19.846 14.069Z" fill="white"/>
</g>
<defs>
<clipPath id="clip0_5258_151393">
<rect width="42" height="42" fill="white"/>
</clipPath>
</defs>
</svg>
