<svg width="42" height="42" viewBox="0 0 42 42" fill="none" xmlns="http://www.w3.org/2000/svg">
<path d="M42 21C42 9.40202 32.598 0 21 0C9.40202 0 0 9.40202 0 21C0 32.598 9.40202 42 21 42C32.598 42 42 32.598 42 21Z" fill="url(#paint0_linear_5479_4025)"/>
<path fill-rule="evenodd" clip-rule="evenodd" d="M19.5742 8.33075C14.9326 9.01274 11.2196 11.7864 9.44843 15.8948C8.66474 17.7125 8.39792 19.1701 8.46389 21.2723C8.52782 23.3083 8.84841 24.6567 9.68121 26.3919C9.95269 26.9576 10.0498 27.2526 10.0156 27.4083C9.9891 27.529 9.59069 28.99 9.13021 30.6549C8.66974 32.32 8.32612 33.6822 8.36651 33.6822C8.40698 33.6822 9.9062 33.2968 11.6981 32.8258L14.9562 31.9695L15.8257 32.3535C16.9081 32.8315 17.8545 33.1283 18.8246 33.2938C22.1119 33.8546 25.364 33.1556 28.1028 31.2996C29.1975 30.5576 30.7765 28.9649 31.4973 27.8755C34.0262 24.0534 34.3312 19.3354 32.3115 15.2816C30.5776 11.8013 27.4117 9.34324 23.6132 8.52771C23.0079 8.39773 22.4022 8.34379 21.31 8.32237C20.495 8.30645 19.7139 8.31018 19.5742 8.33075ZM23.0302 10.6183C25.3988 11.0652 27.741 12.4998 29.216 14.407C30.4394 15.9887 31.0505 17.4117 31.3481 19.3717C32.2013 24.9891 28.2338 30.3366 22.5805 31.1888C20.2756 31.5363 17.7577 31.0646 15.8032 29.9191L15.3057 29.6275L13.3851 30.1332C12.3287 30.4114 11.4522 30.6267 11.4372 30.6117C11.4221 30.5966 11.6404 29.7476 11.9223 28.725L12.4347 26.8656L12.2567 26.5693C11.1017 24.6465 10.6072 22.927 10.6131 20.8535C10.6212 17.9917 11.6528 15.4974 13.6576 13.4927C16.1019 11.0484 19.6093 9.97273 23.0302 10.6183ZM16.0098 15.2134C15.6418 15.4379 15.1736 16.0353 14.9031 16.6256C14.606 17.2737 14.5391 18.2452 14.7379 19.0213C15.0612 20.2831 16.1918 21.9675 17.7911 23.5701C19.3652 25.1475 20.5778 25.9067 22.6077 26.5853C23.582 26.911 23.6644 26.9246 24.4795 26.8915C25.2112 26.8617 25.4042 26.8214 25.8394 26.6072C26.5778 26.2437 27.1049 25.7021 27.2715 25.1355C27.4547 24.5126 27.4492 23.9216 27.2586 23.761C26.9789 23.5255 24.5313 22.3989 24.2993 22.3989C24.1354 22.3989 24.0046 22.482 23.8531 22.6825C23.2956 23.42 22.7664 23.9888 22.6174 24.0108C22.377 24.0463 20.9358 23.3193 20.274 22.8287C19.5875 22.3198 18.8494 21.5306 18.3154 20.7347C17.9011 20.1172 17.8314 19.8062 18.0647 19.6149C18.338 19.3907 18.9391 18.5044 18.9394 18.3251C18.9398 18.0722 17.8397 15.4253 17.6491 15.2207C17.4299 14.9854 16.3914 14.9808 16.0098 15.2134Z" fill="white"/>
<defs>
<linearGradient id="paint0_linear_5479_4025" x1="-4.50611e-05" y1="-4.31474e-06" x2="-4.50611e-05" y2="42" gradientUnits="userSpaceOnUse">
<stop stop-color="#61FD7D"/>
<stop offset="1" stop-color="#25CF43"/>
</linearGradient>
</defs>
</svg>
