<svg width="177" height="245" viewBox="0 0 177 245" fill="none" xmlns="http://www.w3.org/2000/svg">
<g clip-path="url(#clip0_5258_152809)">
<path d="M8.69297 82.6766C5.71991 81.3144 3.14424 80.263 1.03955 79.4709C0.598007 76.1466 0.274209 72.815 0.0755142 69.4686C-0.0863851 66.7145 0.0166417 63.9973 0.34044 61.332C2.12869 61.6282 4.66021 62.0724 7.80988 62.6869C7.5008 66.4701 7.47136 70.4533 7.80988 74.6585C8.02329 77.346 8.31766 80.0187 8.69297 82.6766ZM38.0998 100.142C30.5788 94.589 23.5141 90.2875 17.3767 86.9855C16.133 79.2932 15.6031 71.6675 16.0667 64.4119C21.7406 65.6705 28.452 67.2993 35.8332 69.3649C35.3475 79.0711 36.2526 89.5101 38.0998 100.142ZM115.34 104.191C115.267 105.028 115.171 105.88 115.083 106.731C104.81 112.128 94.5805 119.406 85.389 129.216C82.416 132.384 79.7079 135.568 77.2279 138.737C74.4461 135.198 71.4804 131.614 68.3307 128.016C66.9178 126.41 65.5049 124.848 64.0772 123.322C61.715 107.405 60.2137 91.7016 59.9341 76.9832C78.2213 83.5132 97.9657 92.3753 115.34 104.191Z" fill="#2AC64B"/>
<path d="M10.9408 47.2188C9.40275 51.9126 8.28417 57.0655 7.81319 62.6849C4.66352 62.0704 2.132 61.6262 0.34375 61.33C0.542444 59.6494 0.844166 57.991 1.21948 56.3548C3.46399 53.9264 6.70933 50.7207 10.9408 47.2188Z" fill="#008A5A"/>
<path d="M46.7286 26.9336C41.3197 36.9136 36.9852 50.366 35.8887 68.3123C35.874 68.6603 35.8519 69.0157 35.8372 69.3636C28.4561 67.298 21.752 65.6766 16.0781 64.4106C16.0855 64.1663 16.1076 63.9368 16.1223 63.6925C16.8287 54.2825 19.5884 45.6499 23.761 37.9872C30.2149 33.9818 37.8609 30.0875 46.7286 26.9336Z" fill="#009550"/>
<path d="M115.343 104.193C97.9686 92.3765 78.2243 83.5144 59.937 76.9844C59.5838 59.4527 60.9379 43.3351 64.5438 29.979C64.6395 29.6088 64.7425 29.246 64.8455 28.8906C79.3502 37.5158 98.2483 47.1331 116.19 51.3532C117.757 67.2709 117.286 85.3579 115.343 104.193Z" fill="#00983E"/>
<path d="M176.931 69.468C176.489 76.8716 175.437 84.2012 173.803 91.5307C171.736 91.6122 169.351 91.7454 166.709 91.975C167.872 86.326 168.726 80.5438 169.197 74.6579C170.771 54.8459 164.406 39.7573 157.047 29.222C159.203 29.8365 161.249 30.4436 163.155 31.0359C171.419 41.5786 177.799 55.1272 176.931 69.468ZM158.541 92.93C152.779 93.7592 146.273 95.0548 139.407 97.0316C140.982 87.0886 141.666 77.375 141.114 68.313C139.863 47.6496 134.3 32.9534 127.758 22.6328C133.91 23.6545 139.746 24.8613 145.133 26.1273C153.721 36.3295 159.799 49.0637 160.888 63.7006C161.58 73.0291 160.587 82.9796 158.541 92.93Z" fill="#009A37"/>
<path d="M116.188 51.3517C98.2465 47.1243 79.3484 37.507 64.8438 28.8892C65.6091 26.2165 66.4627 23.7881 67.4047 21.5818C70.0613 21.1228 72.7989 20.7526 75.6174 20.4639C86.9504 19.3015 98.2686 19.4126 109.042 20.301C110.315 23.1292 111.478 26.335 112.464 29.9775C114.216 36.4927 115.445 43.6668 116.188 51.3517Z" fill="#00863F"/>
<path d="M38.7357 10.6758C38.1396 11.046 18.8662 22.9806 10.9405 47.2126C6.70906 50.7145 3.46372 53.9276 1.22656 56.3486C6.46621 33.4863 27.3806 14.8144 38.7357 10.6758ZM50.9296 20.108C49.4799 22.181 48.067 24.4539 46.7276 26.9341C37.8673 30.088 30.2139 33.9823 23.76 37.9951C28.6979 28.8812 35.6375 21.1149 43.4602 14.9551C45.3147 16.2877 47.8535 18.0572 50.9296 20.108Z" fill="#06CBF6"/>
<path d="M163.156 31.0359C161.25 30.4436 159.204 29.8365 157.048 29.222C148.35 16.7692 138.26 10.6686 138.26 10.6686C144.95 13.1044 154.98 20.6042 163.156 31.0359ZM145.134 26.1273C139.754 24.8613 133.918 23.6545 127.766 22.6328C116.728 5.18993 102.863 0.236915 102.186 0.0074036C117.044 3.00586 133.425 12.2233 145.134 26.1273ZM109.045 20.3007C98.2712 19.4048 86.953 19.3012 75.62 20.4636C72.8015 20.7523 70.0713 21.1225 67.4073 21.5815C75.3698 2.70231 88.3217 0 88.3217 0H88.6897C88.6897 0 101.053 2.57645 109.045 20.3007ZM74.8326 0.0074036C74.1924 0.229512 61.6525 4.70869 50.9304 20.1082C47.8617 18.0648 45.3154 16.2953 43.4609 14.9627C53.2338 7.27774 64.4048 2.11003 74.8326 0.0074036Z" fill="url(#paint0_linear_5258_152809)"/>
<path d="M88.5014 245.001H101.814L106.737 223.383H70.2656L75.1888 245.001H88.5014Z" fill="#666565"/>
<path d="M38.231 148.235C40.792 153.558 43.2352 158.311 45.3399 162.279C48.9458 169.069 52.3751 174.843 55.9148 180.1C56.9377 176.502 58.2108 172.704 59.8004 168.765C57.0555 162.435 54.3032 155.631 51.6834 148.546C45.9875 133.154 40.9318 116.407 38.1059 100.141C30.585 94.5957 23.5203 90.2868 17.3828 86.9922C20.8931 108.885 30.1434 131.429 38.231 148.235Z" fill="url(#paint1_linear_5258_152809)"/>
<path d="M26.207 147.96C27.6568 150.507 29.1654 153.068 30.7255 155.652C38.033 167.705 46.4739 178.84 53.9875 187.888C54.2082 186.792 54.4658 185.659 54.7528 184.511C51.7135 180.306 48.7478 176.042 46.1942 172.081C42.5368 166.417 37.2456 158.206 31.7263 148.101C22.2773 130.769 12.188 107.855 8.68512 82.6823C5.71206 81.3201 3.13639 80.2687 1.03906 79.4766C4.06363 102.035 12.6443 124.187 26.207 147.96Z" fill="url(#paint2_linear_5258_152809)"/>
<path d="M65.3949 131.724C66.3443 137.425 67.4555 143.214 68.655 148.937C68.7728 149.485 68.8831 150.026 69.0009 150.573C71.3999 146.672 74.1301 142.711 77.2209 138.742C74.3509 135.092 71.3852 131.517 68.3238 128.015C66.9109 126.408 65.498 124.846 64.0703 123.328C64.4898 126.119 64.924 128.918 65.3949 131.724Z" fill="url(#paint3_linear_5258_152809)"/>
<path d="M166.694 91.9755C163.309 108.515 157.348 123.833 151.004 136.938C152.285 138.233 153.536 139.529 154.75 140.802C163.787 123.9 170.211 107.73 173.795 91.5312C171.72 91.6127 169.343 91.7386 166.694 91.9755ZM139.406 97.0321C138.163 104.932 136.374 112.972 134.211 120.946C137.949 124.337 142.034 128.135 146.052 132.029C151.078 119.961 155.773 106.435 158.54 92.9305C152.77 93.7671 146.272 95.0628 139.406 97.0321Z" fill="#97CC1A"/>
<path d="M85.3878 129.208C82.4147 132.377 79.7066 135.56 77.2266 138.736C88.037 152.477 96.0731 165.545 101.894 176.472C104.006 168.254 106.199 159.155 108.164 149.834C109.437 143.823 110.607 137.729 111.608 131.725C113.014 123.344 114.184 114.971 115.082 106.73C104.801 112.128 94.5792 119.398 85.3878 129.208ZM151.008 136.937C150.766 137.441 150.523 137.937 150.28 138.433C143.105 152.996 135.562 164.693 130.8 172.075C125.303 180.596 117.893 190.576 112.02 198.209C112.234 198.772 112.44 199.298 112.631 199.801C121.727 189.836 135.282 173.777 146.269 155.653C149.029 151.1 151.605 146.621 154.011 142.186C154.261 141.727 154.511 141.268 154.754 140.802C153.54 139.521 152.289 138.233 151.008 136.937ZM134.215 120.945L133.928 121.982C126.959 147.295 116.347 171.816 107.951 188.711C108.863 190.717 109.695 192.59 110.423 194.308C118.18 185.024 124.567 175.621 131.661 162.28C135.554 154.935 140.603 144.926 145.423 133.539L146.056 132.029C142.038 128.134 137.953 124.336 134.215 120.945Z" fill="url(#paint4_linear_5258_152809)"/>
<path d="M95.5 210.744C101.166 204.836 106.016 199.594 110.424 194.308C109.696 192.59 108.871 190.725 107.952 188.711C102.005 200.69 97.1558 208.834 95.5 210.744Z" fill="url(#paint5_linear_5258_152809)"/>
<path d="M102.461 210.39C102.763 210.094 106.781 206.207 112.639 199.803C112.44 199.299 112.241 198.774 112.028 198.211C106.773 205.052 102.77 210.02 102.461 210.39Z" fill="url(#paint6_linear_5258_152809)"/>
<path d="M69 150.569C75.6967 182.086 84.8808 210.99 84.8808 210.99H92.1222C92.1222 210.99 96.7804 196.308 101.895 176.467C96.074 165.539 88.0379 152.479 77.2274 138.73C74.1293 142.706 71.3991 146.667 69 150.569Z" fill="url(#paint7_linear_5258_152809)"/>
<path d="M55.9062 180.101C63.2285 191.036 70.9408 199.735 81.4937 210.744C79.0358 207.916 69.5131 191.266 59.7918 168.773C58.2023 172.705 56.9292 176.503 55.9062 180.101Z" fill="url(#paint8_linear_5258_152809)"/>
<path d="M53.9844 187.88C65.0303 201.184 74.082 209.943 74.5456 210.387C74.0599 209.78 64.0884 197.445 54.7497 184.504C54.4701 185.651 54.2125 186.784 53.9844 187.88Z" fill="url(#paint9_linear_5258_152809)"/>
</g>
<defs>
<linearGradient id="paint0_linear_5258_152809" x1="48.8133" y1="12.965" x2="156.109" y2="16.1972" gradientUnits="userSpaceOnUse">
<stop stop-color="#0288F7"/>
<stop offset="1" stop-color="#2EE2BD"/>
</linearGradient>
<linearGradient id="paint1_linear_5258_152809" x1="57.0193" y1="172.075" x2="30.352" y2="106.526" gradientUnits="userSpaceOnUse">
<stop stop-color="#CB1918"/>
<stop offset="0.388" stop-color="#A2183D"/>
<stop offset="0.749" stop-color="#902869"/>
<stop offset="1" stop-color="#73358A"/>
</linearGradient>
<linearGradient id="paint2_linear_5258_152809" x1="43.6831" y1="177.498" x2="17.0151" y2="111.948" gradientUnits="userSpaceOnUse">
<stop stop-color="#CB1918"/>
<stop offset="0.388" stop-color="#A2183D"/>
<stop offset="0.749" stop-color="#902869"/>
<stop offset="1" stop-color="#73358A"/>
</linearGradient>
<linearGradient id="paint3_linear_5258_152809" x1="80.326" y1="162.591" x2="53.6579" y2="97.0402" gradientUnits="userSpaceOnUse">
<stop stop-color="#CB1918"/>
<stop offset="0.388" stop-color="#A2183D"/>
<stop offset="0.749" stop-color="#902869"/>
<stop offset="1" stop-color="#73358A"/>
</linearGradient>
<linearGradient id="paint4_linear_5258_152809" x1="134.566" y1="125.427" x2="96.0139" y2="167.284" gradientUnits="userSpaceOnUse">
<stop stop-color="#ADD816"/>
<stop offset="1" stop-color="#DBD704"/>
</linearGradient>
<linearGradient id="paint5_linear_5258_152809" x1="105.603" y1="206.296" x2="72.708" y2="151.155" gradientUnits="userSpaceOnUse">
<stop stop-color="#E1282B"/>
<stop offset="0.388" stop-color="#E3402A"/>
<stop offset="0.702" stop-color="#E76226"/>
<stop offset="1" stop-color="#F19A0A"/>
</linearGradient>
<linearGradient id="paint6_linear_5258_152809" x1="107.685" y1="205.054" x2="74.7901" y2="149.914" gradientUnits="userSpaceOnUse">
<stop stop-color="#E1282B"/>
<stop offset="0.388" stop-color="#E3402A"/>
<stop offset="0.702" stop-color="#E76226"/>
<stop offset="1" stop-color="#F19A0A"/>
</linearGradient>
<linearGradient id="paint7_linear_5258_152809" x1="102.142" y1="208.359" x2="69.2475" y2="153.22" gradientUnits="userSpaceOnUse">
<stop stop-color="#E1282B"/>
<stop offset="0.388" stop-color="#E3402A"/>
<stop offset="0.702" stop-color="#E76226"/>
<stop offset="1" stop-color="#F19A0A"/>
</linearGradient>
<linearGradient id="paint8_linear_5258_152809" x1="84.1689" y1="219.08" x2="51.2737" y2="163.94" gradientUnits="userSpaceOnUse">
<stop stop-color="#E1282B"/>
<stop offset="0.388" stop-color="#E3402A"/>
<stop offset="0.702" stop-color="#E76226"/>
<stop offset="1" stop-color="#F19A0A"/>
</linearGradient>
<linearGradient id="paint9_linear_5258_152809" x1="78.1408" y1="222.673" x2="45.2462" y2="167.534" gradientUnits="userSpaceOnUse">
<stop stop-color="#E1282B"/>
<stop offset="0.388" stop-color="#E3402A"/>
<stop offset="0.702" stop-color="#E76226"/>
<stop offset="1" stop-color="#F19A0A"/>
</linearGradient>
<clipPath id="clip0_5258_152809">
<rect width="177" height="245" fill="white"/>
</clipPath>
</defs>
</svg>
