<svg width="98" height="98" viewBox="0 0 98 98" fill="none" xmlns="http://www.w3.org/2000/svg">
<g clip-path="url(#clip0_5258_152472)">
<path d="M80.6458 0H17.3542C7.76973 0 0 7.96895 0 17.7991V80.2009C0 90.0311 7.76973 98 17.3542 98H80.6458C90.2303 98 98 90.0311 98 80.2009V17.7991C98 7.96895 90.2303 0 80.6458 0Z" fill="#001E36"/>
<path d="M22.0703 68.7252V25.6392C22.0703 25.3252 22.2019 25.1672 22.4649 25.1672C23.1653 25.1672 23.8049 25.1567 24.7695 25.1334C25.7331 25.1114 26.774 25.0889 27.8922 25.0661C29.0099 25.0439 30.1933 25.0214 31.4424 24.9986C32.6913 24.9765 33.9294 24.9653 35.1567 24.9648C38.4869 24.9648 41.2919 25.3919 43.5715 26.246C45.6279 26.9594 47.5033 28.1342 49.0611 29.6848C50.3816 31.0288 51.4022 32.6506 52.0522 34.4384C52.6673 36.1783 52.9789 38.0156 52.9728 39.8663C52.9728 43.4632 52.162 46.43 50.5403 48.7667C48.908 51.1131 46.6135 52.8899 43.9661 53.8575C41.2049 54.9142 38.1366 55.2726 34.7623 55.2726C33.7977 55.2726 33.1183 55.2613 32.7242 55.2388C32.3298 55.2167 31.7382 55.2054 30.9493 55.2051V68.6578C30.9608 68.7403 30.9534 68.8243 30.9277 68.9033C30.902 68.9823 30.8588 69.0541 30.8013 69.113C30.7439 69.1719 30.6739 69.2162 30.5969 69.2425C30.5199 69.2689 30.4379 69.2765 30.3576 69.2647H22.5305C22.2234 69.2647 22.0703 69.0855 22.0703 68.7252ZM30.9493 33.2584V47.3114C31.5183 47.3567 32.0442 47.3791 32.527 47.3787H34.6965C36.2928 47.3733 37.8785 47.1137 39.3971 46.6091C40.6995 46.2123 41.8633 45.44 42.7499 44.384C43.6044 43.3505 44.0318 41.9121 44.0319 40.0687C44.0666 38.7644 43.7357 37.4773 43.0785 36.3601C42.3876 35.2798 41.3891 34.4441 40.2187 33.9665C38.6906 33.3572 37.0583 33.0706 35.4196 33.1237C34.3677 33.1237 33.4364 33.1349 32.6257 33.1573C31.8142 33.1805 31.2554 33.2142 30.9493 33.2584V33.2584Z" fill="#001E36"/>
<path d="M78.3902 44.7573C77.1546 44.1062 75.8388 43.6299 74.4785 43.3413C72.9796 42.9886 71.4472 42.8077 69.9095 42.8019C69.0776 42.7787 68.247 42.881 67.4441 43.1053C66.9331 43.2221 66.4789 43.5207 66.1621 43.9482C65.9478 44.2901 65.8338 44.688 65.8335 45.0944C65.8455 45.4888 65.9841 45.868 66.2279 46.1733C66.6119 46.634 67.0811 47.0121 67.6084 47.2858C68.5458 47.8035 69.5116 48.2651 70.501 48.6681C72.7074 49.4256 74.8157 50.4558 76.7794 51.736C78.117 52.6019 79.224 53.7952 80.0008 55.2085C80.6539 56.5468 80.981 58.0276 80.954 59.5239C80.9934 61.4998 80.4429 63.4408 79.3763 65.0867C78.2344 66.7574 76.6484 68.0564 74.8071 68.8288C72.8123 69.7276 70.347 70.1771 67.4112 70.1775C65.5462 70.1968 63.6844 70.016 61.8561 69.638C60.4155 69.3671 59.0133 68.9141 57.6814 68.2895C57.5377 68.2133 57.4181 68.0968 57.3366 67.9535C57.2551 67.8102 57.2151 67.646 57.2212 67.4803V60.1982C57.2133 60.1269 57.2244 60.0547 57.2534 59.9894C57.2824 59.9241 57.3281 59.868 57.3857 59.8273C57.4422 59.7946 57.507 59.7803 57.5716 59.7863C57.6362 59.7923 57.6974 59.8184 57.7472 59.861C59.3201 60.8123 61.028 61.5061 62.8093 61.9175C64.3794 62.3212 65.9899 62.5361 67.6084 62.5581C69.1421 62.5581 70.2706 62.3558 70.9941 61.9513C71.3208 61.7979 71.5972 61.5507 71.7897 61.2395C71.9822 60.9284 72.0827 60.5667 72.0789 60.1982C72.0789 59.6145 71.7502 59.0526 71.0928 58.5125C70.4355 57.9731 69.0987 57.3212 67.0825 56.557C65.0182 55.8202 63.061 54.7994 61.2643 53.5229C59.9792 52.6062 58.9211 51.3939 58.1745 49.9829C57.528 48.6542 57.2011 47.1861 57.2213 45.7013C57.2176 43.9172 57.6954 42.1669 58.6018 40.6442C59.6352 38.9674 61.1192 37.6327 62.8751 36.8009C64.8031 35.8127 67.2137 35.3182 70.1067 35.3175C71.801 35.3035 73.4937 35.4275 75.1688 35.6883C76.3818 35.8461 77.5678 36.1751 78.693 36.666C78.7822 36.6923 78.8643 36.7394 78.9328 36.8038C79.0012 36.8682 79.0541 36.9479 79.0874 37.0369C79.1318 37.2015 79.1539 37.3717 79.1532 37.5426V44.3527C79.1577 44.432 79.1419 44.5111 79.1073 44.5821C79.0727 44.6531 79.0205 44.7135 78.956 44.7573C78.8681 44.8022 78.7712 44.8255 78.6731 44.8255C78.5749 44.8255 78.4781 44.8022 78.3902 44.7573Z" fill="#001E36"/>
<g clip-path="url(#clip1_5258_152472)">
<path d="M22.4766 49.4975C22.4766 60.1936 28.6927 69.4372 37.7067 73.8176L24.8162 38.5C23.3168 41.8607 22.4766 45.5799 22.4766 49.4975Z" fill="white"/>
<path d="M67.7433 48.1346C67.7433 44.7949 66.5437 42.4821 65.5148 40.6819C64.1449 38.456 62.861 36.571 62.861 34.3451C62.861 31.861 64.745 29.5487 67.3988 29.5487C67.5186 29.5487 67.6323 29.5636 67.749 29.5703C62.9412 25.1658 56.5358 22.4766 49.5005 22.4766C40.0597 22.4766 31.7538 27.3202 26.9219 34.6567C27.5559 34.6757 28.1534 34.6891 28.6609 34.6891C31.4875 34.6891 35.8628 34.3461 35.8628 34.3461C37.3196 34.2602 37.4913 36.3998 36.0361 36.572C36.0361 36.572 34.5722 36.7443 32.9432 36.8296L42.784 66.0999L48.6978 48.3639L44.4875 36.8286C43.0323 36.7433 41.6538 36.571 41.6538 36.571C40.1975 36.4856 40.3683 34.2592 41.8245 34.3451C41.8245 34.3451 46.2872 34.688 48.9426 34.688C51.7686 34.688 56.1445 34.3451 56.1445 34.3451C57.6022 34.2592 57.7735 36.3987 56.3178 36.571C56.3178 36.571 54.8507 36.7433 53.2248 36.8286L62.9906 65.8772L65.686 56.8702C66.8543 53.1325 67.7433 50.4479 67.7433 48.1346Z" fill="white"/>
<path d="M49.9751 51.8633L41.8672 75.4229C44.288 76.1346 46.8483 76.5238 49.501 76.5238C52.6479 76.5238 55.6658 75.9798 58.4749 74.992C58.4024 74.8763 58.3366 74.7534 58.2826 74.6197L49.9751 51.8633Z" fill="white"/>
<path d="M73.2131 36.5352C73.3294 37.3959 73.3952 38.3199 73.3952 39.3138C73.3952 42.056 72.883 45.1386 71.3404 48.9929L63.0859 72.858C71.1198 68.1732 76.5236 59.4695 76.5236 49.5004C76.5241 44.8023 75.3239 40.3844 73.2131 36.5352Z" fill="white"/>
<path d="M49.501 18C32.1318 18 18 32.1304 18 49.4992C18 66.8701 32.1318 81 49.501 81C66.8697 81 81.0036 66.8701 81.0036 49.4992C81.0031 32.1304 66.8697 18 49.501 18ZM49.501 79.5562C32.9283 79.5562 19.4444 66.0726 19.4444 49.4992C19.4444 32.9269 32.9278 19.4444 49.501 19.4444C66.0732 19.4444 79.5561 32.9269 79.5561 49.4992C79.5561 66.0726 66.0732 79.5562 49.501 79.5562Z" fill="white"/>
</g>
</g>
<defs>
<clipPath id="clip0_5258_152472">
<rect width="98" height="98" fill="white"/>
</clipPath>
<clipPath id="clip1_5258_152472">
<rect width="63" height="63" fill="white" transform="translate(18 18)"/>
</clipPath>
</defs>
</svg>
