<svg width="98" height="98" viewBox="0 0 98 98" fill="none" xmlns="http://www.w3.org/2000/svg">
<g clip-path="url(#clip0_5258_153063)">
<path d="M80.6458 0H17.3542C7.76973 0 0 7.96895 0 17.7991V80.2009C0 90.0311 7.76973 98 17.3542 98H80.6458C90.2303 98 98 90.0311 98 80.2009V17.7991C98 7.96895 90.2303 0 80.6458 0Z" fill="#330000"/>
<g clip-path="url(#clip1_5258_153063)">
<path d="M74.6979 43.5572C76.0591 39.4715 75.5904 34.9959 73.4135 31.2797C70.1397 25.5797 63.5585 22.6472 57.131 24.0272C54.2716 20.8059 50.1635 18.974 45.8566 19.0003C39.2866 18.9853 33.4572 23.2153 31.436 29.4665C27.2154 30.3309 23.5722 32.9728 21.4404 36.7172C18.1422 42.4022 18.8941 49.5684 23.3004 54.4434C21.9391 58.529 22.4079 63.0047 24.5847 66.7209C27.8585 72.4209 34.4397 75.3534 40.8672 73.9734C43.7247 77.1947 47.8347 79.0265 52.1416 78.9984C58.7154 79.0153 64.5466 74.7815 66.5679 68.5247C70.7885 67.6603 74.4316 65.0184 76.5635 61.274C79.8579 55.589 79.1041 48.4284 74.6997 43.5534L74.6979 43.5572ZM52.1454 75.0778C49.5147 75.0815 46.9666 74.1609 44.9472 72.4753C45.0391 72.4265 45.1985 72.3384 45.3016 72.2747L57.2491 65.3747C57.8604 65.0278 58.2354 64.3772 58.2316 63.674V46.8309L63.281 49.7465C63.3354 49.7728 63.371 49.8253 63.3785 49.8853V63.8334C63.371 70.0359 58.3479 75.0647 52.1454 75.0778ZM27.9879 64.7597C26.6697 62.4834 26.1954 59.8153 26.6472 57.2259C26.7354 57.2784 26.891 57.374 27.0016 57.4378L38.9491 64.3378C39.5547 64.6922 40.3047 64.6922 40.9122 64.3378L55.4979 55.9153V61.7465C55.5016 61.8065 55.4735 61.8647 55.4266 61.9022L43.3497 68.8753C37.9703 71.9728 31.1004 70.1315 27.9897 64.7597H27.9879ZM24.8435 38.6803C26.156 36.4003 28.2278 34.6565 30.6954 33.7509C30.6954 33.854 30.6897 34.0359 30.6897 34.1634V47.9653C30.686 48.6665 31.061 49.3172 31.6704 49.664L46.256 58.0847L41.2066 61.0003C41.156 61.034 41.0922 61.0397 41.036 61.0153L28.9572 54.0365C23.5891 50.9278 21.7479 44.0597 24.8416 38.6822L24.8435 38.6803ZM66.3297 48.3347L51.7441 39.9122L56.7935 36.9984C56.8441 36.9647 56.9079 36.959 56.9641 36.9834L69.0429 43.9565C74.4203 47.0634 76.2635 53.9428 73.1566 59.3203C71.8422 61.5965 69.7722 63.3403 67.3066 64.2478V50.0334C67.3122 49.3322 66.9391 48.6834 66.3316 48.3347H66.3297ZM71.3547 40.7709C71.2666 40.7165 71.111 40.6228 71.0004 40.559L59.0528 33.659C58.4472 33.3047 57.6972 33.3047 57.0897 33.659L42.5041 42.0815V36.2503C42.5004 36.1903 42.5285 36.1322 42.5753 36.0947L54.6522 29.1272C60.0316 26.024 66.9091 27.8709 70.0104 33.2522C71.321 35.5247 71.7953 38.1853 71.351 40.7709H71.3547ZM39.7591 51.164L34.7078 48.2484C34.6535 48.2222 34.6179 48.1697 34.6104 48.1097V34.1615C34.6141 27.9515 39.6522 22.919 45.8622 22.9228C48.4891 22.9228 51.0316 23.8453 53.051 25.5253C52.9591 25.574 52.8016 25.6622 52.6966 25.7259L40.7491 32.6259C40.1378 32.9728 39.7628 33.6215 39.7666 34.3247L39.7591 51.1603V51.164ZM42.5022 45.2503L48.9991 41.4984L55.496 45.2484V52.7503L48.9991 56.5003L42.5022 52.7503V45.2503Z" fill="white"/>
</g>
</g>
<defs>
<clipPath id="clip0_5258_153063">
<rect width="98" height="98" fill="white"/>
</clipPath>
<clipPath id="clip1_5258_153063">
<rect width="60" height="60" fill="white" transform="translate(19 19)"/>
</clipPath>
</defs>
</svg>
