<svg width="98" height="98" viewBox="0 0 98 98" fill="none" xmlns="http://www.w3.org/2000/svg">
<g clip-path="url(#clip0_5258_152294)">
<path d="M17.3542 0H80.6458C90.2417 0 98 7.95726 98 17.7991V80.2009C98 90.0427 90.2417 98 80.6458 98H17.3542C7.75833 98 0 90.0427 0 80.2009V17.7991C0 7.95726 7.75833 0 17.3542 0Z" fill="#00005B"/>
<path d="M23.2734 68.7248V25.6299C23.2734 25.3368 23.3959 25.1693 23.6818 25.1693C24.3759 25.1693 25.0293 25.1693 25.9684 25.1274C26.9484 25.0855 27.9693 25.0855 29.0718 25.0436C30.1743 25.0017 31.3584 25.0017 32.6243 24.9598C33.8901 24.918 35.1151 24.918 36.3401 24.918C39.6884 24.918 42.4651 25.3368 44.7518 26.2163C46.7934 26.9282 48.6718 28.1009 50.2234 29.6504C51.5301 30.9906 52.5509 32.624 53.2043 34.4248C53.8168 36.1838 54.1434 37.9846 54.1434 39.8692C54.1434 43.471 53.3268 46.4445 51.6934 48.7898C50.0601 51.1351 47.7734 52.894 45.1193 53.8992C42.3426 54.9462 39.2801 55.3231 35.9318 55.3231C34.9518 55.3231 34.2984 55.3231 33.8901 55.2812C33.4818 55.2393 32.9101 55.2393 32.1343 55.2393V68.6829C32.1751 68.9761 31.9709 69.2274 31.6851 69.2692C31.6443 69.2692 31.6034 69.2692 31.5218 69.2692H23.7634C23.4368 69.2692 23.2734 69.1017 23.2734 68.7248ZM32.1751 33.2522V47.3239C32.7468 47.3658 33.2776 47.4077 33.7676 47.4077H35.9318C37.5243 47.4077 39.1168 47.1564 40.6276 46.6539C41.9343 46.2769 43.0776 45.4812 43.9759 44.4342C44.8334 43.3872 45.2418 41.9633 45.2418 40.1205C45.2826 38.8222 44.9559 37.524 44.3026 36.3932C43.6084 35.3043 42.6284 34.4667 41.4443 34.006C39.9334 33.3778 38.3001 33.1265 36.6259 33.1684C35.5643 33.1684 34.6251 33.1684 33.8493 33.2103C33.0326 33.1684 32.4609 33.2103 32.1751 33.2522Z" fill="#9999FF"/>
<path d="M59.8615 35.6821H67.0073C67.4156 35.6821 67.7423 35.9753 67.8648 36.3522C67.9873 36.6873 68.069 37.0223 68.1098 37.3992C68.1915 37.818 68.2731 38.2787 68.314 38.6975C68.3548 39.1582 68.3956 39.6608 68.3956 40.2052C69.6206 38.7394 71.0906 37.5249 72.7648 36.6035C74.6431 35.5146 76.8073 34.9702 78.9715 34.9702C79.2573 34.9283 79.5023 35.1377 79.5431 35.4309C79.5431 35.4727 79.5431 35.5146 79.5431 35.5984V43.7651C79.5431 44.1001 79.339 44.2257 78.8898 44.2257C77.4198 44.1839 75.909 44.3095 74.4798 44.6445C73.2956 44.8958 72.1523 45.2727 71.0498 45.7753C70.274 46.1522 69.539 46.6548 68.9673 47.3249V68.6839C68.9673 69.1027 68.804 69.2702 68.4365 69.2702H60.3923C60.0656 69.3121 59.7798 69.1027 59.739 68.7676C59.739 68.7257 59.739 68.642 59.739 68.6001V45.3984C59.739 44.3933 59.739 43.3462 59.6981 42.2574C59.6573 41.1685 59.6573 40.0796 59.6165 38.9907C59.6165 38.0274 59.5348 37.1061 59.4531 36.1428C59.4123 35.9334 59.5348 35.724 59.739 35.6821C59.739 35.6403 59.8206 35.6403 59.8615 35.6821Z" fill="#9999FF"/>
</g>
<defs>
<clipPath id="clip0_5258_152294">
<rect width="98" height="98" fill="white"/>
</clipPath>
</defs>
</svg>
