<svg width="98" height="98" viewBox="0 0 98 98" fill="none" xmlns="http://www.w3.org/2000/svg">
<g clip-path="url(#clip0_5258_153083)">
<path d="M80.6458 0H17.3542C7.76973 0 0 7.96895 0 17.7991V80.2009C0 90.0311 7.76973 98 17.3542 98H80.6458C90.2303 98 98 90.0311 98 80.2009V17.7991C98 7.96895 90.2303 0 80.6458 0Z" fill="#003D2A"/>
<path d="M48.9824 19.0025H49.2167C54.8664 19.0025 60.1531 20.5343 64.6814 23.2006L64.5428 23.1231C69.2576 25.8569 73.0753 29.6426 75.7539 34.173L75.8321 34.318C78.4528 38.7385 80 44.0535 80 49.7259C80 63.2347 71.2231 74.7145 59.0167 78.8576L58.7974 78.9225C58.6387 78.9725 58.4572 79 58.2708 79C57.8625 79 57.4846 78.8651 57.1796 78.6402L57.1847 78.6427C56.8621 78.3553 56.6605 77.9405 56.6605 77.4782C56.6605 77.4657 56.6605 77.4532 56.6605 77.4432V77.4457C56.6605 77.3657 56.6673 76.3446 56.6807 74.3821C56.6941 72.4197 56.7009 70.6255 56.7009 68.9996C56.7185 68.8122 56.7286 68.5973 56.7286 68.3774C56.7286 66.3983 55.9146 64.6091 54.6018 63.3172C56.1591 63.1648 57.5652 62.9099 58.931 62.555L58.7395 62.5975C60.1834 62.1977 61.4433 61.6654 62.6126 60.9933L62.5345 61.0357C63.8146 60.336 64.8981 59.4465 65.7902 58.3919L65.8053 58.3745C66.7427 57.185 67.476 55.7856 67.922 54.2638L67.9447 54.1764C68.4714 52.4697 68.7738 50.5081 68.7738 48.4765C68.7738 48.364 68.7738 48.2491 68.7713 48.1366V48.1541C68.7713 48.0992 68.7738 48.0367 68.7738 47.9742C68.7738 44.8556 67.5592 42.0195 65.576 39.9029L65.5836 39.9104C66.0069 38.8109 66.2513 37.5415 66.2513 36.2146C66.2513 34.5929 65.8859 33.0586 65.2333 31.6817L65.261 31.7467C64.9712 31.6917 64.6411 31.6592 64.3009 31.6592C63.4593 31.6592 62.6655 31.8541 61.9599 32.199L61.9902 32.1865C60.5588 32.7112 59.3342 33.3059 58.18 34.0006L58.2758 33.9456L56.7412 34.9052C54.4178 34.2455 51.7492 33.8657 48.9924 33.8657C46.2357 33.8657 43.5671 34.2455 41.0371 34.9552L41.2412 34.9052C40.8111 34.612 40.2391 34.2513 39.5251 33.8232C38.5852 33.2885 37.4739 32.7712 36.3198 32.3364L36.1535 32.2814C35.4151 31.8966 34.5407 31.6717 33.6109 31.6717C33.2984 31.6717 32.991 31.6967 32.6936 31.7467L32.7264 31.7417C32.1014 33.0511 31.7361 34.5879 31.7361 36.2096C31.7361 37.5365 31.9805 38.8084 32.429 39.9804L32.4038 39.9079C30.4257 42.017 29.2136 44.8532 29.2136 47.9717C29.2136 48.0342 29.2136 48.0992 29.2161 48.1616V48.1516C29.2136 48.2491 29.2136 48.3615 29.2136 48.4765C29.2136 50.4981 29.516 52.4522 30.0805 54.2913L30.0427 54.1489C30.5189 55.7557 31.2422 57.1525 32.1846 58.3795L32.1619 58.347C33.054 59.434 34.1325 60.3286 35.3547 61.0007L35.4101 61.0282C36.4987 61.6579 37.7612 62.1902 39.0892 62.5625L39.2051 62.59C40.3794 62.9024 41.7855 63.1573 43.2244 63.2997L43.3403 63.3097C42.2542 64.3792 41.531 65.8085 41.3647 67.4028L41.3621 67.4328C40.8405 67.6852 40.2332 67.8901 39.6007 68.0225L39.5478 68.0325C38.9027 68.16 38.1644 68.2324 37.4059 68.2324C37.3504 68.2324 37.295 68.2324 37.2396 68.2324H37.2471C36.2543 68.2124 35.3421 67.8926 34.5886 67.3628L34.6037 67.3728C33.6688 66.7256 32.9129 65.886 32.3837 64.909L32.366 64.8715C31.8671 64.0319 31.2094 63.3372 30.4307 62.8049L30.4081 62.7899C29.8411 62.3676 29.1733 62.0378 28.4526 61.8404L28.4123 61.8304L27.6059 61.7104C27.548 61.7054 27.4799 61.7029 27.4119 61.7029C27.0591 61.7029 26.7239 61.7729 26.419 61.8953L26.4367 61.8878C26.2216 62.0078 26.1544 62.161 26.2351 62.3476C26.3334 62.5625 26.4543 62.7474 26.6005 62.9099L26.598 62.9074C26.7517 63.0873 26.9255 63.2447 27.1145 63.3822L27.1221 63.3871L27.4043 63.5871C28.1175 63.9569 28.7046 64.4717 29.1506 65.0939L29.1607 65.1089C29.642 65.7011 30.0654 66.3708 30.4055 67.088L30.4307 67.1479L30.8339 68.0675C31.1741 69.072 31.7915 69.9117 32.5979 70.5189L32.6105 70.5289C33.3664 71.1136 34.2787 71.5334 35.274 71.7233L35.3143 71.7283C36.1459 71.8883 37.1136 71.9882 38.1014 72.0082H38.119C38.2324 72.0132 38.3634 72.0132 38.497 72.0132C39.1547 72.0132 39.7998 71.9607 40.4298 71.8583L40.3617 71.8683L41.2891 71.7083C41.2891 72.7229 41.2958 73.904 41.3092 75.2517C41.3227 76.5994 41.3294 77.3266 41.3294 77.4332V77.4682C41.3294 77.9305 41.1278 78.3453 40.8052 78.6327C40.5054 78.8551 40.1274 78.99 39.7166 78.99C39.5276 78.99 39.3462 78.9625 39.1774 78.91L39.19 78.9125C26.7693 74.692 18 63.2122 18 49.7009C18 44.0335 19.5422 38.7235 22.236 34.1606L22.1553 34.3055C24.9121 29.6301 28.7298 25.8444 33.2984 23.1881L33.4446 23.1106C37.8267 20.5268 43.1084 19 48.748 19H48.995H48.9824V19.0025ZM29.7302 63.1473C29.8108 62.9607 29.7168 62.8008 29.448 62.6675C29.1792 62.5875 29.0045 62.6142 28.9238 62.7474C28.8432 62.934 28.9373 63.094 29.2061 63.2272C29.448 63.3872 29.6227 63.3605 29.7302 63.1473ZM30.9826 64.5091C31.1708 64.3759 31.1439 64.1626 30.902 63.8694C30.6332 63.6295 30.4181 63.5896 30.2569 63.7495C30.0687 63.8828 30.0956 64.096 30.3375 64.3892C30.6046 64.6507 30.8196 64.6899 30.9826 64.5066V64.5091ZM32.1922 66.3083C32.4341 66.1217 32.4341 65.8685 32.1922 65.5487C31.9771 65.2022 31.7487 65.1222 31.5067 65.3088C31.2648 65.442 31.2648 65.6819 31.5067 66.0284C31.7487 66.375 31.9771 66.4682 32.1922 66.3083ZM33.8855 67.99C34.1006 67.7768 34.0468 67.5236 33.7243 67.2304C33.4017 66.9105 33.1329 66.8706 32.9179 67.1105C32.676 67.3237 32.7297 67.5769 33.0792 67.8701C33.4017 68.19 33.6705 68.2266 33.8855 67.98V67.99ZM36.1862 68.9896C36.2669 68.6964 36.0922 68.4832 35.6621 68.3499C35.2589 68.2433 35.0035 68.3366 34.896 68.6298C34.7885 68.923 34.9632 69.1229 35.4202 69.2295C35.8234 69.3911 36.0787 69.3111 36.1862 68.9896ZM38.7288 69.1895C38.7288 68.843 38.5004 68.6964 38.0434 68.7497C37.6133 68.7497 37.3983 68.8963 37.3983 69.1895C37.3983 69.536 37.6268 69.6826 38.0837 69.6293C38.5138 69.631 38.7288 69.4827 38.7288 69.1895ZM41.0698 68.7897C41.0161 68.4965 40.7742 68.3765 40.3441 68.4298C39.914 68.5098 39.7259 68.7097 39.7796 69.0296C39.8334 69.3494 40.0753 69.456 40.5054 69.3494C40.9354 69.2428 41.1219 69.0562 41.0698 68.7897Z" fill="white"/>
</g>
<defs>
<clipPath id="clip0_5258_153083">
<rect width="98" height="98" fill="white"/>
</clipPath>
</defs>
</svg>
