<svg width="98" height="98" viewBox="0 0 98 98" fill="none" xmlns="http://www.w3.org/2000/svg">
<g clip-path="url(#clip0_5258_152515)">
<path d="M17.3542 0H80.6458C90.2417 0 98 7.95726 98 17.7991V80.2009C98 90.0427 90.2417 98 80.6458 98H17.3542C7.75833 98 0 90.0427 0 80.2009V17.7991C0 7.95726 7.75833 0 17.3542 0Z" fill="#663399"/>
<path d="M31.2081 63.9923C26.0951 63.9875 22.9404 61.0949 23.0009 55.7719V42.3053C23.0009 39.607 23.7874 37.5549 25.3604 36.1506C28.1855 33.4163 34.7402 33.25 37.5073 36.1922C39.2124 37.7029 39.8557 40.789 39.7028 43.6688H33.8343C33.8789 42.5372 33.8192 40.8234 33.1569 40.178C32.2963 39.008 30.0236 39.1456 29.4226 40.3635C29.0532 41.0241 28.8685 42.0022 28.8685 43.2962V54.9866C28.8685 57.4378 29.7163 58.6773 31.4127 58.7045C32.2056 58.7045 32.8082 58.415 33.2182 57.8368C33.7905 57.1507 33.8797 55.6312 33.8335 54.5323H39.702C40.1032 60.136 36.8108 64.0619 31.2073 63.9923H31.2081ZM49.8389 63.9923C44.1734 64.0707 41.6388 60.0209 41.7956 54.5323H47.3354C47.1817 56.9251 48.0001 59.1044 49.9615 58.9524C50.8364 58.9524 51.4525 58.6773 51.8084 58.1263C52.485 57.1195 52.6116 54.2117 51.6444 53.0864C50.9685 52.0028 48.5374 51.0463 47.2534 50.4017C45.42 49.5204 44.1002 48.4744 43.293 47.262C41.4724 44.5717 41.6412 38.6665 44.1957 36.2737C46.6778 33.3211 53.1601 33.1852 55.6445 36.2122C57.1769 37.7724 57.8464 40.8426 57.7167 43.668H52.3815C52.4269 42.5068 52.3178 40.6331 51.8689 39.9501C51.5544 39.3719 50.959 39.0824 50.0841 39.0824C48.5246 39.0824 47.7453 40.0189 47.7453 41.891C47.762 43.8792 48.5334 44.6949 50.3309 45.5258C52.6585 46.4343 55.6183 47.9858 56.6913 49.8635C59.8915 55.5848 57.696 64.3242 49.8381 63.9907L49.8389 63.9923ZM67.731 63.9923C62.0655 64.0707 59.5309 60.0209 59.6877 54.5323H65.2274C65.0738 56.9251 65.8921 59.1044 67.8536 58.9524C68.7284 58.9524 69.3446 58.6773 69.7004 58.1263C70.3771 57.1195 70.5036 54.2117 69.5364 53.0864C68.8606 52.0028 66.4294 51.0463 65.1454 50.4017C63.3121 49.5204 61.9922 48.4744 61.1851 47.262C59.3645 44.5717 59.5332 38.6665 62.0878 36.2737C64.5699 33.3211 71.0521 33.1852 73.5366 36.2122C75.069 37.7724 75.7385 40.8426 75.6087 43.668H70.2736C70.3189 42.5068 70.2099 40.6331 69.7609 39.9501C69.4465 39.3719 68.851 39.0824 67.9762 39.0824C66.4167 39.0824 65.6374 40.0189 65.6374 41.891C65.6541 43.8792 66.4255 44.6949 68.2229 45.5258C70.5506 46.4343 73.5103 47.9858 74.5834 49.8635C77.7835 55.5848 75.588 64.3242 67.7302 63.9907L67.731 63.9923Z" fill="white"/>
</g>
<defs>
<clipPath id="clip0_5258_152515">
<rect width="98" height="98" fill="white"/>
</clipPath>
</defs>
</svg>
