<svg width="98" height="98" viewBox="0 0 98 98" fill="none" xmlns="http://www.w3.org/2000/svg">
<g clip-path="url(#clip0_5258_152830)">
<path d="M17.3542 0H80.6458C90.2417 0 98 7.95726 98 17.7991V80.2009C98 90.0427 90.2417 98 80.6458 98H17.3542C7.75833 98 0 90.0427 0 80.2009V17.7991C0 7.95726 7.75833 0 17.3542 0Z" fill="#134881"/>
<path fill-rule="evenodd" clip-rule="evenodd" d="M75.0118 73.0539C75.0015 74.3819 73.9201 75.4569 72.5899 75.4569H48.1477L37.7003 57.361H75.0118V73.0539ZM22.0938 73.0351V62.4099L45.1131 22.5391H54.1091L34.6621 56.223L45.7664 75.4569H24.5156C23.1788 75.4569 22.0938 74.3718 22.0938 73.0351ZM51.5904 55.2975H42.495C41.4797 55.2975 40.5412 54.7647 40.0338 53.8852C39.5258 53.0061 39.5258 51.9224 40.0338 51.0434C42.0543 47.5438 44.5839 43.162 44.5839 43.162L51.5904 55.2975ZM72.5899 22.5391C73.9201 22.5391 75.0015 23.6141 75.0118 24.9421V55.2975H53.9729L45.7743 41.0996L56.4905 22.5391H72.5899Z" fill="url(#paint0_radial_5258_152830)"/>
</g>
<defs>
<radialGradient id="paint0_radial_5258_152830" cx="0" cy="0" r="1" gradientUnits="userSpaceOnUse" gradientTransform="translate(62.5409 12.5937) scale(62.8634 62.8633)">
<stop stop-color="#6BE1FB"/>
<stop offset="1" stop-color="#38BDFA"/>
</radialGradient>
<clipPath id="clip0_5258_152830">
<rect width="98" height="98" fill="white"/>
</clipPath>
</defs>
</svg>
