<svg width="98" height="98" viewBox="0 0 98 98" fill="none" xmlns="http://www.w3.org/2000/svg">
<g clip-path="url(#clip0_5258_152834)">
<path d="M80.6458 0H17.3542C7.76973 0 0 7.96895 0 17.7991V80.2009C0 90.0311 7.76973 98 17.3542 98H80.6458C90.2303 98 98 90.0311 98 80.2009V17.7991C98 7.96895 90.2303 0 80.6458 0Z" fill="#49021F"/>
<path d="M35.2953 29.6481V70.9219C35.2953 71.3627 35.095 71.563 34.7343 71.563H26.8803C26.5197 71.563 26.3594 71.3627 26.3594 70.9219V29.6481C26.3594 29.2875 26.5597 29.1272 26.9204 29.1272H34.7343C34.9748 29.0871 35.2152 29.2474 35.2553 29.5279C35.2953 29.568 35.2953 29.608 35.2953 29.6481Z" fill="#FF3366"/>
<path d="M58.4498 72.0449C55.4845 72.0849 52.5192 71.4839 49.8344 70.2416C47.3099 69.0796 45.2261 67.1561 43.7836 64.7919C42.3009 62.3475 41.5796 59.3021 41.5796 55.6556C41.5396 52.6903 42.3009 49.7651 43.7836 47.2005C45.3063 44.5958 47.5102 42.4319 50.155 40.9894C52.96 39.4266 56.326 38.6652 60.2931 38.6652C60.4934 38.6652 60.7739 38.6652 61.1346 38.7053C61.4952 38.7454 61.8959 38.7454 62.3768 38.7854V26.1228C62.3768 25.8423 62.497 25.682 62.7775 25.682H70.9121C71.1124 25.6419 71.2727 25.8022 71.3128 25.9625V26.0427V64.1908C71.3128 64.9121 71.3528 65.7136 71.3929 66.5951C71.4731 67.4366 71.5131 68.2381 71.5532 68.9193C71.5532 69.1998 71.433 69.4402 71.1525 69.5604C69.0688 70.442 66.8648 71.0832 64.6208 71.4839C62.6172 71.8445 60.5335 72.0449 58.4498 72.0449ZM62.3768 64.0305V46.399C62.0162 46.3189 61.6555 46.2387 61.2949 46.1987C60.8541 46.1586 60.4133 46.1185 59.9725 46.1185C58.4097 46.1185 56.8469 46.4391 55.4444 47.1604C54.082 47.8416 52.9199 48.8434 52.0383 50.1257C51.1567 51.408 50.716 53.1311 50.716 55.2148C50.6759 56.6173 50.9163 58.0198 51.3972 59.3422C51.7979 60.4241 52.399 61.3858 53.2004 62.1873C53.9618 62.9085 54.8834 63.4695 55.9253 63.7901C57.0072 64.1508 58.1292 64.3111 59.2512 64.3111C59.8523 64.3111 60.4133 64.271 60.9342 64.2309C61.4552 64.271 61.936 64.1908 62.3768 64.0305Z" fill="#FF3366"/>
</g>
<defs>
<clipPath id="clip0_5258_152834">
<rect width="98" height="98" fill="white"/>
</clipPath>
</defs>
</svg>
