<svg width="1067" height="689" viewBox="0 0 1067 689" fill="none" xmlns="http://www.w3.org/2000/svg">
<path fill-rule="evenodd" clip-rule="evenodd" d="M560.163 69.4483C560.393 70.5973 560.279 70.8753 559.6 70.8233C559.001 70.7773 558.785 71.0903 558.869 71.8828C558.941 72.5688 558.716 73.0078 558.291 73.0078C557.829 73.0078 557.686 72.6538 557.868 71.9568C558.113 71.0213 557.386 70.0383 556.433 70.0153C555.86 70.0018 555.582 71.9993 556.111 72.3263C556.428 72.5223 556.313 72.8228 555.814 73.1018C554.699 73.7258 554.793 74.8058 556.037 75.6773C556.942 76.3113 556.99 76.5363 556.419 77.4518C555.865 78.3383 555.895 78.7138 556.608 79.8793C557.368 81.1208 557.728 81.2563 560.23 81.2448C561.918 81.2373 562.937 81.4333 562.827 81.7448C562.728 82.0268 562.306 82.1988 561.89 82.1263C561.474 82.0538 560.865 82.3173 560.538 82.7118C559.754 83.6568 560.798 85.4303 562.375 85.8308C562.993 85.9878 563.5 86.3168 563.5 86.5618C563.5 86.8073 564.688 87.0078 566.14 87.0078C568.589 87.0078 568.82 87.1118 569.324 88.4453C569.759 89.5998 570.23 89.9253 571.719 90.0993C573.254 90.2783 573.764 90.0893 574.679 89.0008C575.288 88.2778 576.072 87.7818 576.422 87.8983C577.38 88.2178 578.847 86.6508 579.188 84.9418C579.355 84.1088 580.28 82.5048 581.245 81.3773C582.653 79.7333 583 78.9088 583 77.2088C583 74.1808 582.635 73.5773 580.576 73.2023C579.572 73.0193 578.153 72.4503 577.423 71.9383C576.693 71.4268 575.868 71.0078 575.59 71.0078C575.311 71.0078 574.965 70.7268 574.821 70.3828C574.648 69.9738 574.06 70.3193 573.118 71.3828C572.325 72.2768 571.579 73.0078 571.46 73.0078C571.34 73.0078 571.323 71.9968 571.422 70.7613C571.557 69.0633 571.408 68.4413 570.813 68.2128C569.452 67.6908 568.5 69.2383 568.5 71.9723C568.5 74.6853 567.778 75.3043 567 73.2578C566.722 72.5268 566.128 72.0078 565.57 72.0078C565.044 72.0078 564.213 71.3888 563.72 70.6328C561.855 67.7673 559.682 67.0433 560.163 69.4483ZM598.516 72.9903C596.413 73.8273 594.972 75.1463 595.539 75.7138C596.066 76.2408 602.25 73.7533 602.25 73.0138C602.25 71.9668 601.104 71.9593 598.516 72.9903ZM549.792 76.1328C548.775 79.7203 548.556 82.3788 549.013 85.6013C549.646 90.0633 549.339 90.5683 548.521 86.4103C547.883 83.1693 546.304 79.5078 545.544 79.5078C544.933 79.5078 543.502 83.2513 543.486 84.8928L543.473 86.2578L542.621 84.8828C542.152 84.1263 541.456 83.5078 541.073 83.5078C539.957 83.5078 541.361 82.0978 542.661 81.9128C543.428 81.8038 543.797 81.3518 543.908 80.3828C544.089 78.8148 542.865 78.4408 540.5 79.3408C540.088 79.4978 538.4 79.6558 536.75 79.6918L533.75 79.7578L533.816 82.7578C533.852 84.4078 534.158 87.0713 534.498 88.6763C535.008 91.0928 535.269 91.5543 536.014 91.3593C536.6 91.2058 536.999 91.4523 537.16 92.0658C537.337 92.7453 537.14 93.0078 536.453 93.0078C535.454 93.0078 535.139 94.2258 536 94.7578C536.275 94.9278 536.5 95.6863 536.5 96.4428C536.5 97.1998 536.894 98.2653 537.375 98.8103C537.856 99.3553 538.814 100.916 539.504 102.279C540.66 104.566 540.89 104.751 542.471 104.674C544.828 104.559 546.061 102.899 545.665 100.373C545.42 98.8108 545.501 98.5393 546.139 98.7848C546.563 98.9473 547.047 99.6263 547.215 100.294C547.536 101.573 548.89 101.918 549.843 100.964C550.235 100.573 550.498 100.599 550.782 101.06C551.014 101.434 550.921 101.784 550.558 101.905C550.218 102.018 549.335 102.678 548.595 103.37C546.593 105.245 545.095 106.139 543.857 106.202C542.991 106.246 542.716 106.607 542.595 107.86C542.278 111.137 544.702 112.611 547.356 110.752C547.949 110.337 548.561 110.203 548.716 110.454C548.872 110.705 548.321 111.147 547.493 111.435C546.665 111.724 545.853 112.308 545.69 112.734C545.526 113.16 544.938 113.508 544.382 113.508C543.474 113.508 543.397 113.746 543.632 115.827C543.813 117.439 544.295 118.543 545.213 119.452C545.94 120.17 547.187 121.77 547.984 123.008C551.356 128.238 553.053 128.794 553.329 124.758C553.658 119.931 554.918 115.436 556.021 115.147C556.704 114.968 556.965 114.134 557.235 111.252C557.465 108.792 557.812 107.495 558.289 107.312C558.719 107.147 559 106.338 559 105.268C559 104.294 559.507 102.505 560.125 101.293C561.041 99.4973 561.574 99.0268 563 98.7538C566.114 98.1568 566.926 96.5008 564.972 94.7323C564.276 94.1028 564.035 93.4368 564.226 92.6748C564.509 91.5473 563.355 90.4988 561.5 90.1973C558.779 89.7558 558.758 89.7323 558.449 86.9078C558.283 85.3913 557.988 83.8933 557.794 83.5788C557.225 82.6588 556.196 82.9198 555.61 84.1328C555.199 84.9868 555.06 85.0543 555.034 84.4123C555.015 83.9473 555.225 83.4278 555.5 83.2578C556.926 82.3763 554.588 77.0078 552.778 77.0078C552.409 77.0078 551.978 76.6703 551.819 76.2578C551.471 75.3498 550.039 75.2613 549.792 76.1328ZM585.281 94.0438C584.576 94.7543 584.462 95.1698 584.863 95.5703C585.191 95.8988 585.682 95.9468 586.081 95.6893C586.449 95.4518 587.532 95.2578 588.488 95.2578C589.778 95.2578 590.273 95.0198 590.409 94.3343C590.555 93.5978 590.38 93.4783 589.546 93.7433C588.93 93.9383 588.5 93.8553 588.5 93.5413C588.5 92.6578 586.318 92.9983 585.281 94.0438ZM533 94.9003C533 96.4733 534.98 101.488 536.007 102.515C536.553 103.061 537 103.845 537 104.258C537 104.67 537.366 105.008 537.812 105.008C538.884 105.008 538.403 102.326 536.985 100.391C536.434 99.6393 535.909 98.4003 535.821 97.6368C535.51 94.9718 533 92.5363 533 94.9003ZM580.178 96.2643C579.837 97.1528 580.823 98.5078 581.811 98.5078C582.631 98.5078 582.691 97.7988 581.982 96.4748C581.362 95.3163 580.577 95.2248 580.178 96.2643ZM563.125 99.7533C561.342 100.528 561.134 101.071 562.21 102.147C562.601 102.538 563.184 103.847 563.507 105.058C563.829 106.268 564.403 107.606 564.782 108.031C565.509 108.847 565.256 112.29 564.432 112.799C563.866 113.15 563.87 116.008 564.437 116.008C564.678 116.008 565.749 115.699 566.819 115.322L568.764 114.635L568.579 116.572C568.437 118.069 568.571 118.508 569.173 118.508C569.601 118.508 570.13 118.227 570.35 117.883C570.57 117.539 571.2 117.012 571.75 116.712C572.3 116.412 573.105 115.429 573.54 114.528C573.975 113.627 574.869 112.483 575.527 111.987C576.704 111.1 576.708 111.067 575.785 110.046C575.268 109.475 574.374 109.001 573.798 108.992C573.222 108.983 572.318 108.649 571.79 108.25C570.889 107.568 570.882 107.467 571.67 106.597C572.455 105.729 572.452 105.621 571.629 104.891C571.145 104.462 570.3 104.029 569.75 103.929C569.118 103.814 568.699 103.289 568.61 102.503C568.254 99.3328 568.044 99.0068 566.366 99.0273C565.477 99.0383 564.018 99.3648 563.125 99.7533Z" fill="#2A549D"/>
</svg>
