<svg width="1067" height="689" viewBox="0 0 1067 689" fill="none" xmlns="http://www.w3.org/2000/svg">
<path fill-rule="evenodd" clip-rule="evenodd" d="M629 522.975C629 523.531 629.333 523.975 629.75 523.975C630.591 523.975 630.625 523.884 630.196 522.766C629.768 521.649 629 521.783 629 522.975ZM632.333 524.309C631.758 524.884 631.969 525.475 632.75 525.475C633.162 525.475 633.5 525.138 633.5 524.725C633.5 523.944 632.908 523.733 632.333 524.309ZM646.1 524.575C645.77 524.905 645.5 525.805 645.5 526.575C645.5 527.345 645.275 527.975 645 527.975C644.725 527.975 644.5 527.737 644.5 527.446C644.5 527.155 644.272 527.058 643.992 527.23C643.713 527.403 643.599 527.73 643.739 527.957C643.88 528.185 643.647 528.504 643.223 528.666C642.8 528.829 642.49 529.246 642.536 529.594C642.73 531.076 642.453 531.975 641.803 531.975C641.42 531.975 640.988 532.285 640.843 532.665C640.539 533.456 634.59 536.475 633.335 536.475C632.876 536.475 632.5 536.824 632.5 537.25C632.5 537.676 632.176 538.652 631.78 539.418C631.15 540.636 631.154 541.273 631.813 544.458C632.641 548.458 632.369 549.853 630.337 552.035C629.515 552.917 629.273 553.75 629.34 555.463C629.604 562.221 630.664 564.795 633.799 566.282C635.479 567.079 635.653 567.065 638.398 565.905L641.25 564.7L642.414 560.962C643.055 558.907 644.575 554.075 645.792 550.225C647.009 546.375 648.003 542.494 648.002 541.6C648.001 540.544 648.244 539.975 648.697 539.975C649.675 539.975 650.056 538.689 649.507 537.245C649.134 536.264 649.186 536.078 649.767 536.301C650.911 536.74 651.13 535.317 650.522 531.378C650.168 529.087 649.498 527.026 648.722 525.85C647.389 523.828 647.025 523.651 646.1 524.575ZM630 524.922C630 525.167 630.338 525.498 630.75 525.656C631.207 525.831 631.5 525.657 631.5 525.21C631.5 524.806 631.162 524.475 630.75 524.475C630.338 524.475 630 524.676 630 524.922ZM634.5 526.446C634.5 527.012 634.725 527.475 635 527.475C635.275 527.475 635.5 527.151 635.5 526.755C635.5 526.358 635.275 525.895 635 525.725C634.725 525.555 634.5 525.88 634.5 526.446ZM670.813 549.242C670.342 550.469 670.406 550.558 671.625 550.385C672.243 550.297 672.75 549.891 672.75 549.482C672.75 548.444 671.193 548.25 670.813 549.242ZM664.5 551.708C664.5 552.11 664.953 552.683 665.507 552.979C666.295 553.401 666.577 553.355 666.801 552.771C666.959 552.36 666.943 551.787 666.765 551.499C666.275 550.708 664.5 550.871 664.5 551.708Z" fill="#2A549D"/>
</svg>
