<svg width="1067" height="689" viewBox="0 0 1067 689" fill="none" xmlns="http://www.w3.org/2000/svg">
<path fill-rule="evenodd" clip-rule="evenodd" d="M288.235 452.849C287.301 454.101 284.18 455.576 283.235 455.214C282.794 455.045 282.284 455.146 282.103 455.44C281.921 455.734 281.325 455.974 280.778 455.974C279.247 455.974 277.285 458.363 277.643 459.79C277.808 460.446 277.717 460.974 277.439 460.974C277.163 460.974 276.272 461.596 275.459 462.355C274.396 463.348 273.88 464.41 273.621 466.134C273.421 467.473 272.947 468.653 272.55 468.806C272.158 468.956 271.97 469.293 272.132 469.556C272.294 469.818 272.498 472.033 272.585 474.478C272.731 478.574 272.65 479.024 271.561 480.199C270.911 480.9 270.031 481.474 269.606 481.474C269.165 481.474 268.832 481.905 268.832 482.474C268.832 483.024 268.607 483.474 268.332 483.474C268.057 483.474 267.832 483.924 267.832 484.474C267.832 485.034 267.498 485.474 267.075 485.474C265.793 485.474 264.455 486.587 264.684 487.462C264.803 487.92 264.548 488.587 264.117 488.945C263.685 489.304 263.332 489.938 263.332 490.355C263.332 490.773 262.981 491.37 262.552 491.684C261.94 492.132 261.881 492.538 262.277 493.581C262.644 494.544 262.62 494.962 262.19 495.105C261.819 495.229 262.122 495.925 263.003 496.972L264.409 498.642L263.154 499.404C261.262 500.551 260.602 502.096 261.231 503.9C261.52 504.728 261.646 505.828 261.511 506.344C261.333 507.022 261.724 507.528 262.924 508.174C264.784 509.176 267.159 512.647 270.314 518.974C272.518 523.395 272.892 524.073 274.723 526.974C275.331 527.937 275.829 529.22 275.83 529.826C275.835 532.592 278.52 535.156 284.634 538.232C286.491 539.167 289.009 540.785 290.229 541.828C291.449 542.871 292.642 543.848 292.881 543.999C293.568 544.433 294.188 553.441 293.705 555.954C293.215 558.497 293.078 559.773 292.596 566.224C292.227 571.161 291.598 574.4 290.549 576.763C290.131 577.706 289.985 579.032 290.173 580.188C290.382 581.475 290.273 582.202 289.83 582.475C289.326 582.787 289.282 583.691 289.634 586.55C289.999 589.513 289.917 590.902 289.21 593.724C287.893 598.982 287.217 600.974 286.752 600.974C286.521 600.974 286.371 601.143 286.42 601.349C286.608 602.147 285.268 605.967 284.547 606.687C283.706 607.528 283.657 610.511 284.432 613.673C284.793 615.143 284.731 616.002 284.182 617.173C282.725 620.28 282.341 622.057 282.902 623.105C283.271 623.796 283.275 624.2 282.913 624.424C282.625 624.602 282.158 626.187 281.875 627.948C281.591 629.708 281.078 631.322 280.735 631.534C280.392 631.746 280.304 632.101 280.54 632.322C280.776 632.543 281.069 632.443 281.192 632.099C281.315 631.755 281.924 631.474 282.546 631.474C284.073 631.474 285.66 629.722 284.929 628.842C284.588 628.431 284.558 627.921 284.849 627.457C285.102 627.054 285.195 626.357 285.055 625.908C284.916 625.46 285.109 624.975 285.484 624.831C286.417 624.473 286.414 625.439 285.467 630.826C284.791 634.665 284.557 635.289 284.05 634.596C283.716 634.14 283.566 633.445 283.717 633.052C283.887 632.609 283.74 632.421 283.33 632.558C282.967 632.679 282.614 633.156 282.546 633.616C282.479 634.077 282.065 634.812 281.627 635.25C280.693 636.185 280.682 636.26 281.321 637.454C281.692 638.147 281.512 638.806 280.576 640.186C279.897 641.186 279.396 642.166 279.462 642.364C279.528 642.562 279.061 643.245 278.425 643.881C277.164 645.142 277.193 646.133 278.498 646.386C279.027 646.488 279.337 646.214 279.347 645.636C279.361 644.777 279.392 644.775 279.872 645.599C280.152 646.081 280.708 646.474 281.107 646.474C281.981 646.474 281.99 646.58 281.259 648.185C280.943 648.877 280.476 649.314 280.22 649.155C279.964 648.997 279.317 649.338 278.781 649.914C277.95 650.805 277.824 651.586 277.926 655.217C277.991 657.558 278.167 659.474 278.317 659.474C278.467 659.474 278.508 660.487 278.41 661.724C278.271 663.467 278.4 663.974 278.978 663.974C279.389 663.974 279.854 664.312 280.013 664.724C280.171 665.137 280.106 665.474 279.87 665.474C279.034 665.474 278.85 667.049 279.459 669C280.063 670.935 281.035 671.589 281.465 670.349C281.584 670.006 281.846 670.456 282.046 671.349C282.248 672.249 282.728 672.974 283.121 672.974C283.512 672.974 283.832 673.212 283.832 673.503C283.832 673.795 283.17 673.64 282.347 673.154C281.531 672.671 280.711 672.428 280.526 672.613C280.054 673.085 281.319 674.494 282.677 675.01C283.362 675.271 283.706 675.721 283.543 676.144C283.395 676.53 283.625 677.196 284.053 677.624C284.481 678.052 284.832 678.64 284.832 678.929C284.832 679.218 285.45 679.591 286.207 679.756C288.622 680.286 288.832 680.423 288.832 681.474C288.832 682.042 289.169 682.635 289.582 682.793C289.994 682.952 290.332 683.432 290.332 683.861C290.332 684.29 290.474 684.499 290.647 684.325C290.821 684.152 291.434 684.339 292.009 684.742C292.584 685.145 293.539 685.474 294.132 685.474C294.724 685.474 295.489 685.812 295.832 686.224C296.174 686.637 297.057 686.974 297.793 686.974C298.529 686.974 299.402 687.244 299.732 687.574C300.627 688.469 301.721 687.296 300.906 686.314C300.424 685.733 300.554 685.655 301.656 685.866C302.583 686.043 303.192 685.841 303.66 685.202C304.262 684.379 304.332 684.371 304.332 685.129C304.332 685.594 304.669 685.974 305.082 685.974C305.494 685.974 305.832 685.641 305.832 685.234C305.832 684.827 306.451 684.345 307.207 684.165C309.942 683.511 310.781 681.974 308.402 681.974C306.101 681.974 301.055 677.475 300.692 675.1C300.61 674.561 300.163 673.542 299.7 672.835C299.08 671.889 299.019 671.494 299.47 671.342C299.928 671.188 299.87 670.688 299.239 669.355C297.183 665.012 297.461 662.001 300.033 660.781C301.462 660.103 301.803 659.619 302.099 657.846C302.378 656.171 302.971 655.246 304.912 653.455C307.087 651.447 307.384 650.927 307.477 648.955C307.573 646.92 307.472 646.709 306.332 646.554C304.981 646.369 303.521 645.263 302.765 643.849C301.702 641.864 304.597 638.474 307.355 638.474C307.989 638.474 308.332 638.133 308.332 637.504C308.332 636.97 308.557 636.394 308.832 636.224C309.107 636.054 309.332 635.063 309.332 634.022C309.332 631.977 309.996 631.145 312.737 629.756C314.083 629.074 314.364 628.665 314.237 627.571C314.107 626.443 313.838 626.224 312.582 626.222C310.451 626.22 310.047 625.807 309.91 623.491L309.789 621.443L311.622 622.209C313.934 623.175 314.999 623.172 316.89 622.194C318.208 621.513 318.357 621.226 318.071 619.924C317.891 619.104 317.957 618.161 318.219 617.829C318.48 617.496 318.833 616.638 319.004 615.922C319.286 614.737 319.594 614.593 322.448 614.315C327.041 613.867 332.332 611.76 332.332 610.38C332.332 610.12 332.894 609.17 333.582 608.269C335.116 606.257 335.248 603.99 333.853 603.625C333.083 603.423 332.896 602.986 332.978 601.574C333.066 600.046 332.843 599.626 331.476 598.752C330.593 598.187 329.862 597.542 329.851 597.32C329.84 597.097 330.113 597.095 330.457 597.316C333.204 599.076 339.183 599.82 341.408 598.679C342.138 598.305 343.227 597.203 343.828 596.23C344.429 595.257 345.333 594.241 345.836 593.972C346.339 593.703 346.894 592.831 347.069 592.034C347.244 591.238 348.063 589.942 348.889 589.155C352.199 586.002 352.865 585.14 354.275 582.189C355.082 580.5 356.29 578.686 356.961 578.159C358.439 576.996 359.542 573.911 359.034 572.357C357.916 568.935 359.471 566.143 364.269 562.957C366.018 561.796 366.651 561.61 367.431 562.027C368.23 562.455 368.453 562.368 368.669 561.543C368.993 560.302 371.117 559.518 375.207 559.128C377.283 558.93 378.332 558.612 378.332 558.18C378.332 557.823 379.007 557.132 379.832 556.645C380.912 556.007 381.332 555.379 381.332 554.402C381.332 553.656 381.62 552.748 381.972 552.385C383.429 550.882 384.832 547.801 384.832 546.103C384.832 544.963 385.212 543.884 385.856 543.198C386.706 542.294 386.918 541.266 387.104 537.166C387.227 534.448 387.329 531.437 387.331 530.474C387.334 529.088 387.646 528.517 388.834 527.724C389.659 527.174 390.947 525.515 391.696 524.037C392.445 522.559 393.57 521.117 394.195 520.832C394.82 520.547 395.332 520.181 395.333 520.019C395.334 519.857 396.024 518.937 396.868 517.974C398.862 515.698 399.365 514.363 399.402 511.241C399.468 505.734 397.985 503.474 394.303 503.474C392.961 503.474 391.692 502.69 389.246 500.349C388.743 499.868 388.21 499.474 388.062 499.474C387.913 499.474 387.107 498.968 386.272 498.349C384.789 497.251 383.258 496.995 373.882 496.272C371.672 496.102 369.869 494.662 369.843 493.046C369.836 492.634 369.521 492.487 369.041 492.671C368.607 492.837 366.863 492.426 365.166 491.755C363.249 490.998 361.561 490.642 360.707 490.814C359.66 491.025 359.332 490.898 359.332 490.283C359.332 489.838 358.983 489.474 358.557 489.474C357.607 489.474 354.704 488.024 354.253 487.324C354.072 487.043 354.173 486.414 354.479 485.925C355.102 484.927 354.12 482.474 353.098 482.474C352.461 482.474 351.332 479.692 351.332 478.123C351.332 477.518 350.557 476.507 349.457 475.674C348.426 474.893 347.146 473.854 346.612 473.364C346.079 472.875 345.281 472.474 344.837 472.474C344.394 472.474 343.771 472.213 343.452 471.894C343.122 471.564 340.875 471.246 338.238 471.157C334.449 471.028 333.373 470.811 332.343 469.968C331.649 469.402 330.688 468.807 330.207 468.648C329.725 468.488 329.332 468.03 329.332 467.63C329.332 466.095 325.772 463.482 323.673 463.478C322.512 463.475 322.318 463.306 322.569 462.514C322.97 461.251 321.184 459.586 318.989 459.174C316.904 458.783 316.505 458.207 317.962 457.692C318.83 457.386 318.493 457.255 316.457 457.109C315.013 457.006 313.832 456.707 313.832 456.444C313.832 455.884 312.075 456.834 310.723 458.125C309.688 459.114 308.213 458.911 306.688 457.57C305.947 456.92 305.365 456.872 303.3 457.295C300.89 457.789 300.785 457.763 300.189 456.515C299.25 454.552 296.556 454.065 293.109 455.237C290.079 456.267 288.935 455.905 290.792 454.504C291.561 453.924 291.876 453.312 291.675 452.788C291.261 451.708 289.058 451.747 288.235 452.849ZM291.142 461.247C290.989 461.647 290.657 461.974 290.406 461.974C289.809 461.974 289.321 460.083 289.678 459.153C289.898 458.579 290.108 458.646 290.688 459.475C291.091 460.05 291.295 460.848 291.142 461.247ZM271.832 462.163C271.832 462.267 272.225 462.661 272.707 463.038C273.5 463.66 273.517 463.642 272.896 462.849C272.242 462.016 271.832 461.752 271.832 462.163ZM311.696 628.776C311.53 628.942 311.099 628.96 310.738 628.816C310.339 628.656 310.458 628.538 311.04 628.514C311.567 628.492 311.862 628.61 311.696 628.776ZM279.332 637.474C279.332 637.749 279.557 637.974 279.832 637.974C280.107 637.974 280.332 637.749 280.332 637.474C280.332 637.199 280.107 636.974 279.832 636.974C279.557 636.974 279.332 637.199 279.332 637.474ZM322.902 665.941C322.617 666.116 322.827 668.362 322.827 668.849C322.663 669.137 322.176 668.573 321.432 668.156C320.78 668.156 320.525 668.967 321.432 669.874C322.158 670.601 322.887 670.679 323.399 670.269C323.809 670 324.722 669.392 324.722 669.392C324.722 669.392 326.193 667.958 326.415 667.605C326.415 667.605 327.194 666.419 326.619 666.022C326.134 665.873 325.112 666.155 324.722 666.022C324.161 665.83 323.527 665.058 322.902 665.941ZM282.707 666.599C282.593 666.943 282.094 667.303 281.6 667.399C280.82 667.55 280.793 667.469 281.391 666.793C282.226 665.849 282.994 665.736 282.707 666.599ZM283.832 669.254C283.832 669.682 283.607 669.894 283.332 669.724C283.057 669.554 282.832 669.204 282.832 668.945C282.832 668.686 283.057 668.474 283.332 668.474C283.607 668.474 283.832 668.825 283.832 669.254ZM298.332 671.195C298.332 671.722 297.372 671.944 297.087 671.482C296.914 671.203 297.124 670.974 297.552 670.974C297.981 670.974 298.332 671.073 298.332 671.195ZM293.323 675.261C292.802 677.575 292.087 678.257 292.51 676.037C292.687 675.109 292.832 674.027 292.832 673.632C292.832 673.238 293.033 673.04 293.28 673.192C293.532 673.348 293.551 674.251 293.323 675.261ZM295.338 676.698C294.654 677.077 293.869 677.247 293.593 677.077C293.317 676.906 293.652 676.611 294.337 676.42C296.333 675.865 296.673 675.959 295.338 676.698ZM310.061 683.008C309.88 683.301 309.844 683.653 309.981 683.79C310.38 684.189 313.832 683.408 313.832 682.919C313.832 682.286 310.458 682.366 310.061 683.008ZM301.457 687.722C300.55 688.752 300.684 689.065 301.952 688.884C302.568 688.796 303.147 688.33 303.238 687.849C303.438 686.803 302.335 686.724 301.457 687.722Z" fill="#2A549D"/>
<path d="M328.105 665.513C327.746 665.713 326.925 667.429 326.925 667.916C326.761 668.204 326.609 668.757 325.858 669.273C325.677 669.598 325.469 669.743 325.677 670.475C326.404 671.202 326.757 670.044 327.269 669.634C327.679 669.365 328.842 669.481 328.842 669.481C328.842 669.481 330.681 668.008 330.903 667.655C330.903 667.655 331.502 666.897 331.022 666.409C330.254 665.812 328.896 666.985 328.896 666.831C328.896 666.369 330.456 665.287 328.105 665.513Z" fill="#2A549D"/>
</svg>
