<svg width="42" height="42" viewBox="0 0 42 42" fill="none" xmlns="http://www.w3.org/2000/svg">
<path fill-rule="evenodd" clip-rule="evenodd" d="M19.5052 0.0169371C19.4153 0.0271179 19.1 0.0580342 18.8046 0.0856814C16.5256 0.298733 13.9318 1.04413 11.7705 2.10696C10.7136 2.62679 10.3495 2.83672 9.32212 3.51897C6.98542 5.07072 5.05138 7.00042 3.49864 9.32927C1.65928 12.0881 0.509754 15.221 0.0886026 18.6228C-0.0173859 19.4791 -0.0320066 22.2965 0.0649665 23.1762C0.337575 25.6493 1.03605 28.0732 2.09823 30.232C2.61817 31.2887 2.82814 31.6528 3.51055 32.6799C5.06263 35.0161 6.99275 36.9497 9.32212 38.5021C12.0816 40.3411 15.2151 41.4904 18.6177 41.9114C19.4742 42.0174 22.2922 42.032 23.1721 41.935C25.6457 41.6625 28.0701 40.9642 30.2295 39.9022C31.2864 39.3824 31.6505 39.1725 32.6779 38.4902C35.0146 36.9385 36.9486 35.0088 38.5014 32.6799C40.3407 29.9211 41.4902 26.7882 41.9114 23.3864C42.0174 22.5301 42.032 19.7127 41.935 18.833C41.6624 16.3599 40.9639 13.936 39.9018 11.7772C39.3818 10.7205 39.1719 10.3564 38.4895 9.32927C36.9374 6.99308 35.0072 5.05946 32.6779 3.50707C29.935 1.67913 26.8097 0.52855 23.429 0.102074C22.8768 0.0323952 19.9327 -0.0314922 19.5052 0.0169371Z" fill="#7360F2"/>
<path fill-rule="evenodd" clip-rule="evenodd" d="M18.7178 9.02084C15.7245 9.32146 13.703 9.91365 12.0965 10.9603C10.5538 11.9654 9.49193 13.7231 9.00298 16.0809C8.71932 17.4489 8.67969 18.0036 8.67969 20.6054C8.67969 22.6608 8.69899 23.189 8.79671 23.8111C9.14675 26.0384 9.77008 27.5283 10.9024 28.8439C11.6276 29.6865 12.9888 30.5614 14.1643 30.9404L14.5974 31.08L14.6176 32.7124L14.6378 34.3447L14.8128 34.609C15.1173 35.0688 15.7301 35.14 16.2483 34.7758C16.3922 34.6747 17.0542 33.9818 17.7197 33.2361L18.9295 31.8803L20.7017 31.8963C23.3418 31.9203 25.0641 31.7218 27.1249 31.1561C29.7795 30.4275 31.3879 29.1027 32.3623 26.8426C32.999 25.3656 33.3223 23.1113 33.3208 20.1588C33.3192 16.9055 32.7462 14.4397 31.581 12.6722C30.3698 10.8348 27.9011 9.64346 24.2549 9.13689C23.7196 9.06255 22.8726 9.02796 21.2435 9.01411C19.9968 9.00355 18.8602 9.00659 18.7178 9.02084ZM23.8663 11.0167C25.5576 11.2375 27.0222 11.6525 28.173 12.2372C30.208 13.271 31.237 15.5663 31.4163 19.472C31.4624 20.4756 31.3723 22.2456 31.2119 23.4873C31.0351 24.8551 30.6813 25.9228 30.1144 26.7992C29.287 28.0783 28.1844 28.8112 26.3913 29.2741C24.454 29.7741 23.4485 29.9044 21.1361 29.9552L19.2802 29.9958L18.1053 31.3882C16.5866 33.1881 15.7306 34.1082 15.5746 34.1082C15.3112 34.1082 15.2952 33.9349 15.3393 31.5721L15.3814 29.3247L15.0311 29.2228C14.4505 29.0541 13.4326 28.5057 12.9542 28.1039C11.1314 26.573 10.4411 24.2904 10.5479 20.1468C10.6235 17.217 10.996 15.4947 11.8474 14.138C12.4276 13.2136 13.0315 12.6689 14.0637 12.1391C15.3318 11.4883 16.5458 11.1795 18.9444 10.8978C19.5228 10.8299 23.0966 10.9162 23.8663 11.0167ZM20.693 13.6229C20.5609 13.6711 20.434 13.84 20.434 13.9673C20.434 14.2274 20.5768 14.2917 21.2952 14.3548C22.8226 14.4889 23.9618 14.9693 24.9924 15.9138C26.2168 17.036 26.7858 18.4347 26.9263 20.6681C26.939 20.8694 26.9795 20.9458 27.1132 21.0204C27.2668 21.1063 27.3015 21.1041 27.4625 20.9986L27.6414 20.8814L27.5993 20.1606C27.5489 19.2975 27.3205 18.2439 27.0415 17.5872C26.1338 15.4511 24.0105 13.8884 21.7292 13.6771C21.4977 13.6556 21.1917 13.6267 21.0492 13.6128C20.9067 13.5989 20.7464 13.6034 20.693 13.6229ZM15.8682 14.4768C15.4843 14.6517 14.7738 15.2466 14.477 15.6416C14.3338 15.8322 14.169 16.152 14.1108 16.3521C14.0093 16.7012 14.0106 16.7357 14.1441 17.2035C14.2206 17.4717 14.5722 18.2739 14.9255 18.9863C16.7723 22.7106 18.7766 24.7268 22.482 26.588C24.0806 27.3909 24.6587 27.5772 25.1476 27.4467C25.7459 27.287 26.3641 26.7628 26.8966 25.9638C27.1519 25.5807 27.2378 25.1046 27.1082 24.7915C26.9807 24.4838 25.4129 23.2713 24.5474 22.8111C24.1894 22.6208 23.708 22.5899 23.42 22.7389C23.3205 22.7903 23.0738 23.037 22.8718 23.2871C22.3934 23.8791 22.2048 23.9418 21.5603 23.7225C20.0056 23.1938 18.8378 22.1014 18.032 20.4222C17.7312 19.7953 17.6528 19.3828 17.7876 19.1364C17.8362 19.0476 18.0653 18.8155 18.2968 18.6207C18.7847 18.2101 18.8946 18.0202 18.8946 17.588C18.8946 17.1331 18.4412 16.3642 17.4396 15.1206C16.8217 14.3533 16.4623 14.206 15.8682 14.4768ZM21.1301 15.438C20.8863 15.7094 21.0893 16.0391 21.5008 16.0401C21.8776 16.041 22.7869 16.303 23.2438 16.5423C24.3939 17.1447 25.1616 18.4312 25.1616 19.7566C25.1616 20.2093 25.2696 20.3787 25.5585 20.3787C25.8177 20.3787 25.874 20.2631 25.8728 19.7343C25.8675 17.4071 24.1047 15.5567 21.6968 15.3507C21.3002 15.3167 21.2293 15.3276 21.1301 15.438ZM21.648 17.1877C21.5263 17.3223 21.5035 17.5089 21.5919 17.6483C21.6221 17.6961 21.8621 17.776 22.1252 17.826C22.9419 17.9811 23.3665 18.4243 23.4557 19.2148C23.4776 19.4097 23.5218 19.6201 23.5537 19.6825C23.6216 19.8149 23.9921 19.8385 24.1124 19.7181C24.2194 19.6111 24.2098 19.1859 24.0898 18.7253C23.8459 17.7892 23.1633 17.2214 22.1431 17.106C21.8145 17.0688 21.7453 17.0802 21.648 17.1877Z" fill="white"/>
</svg>
