<svg width="42" height="42" viewBox="0 0 42 42" fill="none" xmlns="http://www.w3.org/2000/svg">
<g clip-path="url(#clip0_5258_151383)">
<path fill-rule="evenodd" clip-rule="evenodd" d="M21.003 1.41797C31.8311 1.41797 40.5919 10.1787 40.5919 20.9905C40.5919 31.802 31.8311 40.5792 21.003 40.5792C10.1748 40.5792 1.41406 31.8186 1.41406 21.0067C1.41406 10.1951 10.1748 1.41797 21.003 1.41797Z" fill="#E74D89"/>
<path fill-rule="evenodd" clip-rule="evenodd" d="M21 41.9739C9.41719 41.9739 0 32.5731 0 21.0067C0 9.42422 9.41719 0.0234375 21 0.0234375C32.5828 0.0234375 42 9.42422 42 20.9905C42 32.5569 32.5828 41.9739 21 41.9739ZM38.7022 23.8614C38.0953 23.6645 33.157 22.2045 27.5295 23.0905C29.8758 29.5215 30.8272 34.7717 31.0078 35.8542C35.0438 33.1473 37.9147 28.8491 38.7022 23.8614ZM28.0055 37.5114C27.743 35.9364 26.6928 30.4567 24.1826 23.9272C24.15 23.9436 24.1008 23.9598 24.068 23.9598C13.9453 27.4873 10.3195 34.4926 9.99157 35.1489C13.0266 37.5114 16.8492 38.9223 21 38.9223C23.4773 38.9387 25.8561 38.4301 28.0055 37.5114ZM7.67829 32.9998C8.08828 32.3106 13.0102 24.1733 22.2633 21.1709C22.493 21.0889 22.7391 21.0233 22.9688 20.9575C22.5258 19.9405 22.0336 18.9233 21.5086 17.9225C12.5509 20.5967 3.85547 20.4819 3.06797 20.4653C3.06797 20.6459 3.05173 20.8264 3.05173 21.0067C3.06797 25.617 4.8072 29.8169 7.67829 32.9998ZM3.44548 17.3483C4.24922 17.3647 11.632 17.3975 20.032 15.1662C17.0625 9.88359 13.8469 5.45374 13.3877 4.81406C8.35078 7.17656 4.61032 11.803 3.44548 17.3483ZM16.8 3.59984C17.2922 4.25625 20.557 8.68594 23.4937 14.0834C29.8758 11.6883 32.5664 8.07874 32.8944 7.61937C29.7281 4.81406 25.5608 3.10765 21 3.10765C19.5562 3.10765 18.1453 3.28828 16.8 3.59984ZM34.8795 9.68672C34.5023 10.1951 31.5 14.0506 24.8717 16.7577C25.282 17.6109 25.6922 18.4803 26.0695 19.3498C26.2006 19.6616 26.332 19.9731 26.4633 20.2684C32.4352 19.5139 38.3576 20.728 38.9483 20.8428C38.8991 16.6266 37.3897 12.7381 34.8795 9.68672Z" fill="#B2215A"/>
</g>
<defs>
<clipPath id="clip0_5258_151383">
<rect width="42" height="42" fill="white"/>
</clipPath>
</defs>
</svg>
