<svg width="42" height="42" viewBox="0 0 42 42" fill="none" xmlns="http://www.w3.org/2000/svg">
<path d="M21.4092 0.514648C22.2779 0.533499 23.1216 0.566841 23.3662 0.597656C26.6727 1.01477 29.7242 2.13942 32.4004 3.92285C34.6745 5.43841 36.5578 7.32538 38.0732 9.60645C38.744 10.6161 38.9432 10.9617 39.4531 11.998C40.4888 14.103 41.172 16.4704 41.4385 18.8877C41.4834 19.2952 41.5038 20.1929 41.499 21.1162C41.4942 22.04 41.4639 22.9305 41.415 23.3252C41.0031 26.6524 39.8796 29.7106 38.085 32.4023C36.5691 34.6758 34.6828 36.5581 32.4014 38.0732C31.6436 38.5765 31.2597 38.8146 30.6777 39.1172L30.0088 39.4531C27.9033 40.4886 25.5351 41.1721 23.1172 41.4385C22.7095 41.4834 21.8121 41.5038 20.8887 41.499C19.9645 41.4942 19.0736 41.4639 18.6787 41.415C15.3508 41.0032 12.2919 39.8802 9.59961 38.0859C7.32553 36.5704 5.44222 34.6844 3.92676 32.4033C3.25583 31.3935 3.05675 31.0479 2.54688 30.0117C1.5112 27.9067 0.827991 25.5385 0.561523 23.1211C0.516636 22.7135 0.49619 21.8165 0.500977 20.8936C0.505771 19.9698 0.536118 19.0795 0.584961 18.6846C0.996884 15.3572 2.12034 12.2983 3.91504 9.60645C5.43086 7.33305 7.3172 5.45061 9.59863 3.93555C10.3565 3.43229 10.7402 3.19423 11.3223 2.8916L11.9912 2.55566C14.1007 1.51825 16.6363 0.791084 18.8516 0.583984C19.1457 0.556457 19.4659 0.5245 19.5615 0.513672C19.6339 0.505474 19.8659 0.499724 20.2207 0.5C20.5609 0.500265 20.9824 0.505391 21.4092 0.514648Z" fill="white" stroke="#F1F2F4"/>
<path d="M28.3726 20.4758L21.0008 26.1421L13.6289 20.4758V12.4609L21.0012 18.2269L28.3726 12.4609V20.4758Z" fill="#EE4132"/>
<path d="M13.6276 31.2643V20.4533L7.47307 15.6719L7.4668 29.6233C7.59483 30.0395 7.63035 30.228 7.96977 30.6427C8.24661 30.9809 8.61789 31.2643 9.019 31.2643H13.6276Z" fill="#4386F7"/>
<path d="M28.3724 31.2643V20.4533L34.5269 15.6719L34.5332 29.6233C34.4052 30.0395 34.3697 30.228 34.0302 30.6427C33.7534 30.9809 33.3821 31.2643 32.981 31.2643H28.3724Z" fill="#31A653"/>
<path d="M13.6274 12.4611V20.4763L7.47243 15.674L7.47241 13.7371C7.4724 13.6017 7.30656 12.0193 8.77855 11.1553C10.0681 10.3984 11.4302 10.8333 11.8254 11.1398L13.6274 12.4611Z" fill="#C6231A"/>
<path d="M28.3726 12.4611V20.4763L34.5276 15.674L34.5276 13.7371C34.5276 13.6017 34.6934 12.0193 33.2214 11.1553C31.9319 10.3984 30.5698 10.8333 30.1746 11.1398L28.3726 12.4611Z" fill="#FFBA00"/>
</svg>
