<svg width="98" height="98" viewBox="0 0 98 98" fill="none" xmlns="http://www.w3.org/2000/svg">
<g clip-path="url(#clip0_5258_153050)">
<path d="M80.6458 0H17.3542C7.76973 0 0 7.96895 0 17.7991V80.2009C0 90.0311 7.76973 98 17.3542 98H80.6458C90.2303 98 98 90.0311 98 80.2009V17.7991C98 7.96895 90.2303 0 80.6458 0Z" fill="#001E36"/>
<g clip-path="url(#clip1_5258_153050)">
<path d="M49.0108 16C35.2336 16 31.2043 16.0142 30.421 16.0792C27.5937 16.3143 25.8344 16.7596 23.9177 17.7141C22.4406 18.4478 21.2757 19.2982 20.126 20.4904C18.0321 22.6645 16.7631 25.3393 16.3038 28.5187C16.0804 30.0622 16.0154 30.377 16.0023 38.2611C15.9972 40.8892 16.0023 44.3479 16.0023 48.987C16.0023 62.7568 16.0175 66.7832 16.0835 67.5651C16.3119 70.317 16.7433 72.0484 17.657 73.9422C19.4032 77.5675 22.738 80.2889 26.6669 81.3044C28.0272 81.6547 29.5297 81.8477 31.4586 81.9391C32.2758 81.9746 40.6055 82 48.9402 82C57.275 82 65.6097 81.9898 66.4066 81.9492C68.64 81.8441 69.937 81.67 71.3709 81.2993C75.3251 80.2788 78.5991 77.5979 80.3808 73.9219C81.2767 72.0738 81.731 70.2764 81.9366 67.6681C81.9812 67.0995 82 58.0329 82 48.9784C82 39.9224 81.9797 30.8726 81.935 30.3039C81.7269 27.6535 81.2726 25.8714 80.3478 23.9877C79.5889 22.4457 78.7463 21.2941 77.523 20.1167C75.3398 18.0309 72.6699 16.7616 69.4883 16.3026C67.9467 16.0797 67.6396 16.0137 59.7515 16H49.0108Z" fill="url(#paint0_radial_5258_153050)"/>
<path d="M49.0108 16C35.2336 16 31.2043 16.0142 30.421 16.0792C27.5937 16.3143 25.8344 16.7596 23.9177 17.7141C22.4406 18.4478 21.2757 19.2982 20.126 20.4904C18.0321 22.6645 16.7631 25.3393 16.3038 28.5187C16.0804 30.0622 16.0154 30.377 16.0023 38.2611C15.9972 40.8892 16.0023 44.3479 16.0023 48.987C16.0023 62.7568 16.0175 66.7832 16.0835 67.5651C16.3119 70.317 16.7433 72.0484 17.657 73.9422C19.4032 77.5675 22.738 80.2889 26.6669 81.3044C28.0272 81.6547 29.5297 81.8477 31.4586 81.9391C32.2758 81.9746 40.6055 82 48.9402 82C57.275 82 65.6097 81.9898 66.4066 81.9492C68.64 81.8441 69.937 81.67 71.3709 81.2993C75.3251 80.2788 78.5991 77.5979 80.3808 73.9219C81.2767 72.0738 81.731 70.2764 81.9366 67.6681C81.9812 67.0995 82 58.0329 82 48.9784C82 39.9224 81.9797 30.8726 81.935 30.3039C81.7269 27.6535 81.2726 25.8714 80.3478 23.9877C79.5889 22.4457 78.7463 21.2941 77.523 20.1167C75.3398 18.0309 72.6699 16.7616 69.4883 16.3026C67.9467 16.0797 67.6396 16.0137 59.7515 16H49.0108Z" fill="url(#paint1_radial_5258_153050)"/>
<path d="M49.0108 16C35.2336 16 31.2043 16.0142 30.421 16.0792C27.5937 16.3143 25.8344 16.7596 23.9177 17.7141C22.4406 18.4478 21.2757 19.2982 20.126 20.4904C18.0321 22.6645 16.7631 25.3393 16.3038 28.5187C16.0804 30.0622 16.0154 30.377 16.0023 38.2611C15.9972 40.8892 16.0023 44.3479 16.0023 48.987C16.0023 62.7568 16.0175 66.7832 16.0835 67.5651C16.3119 70.317 16.7433 72.0484 17.657 73.9422C19.4032 77.5675 22.738 80.2889 26.6669 81.3044C28.0272 81.6547 29.5297 81.8477 31.4586 81.9391C32.2758 81.9746 40.6055 82 48.9402 82C57.275 82 65.6097 81.9898 66.4066 81.9492C68.64 81.8441 69.937 81.67 71.3709 81.2993C75.3251 80.2788 78.5991 77.5979 80.3808 73.9219C81.2767 72.0738 81.731 70.2764 81.9366 67.6681C81.9812 67.0995 82 58.0329 82 48.9784C82 39.9224 81.9797 30.8726 81.935 30.3039C81.7269 27.6535 81.2726 25.8714 80.3478 23.9877C79.5889 22.4457 78.7463 21.2941 77.523 20.1167C75.3398 18.0309 72.6699 16.7616 69.4883 16.3026C67.9467 16.0797 67.6396 16.0137 59.7515 16H49.0108Z" fill="url(#paint2_radial_5258_153050)"/>
<path d="M49.0108 16C35.2336 16 31.2043 16.0142 30.421 16.0792C27.5937 16.3143 25.8344 16.7596 23.9177 17.7141C22.4406 18.4478 21.2757 19.2982 20.126 20.4904C18.0321 22.6645 16.7631 25.3393 16.3038 28.5187C16.0804 30.0622 16.0154 30.377 16.0023 38.2611C15.9972 40.8892 16.0023 44.3479 16.0023 48.987C16.0023 62.7568 16.0175 66.7832 16.0835 67.5651C16.3119 70.317 16.7433 72.0484 17.657 73.9422C19.4032 77.5675 22.738 80.2889 26.6669 81.3044C28.0272 81.6547 29.5297 81.8477 31.4586 81.9391C32.2758 81.9746 40.6055 82 48.9402 82C57.275 82 65.6097 81.9898 66.4066 81.9492C68.64 81.8441 69.937 81.67 71.3709 81.2993C75.3251 80.2788 78.5991 77.5979 80.3808 73.9219C81.2767 72.0738 81.731 70.2764 81.9366 67.6681C81.9812 67.0995 82 58.0329 82 48.9784C82 39.9224 81.9797 30.8726 81.935 30.3039C81.7269 27.6535 81.2726 25.8714 80.3478 23.9877C79.5889 22.4457 78.7463 21.2941 77.523 20.1167C75.3398 18.0309 72.6699 16.7616 69.4883 16.3026C67.9467 16.0797 67.6396 16.0137 59.7515 16H49.0108Z" fill="url(#paint3_radial_5258_153050)"/>
<path d="M49.0101 24.4727C42.3456 24.4727 41.5093 24.5018 38.8917 24.6208C36.2793 24.7403 34.4961 25.1536 32.9358 25.76C31.3219 26.3863 29.9528 27.2241 28.5888 28.5876C27.2238 29.9506 26.3854 31.3186 25.7566 32.9309C25.1482 34.4905 24.7341 36.2729 24.6165 38.8824C24.4994 41.4979 24.4688 42.3342 24.4688 48.9937C24.4688 55.6533 24.4984 56.4864 24.617 59.102C24.7372 61.7125 25.1507 63.4944 25.7571 65.0535C26.3843 66.6663 27.2228 68.0343 28.5873 69.3973C29.9507 70.7613 31.3198 71.6012 32.9327 72.2274C34.494 72.8338 36.2778 73.2471 38.8897 73.3667C41.5072 73.4857 42.3431 73.5148 49.007 73.5148C55.672 73.5148 56.5058 73.4857 59.1233 73.3666C61.7358 73.2471 63.521 72.8338 65.0823 72.2274C66.6958 71.6012 68.0628 70.7613 69.4263 69.3973C70.7913 68.0343 71.6297 66.6663 72.2585 65.054C72.8618 63.4944 73.2759 61.712 73.3986 59.1025C73.5161 56.487 73.5468 55.6532 73.5468 48.9937C73.5468 42.3342 73.5161 41.4985 73.3986 38.8829C73.2759 36.2724 72.8618 34.4905 72.2585 32.9314C71.6297 31.3186 70.7913 29.9506 69.4263 28.5876C68.0613 27.2236 66.6963 26.3858 65.0808 25.76C63.5164 25.1536 61.7322 24.7403 59.1198 24.6208C56.5022 24.5018 55.6689 24.4727 49.0024 24.4727H49.0101ZM46.8087 28.8916C47.4621 28.8905 48.1911 28.8916 49.0101 28.8916C55.5621 28.8916 56.3386 28.9151 58.926 29.0326C61.3186 29.1419 62.6171 29.5414 63.4821 29.877C64.6273 30.3214 65.4437 30.8527 66.3021 31.711C67.161 32.5692 67.6926 33.3866 68.1385 34.5309C68.4743 35.3942 68.8746 36.6918 68.9835 39.0826C69.1011 41.6675 69.1267 42.444 69.1267 48.9881C69.1267 55.5322 69.1011 56.3087 68.9835 58.8936C68.8741 61.2844 68.4743 62.582 68.1385 63.4453C67.6937 64.5896 67.161 65.4045 66.3021 66.2622C65.4432 67.1204 64.6278 67.6517 63.4821 68.0961C62.6181 68.4333 61.3186 68.8318 58.926 68.9411C56.3392 69.0586 55.5621 69.0841 49.0101 69.0841C42.4576 69.0841 41.681 69.0586 39.0942 68.9411C36.7016 68.8308 35.4031 68.4313 34.5375 68.0956C33.3924 67.6512 32.5744 67.1199 31.7155 66.2617C30.8566 65.4034 30.325 64.5881 29.8791 63.4433C29.5433 62.5799 29.143 61.2824 29.0341 58.8916C28.9165 56.3066 28.893 55.5301 28.893 48.982C28.893 42.4338 28.9165 41.6614 29.0341 39.0765C29.1435 36.6857 29.5433 35.3881 29.8791 34.5237C30.3239 33.3794 30.8566 32.5621 31.7155 31.7038C32.5744 30.8456 33.3924 30.3143 34.5375 29.8688C35.4025 29.5317 36.7016 29.1332 39.0942 29.0234C41.3579 28.9212 42.2352 28.8905 46.8087 28.8854L46.8087 28.8916ZM62.109 32.9631C60.4832 32.9631 59.1642 34.2796 59.1642 35.9046C59.1642 37.5291 60.4832 38.8471 62.109 38.8471C63.7347 38.8471 65.0537 37.5291 65.0537 35.9046C65.0537 34.2801 63.7347 32.9621 62.1089 32.9621L62.109 32.9631ZM49.0101 36.4011C42.0506 36.4011 36.4081 42.0394 36.4081 48.9937C36.4081 55.948 42.0506 61.5838 49.0101 61.5838C55.9695 61.5838 61.61 55.948 61.61 48.9937C61.61 42.0394 55.969 36.4011 49.0096 36.4011H49.0101ZM49.0101 40.82C53.5273 40.82 57.1899 44.4793 57.1899 48.9937C57.1899 53.5077 53.5273 57.1674 49.0101 57.1674C44.4923 57.1674 40.8303 53.5077 40.8303 48.9937C40.8303 44.4793 44.4923 40.82 49.0101 40.82Z" fill="white"/>
</g>
</g>
<defs>
<radialGradient id="paint0_radial_5258_153050" cx="0" cy="0" r="1" gradientTransform="matrix(-40.587 11.4465 -8.24677 -29.241 79.8689 46.935)" gradientUnits="userSpaceOnUse">
<stop stop-color="#FF005F"/>
<stop offset="1" stop-color="#FC01D8"/>
</radialGradient>
<radialGradient id="paint1_radial_5258_153050" cx="0" cy="0" r="1" gradientUnits="userSpaceOnUse" gradientTransform="translate(33.5307 87.0833) rotate(-90) scale(52.6824 55.895)">
<stop stop-color="#FFCC00"/>
<stop offset="0.1242" stop-color="#FFCC00"/>
<stop offset="0.5672" stop-color="#FE4A05"/>
<stop offset="0.6942" stop-color="#FF0F3F"/>
<stop offset="1" stop-color="#FE0657" stop-opacity="0"/>
</radialGradient>
<radialGradient id="paint2_radial_5258_153050" cx="0" cy="0" r="1" gradientTransform="matrix(10.935 -18.8414 24.5293 14.2362 50.6678 81.0692)" gradientUnits="userSpaceOnUse">
<stop stop-color="#FFCC00"/>
<stop offset="1" stop-color="#FFCC00" stop-opacity="0"/>
</radialGradient>
<radialGradient id="paint3_radial_5258_153050" cx="0" cy="0" r="1" gradientTransform="matrix(-40.1415 11.3032 -3.84999 -13.6764 24.9548 18.6875)" gradientUnits="userSpaceOnUse">
<stop stop-color="#780CFF"/>
<stop offset="1" stop-color="#820BFF" stop-opacity="0"/>
</radialGradient>
<clipPath id="clip0_5258_153050">
<rect width="98" height="98" fill="white"/>
</clipPath>
<clipPath id="clip1_5258_153050">
<rect width="66" height="66" fill="white" transform="translate(16 16)"/>
</clipPath>
</defs>
</svg>
