<svg width="161" height="242" viewBox="0 0 161 242" fill="none" xmlns="http://www.w3.org/2000/svg">
<path d="M0 201.687C0 179.74 17.7913 161.949 39.7379 161.949H79.4758V201.687C79.4758 223.634 61.6846 241.425 39.7379 241.425C17.7913 241.425 0 223.634 0 201.687Z" fill="#0ACF83"/>
<path d="M80.9688 120.714C80.9688 98.7677 98.7598 80.9766 120.706 80.9766C142.653 80.9766 160.445 98.768 160.445 120.715V122.214C160.445 144.16 142.653 161.952 120.706 161.952C98.7598 161.952 80.9688 144.161 80.9688 122.214V120.714Z" fill="#1ABCFE"/>
<path d="M0 121.462C0 143.822 18.127 161.949 40.4877 161.949H79.4758L79.4758 80.9738L40.4877 80.9738C18.127 80.9738 0 99.1008 0 121.462Z" fill="#A259FF"/>
<path d="M80.9688 0V80.9754H119.957C142.318 80.9754 160.445 62.8484 160.445 40.4877C160.445 18.127 142.318 0 119.957 0L80.9688 0Z" fill="#FF7262"/>
<path d="M0 40.4889C0 62.8496 18.127 80.9766 40.4877 80.9766L79.4758 80.9766L79.4758 0.00118256L40.4877 0.00118256C18.127 0.00118256 0 18.1281 0 40.4889Z" fill="#F24E1E"/>
</svg>
