<svg width="98" height="98" viewBox="0 0 98 98" fill="none" xmlns="http://www.w3.org/2000/svg">
<g clip-path="url(#clip0_5258_152523)">
<path d="M80.6458 0H17.3542C7.76973 0 0 7.96895 0 17.7991V80.2009C0 90.0311 7.76973 98 17.3542 98H80.6458C90.2303 98 98 90.0311 98 80.2009V17.7991C98 7.96895 90.2303 0 80.6458 0Z" fill="#003D2A"/>
<g clip-path="url(#clip1_5258_152523)">
<path d="M49.0012 54.2094C52.1516 54.2094 54.7056 51.6529 54.7056 48.4992C54.7056 45.3456 52.1516 42.7891 49.0012 42.7891C45.8508 42.7891 43.2969 45.3456 43.2969 48.4992C43.2969 51.6529 45.8508 54.2094 49.0012 54.2094Z" fill="#61DAFB"/>
<path d="M48.9993 60.1986C65.904 60.1986 79.608 54.9608 79.608 48.4997C79.608 42.0386 65.904 36.8008 48.9993 36.8008C32.0946 36.8008 18.3906 42.0386 18.3906 48.4997C18.3906 54.9608 32.0946 60.1986 48.9993 60.1986Z" stroke="#61DAFB"/>
<path d="M38.8744 54.3511C47.3268 69.0059 58.7102 78.2671 64.3 75.0366C69.8898 71.806 67.5692 57.307 59.1168 42.6522C50.6645 27.9973 39.2811 18.7361 33.6913 21.9666C28.1015 25.1972 30.4221 39.6962 38.8744 54.3511Z" stroke="#61DAFB"/>
<path d="M38.8751 42.6525C30.4228 57.3074 28.1022 71.8064 33.692 75.0369C39.2818 78.2675 50.6652 69.0062 59.1175 54.3514C67.5699 39.6965 69.8905 25.1975 64.3007 21.967C58.7109 18.7364 47.3275 27.9976 38.8751 42.6525Z" stroke="#61DAFB"/>
</g>
</g>
<defs>
<clipPath id="clip0_5258_152523">
<rect width="98" height="98" fill="white"/>
</clipPath>
<clipPath id="clip1_5258_152523">
<rect width="64" height="57" fill="white" transform="translate(17 20)"/>
</clipPath>
</defs>
</svg>
